<?xml version="1.0" encoding="UTF-8" standalone="no"?>
<svg width="98px" height="40px" viewBox="0 0 98 40" version="1.1" xmlns="http://www.w3.org/2000/svg" xmlns:xlink="http://www.w3.org/1999/xlink" xmlns:sketch="http://www.bohemiancoding.com/sketch/ns">
    <!-- Generator: Sketch 3.1 (8751) - http://www.bohemiancoding.com/sketch -->
    <title>logo</title>
    <desc>Created with Sketch.</desc>
    <defs></defs>
    <g id="Page-1" stroke="none" stroke-width="1" fill="none" fill-rule="evenodd" sketch:type="MSPage">
        <path d="M88.6352257,7.87736683 C88.5139883,6.10234177 87.7474376,5.73973187 86.9412092,5.73973187 C85.7304889,5.73973187 84.843803,6.3442654 84.4398622,5.13464726 C83.9554638,3.72223209 85.0449468,3.60154582 88.2318359,2.35059676 C89.9666322,1.66505464 92.508208,0.777266567 93.1540725,0.777266567 C94.3636906,0.777266567 94.3636906,1.74551216 94.3636906,2.3913766 C94.3636906,3.80324069 94.2832331,5.61849451 94.2832331,7.23205347 L94.2832331,18.6079748 C94.2832331,20.181305 94.3240129,22.4407284 94.4843769,25.0627617 C94.8073091,29.7425235 96.3806393,25.5879398 97.5109021,28.048507 C97.9941983,29.096659 93.7988348,31.43654 92.8708179,31.43654 C91.0561152,31.43654 90.2884623,30.186142 89.5224627,28.6133629 C87.9089037,30.0246759 85.5690228,31.5980061 82.7458457,31.5980061 C78.9130921,31.5980061 74.9199745,27.8870409 74.9199745,22.9251267 C74.9199745,16.2686449 79.8008802,13.3236794 83.7939977,13.3236794 C87.142353,13.3236794 88.8369205,14.6545349 88.8369205,14.6545349 C88.8369205,14.6545349 88.8369205,10.9027899 88.6352257,7.87736683 L88.6352257,7.87736683 Z M88.9173781,20.3030934 C88.9173781,17.9632125 87.0222178,15.542323 84.3990823,15.542323 C81.9385151,15.542323 80.0422527,17.7207378 80.0422527,20.9478557 C80.0422527,24.5386856 82.3022272,27.5641087 85.4483365,27.5641087 C87.7077599,27.5641087 89.1185218,26.273482 89.1185218,26.273482 L88.9173781,20.3030934 L88.9173781,20.3030934 Z M65.3984337,6.99012984 C65.3984337,8.76515491 66.8913064,10.0960104 68.5858739,10.0960104 C70.2809925,10.0960104 71.7330854,8.76515491 71.7330854,6.99012984 C71.7330854,5.21510477 70.2809925,3.8836982 68.5858739,3.8836982 C66.8913064,3.8836982 65.3984337,5.21510477 65.3984337,6.99012984 L65.3984337,6.99012984 Z M71.450933,29.5000488 C71.450933,37.9717844 65.358756,39.2227334 62.5355789,39.2227334 C60.8404603,39.2227334 58.2994356,38.6986574 56.765232,37.4477084 C56.5640882,37.2862423 56.5640882,36.96331 56.765232,36.7621662 C57.0484865,36.4794628 57.0881642,36.4794628 58.742503,35.3899798 C60.3968418,34.3004969 60.6393165,34.1803617 61.0019264,34.1803617 C61.5667822,34.1803617 61.7684771,36.1973104 63.6239597,36.1973104 C65.2369676,36.1973104 65.9638406,34.6636579 65.9638406,29.1374389 L65.9638406,20.908178 C65.9638406,15.4216367 63.0585528,18.5682971 62.4137905,16.6720347 C62.333333,16.4703398 62.2925531,16.2686449 62.2925531,16.1071788 C62.2925531,15.0987045 63.5440533,14.9774671 64.5117478,14.7757722 C68.4244078,13.8885352 70.2402127,13.565603 70.6843823,13.565603 C71.3291446,13.565603 71.6520768,14.0092215 71.6520768,14.8567808 C71.6520768,15.4216367 71.450933,17.6000515 71.450933,18.7694409 L71.450933,29.5000488 L71.450933,29.5000488 Z M51.9251062,29.3385827 C47.9716663,29.3385827 46.6402597,24.6191432 46.6402597,20.908178 C46.6402597,17.8822039 47.8102002,15.5825517 50.2713185,15.5825517 C54.2253094,15.5825517 55.556716,20.3427711 55.556716,24.0542873 C55.556716,27.0797103 54.3867755,29.3385827 51.9251062,29.3385827 L51.9251062,29.3385827 Z M51.3205727,31.5980061 C57.5736647,31.5980061 61.0427062,26.7171004 61.0427062,22.3200421 C61.0427062,18.04367 57.5736647,13.3236794 50.7551657,13.3236794 C44.5026248,13.3236794 41.0330322,18.2051361 41.0330322,22.6021945 C41.0330322,26.8785666 44.5026248,31.5980061 51.3205727,31.5980061 L51.3205727,31.5980061 Z M52.2877161,7.35273974 C52.2877161,8.88584118 53.4989875,10.0960104 55.0315378,10.0960104 C56.5651903,10.0960104 57.7351308,8.88584118 57.7351308,7.35273974 C57.7351308,5.82018938 56.5651903,4.56979141 55.0315378,4.56979141 C53.4989875,4.56979141 52.2877161,5.82018938 52.2877161,7.35273974 L52.2877161,7.35273974 Z M44.0584552,7.35273974 C44.0584552,8.88584118 45.2691755,10.0960104 46.8017259,10.0960104 C48.3348273,10.0960104 49.5047678,8.88584118 49.5047678,7.35273974 C49.5047678,5.82018938 48.3348273,4.56979141 46.8017259,4.56979141 C45.2691755,4.56979141 44.0584552,5.82018938 44.0584552,7.35273974 L44.0584552,7.35273974 Z M26.590908,20.5042372 C26.590908,15.2193907 23.3637901,18.9716868 23.3637901,15.9457127 C23.3637901,15.1389332 24.5337305,14.8970096 26.5104505,14.3723825 C28.0435519,13.9689928 30.0202719,13.2426708 30.5851277,13.2426708 C31.2304411,13.2426708 31.5528222,15.5020942 31.6338308,15.8250264 C31.6338308,15.8250264 33.0859237,13.4449167 36.0308892,13.4449167 C38.048389,13.4449167 39.9038715,14.9372383 39.9038715,17.2771193 C39.9038715,19.1728306 38.4920075,20.705381 36.7572111,20.705381 C35.5470419,20.705381 35.4258046,20.2623135 35.4258046,20.1008474 C35.4258046,19.8997036 35.5872707,19.6572289 35.5872707,19.0113645 C35.5872707,18.1246786 34.8609487,17.3575768 33.6507795,17.3575768 C32.5210678,17.3575768 31.6740596,18.3258224 31.6740596,18.4465086 L31.6740596,25.4264737 C31.6740596,30.2269218 36.9991348,27.684795 36.9991348,29.6615149 C36.9991348,30.8716841 36.6767536,30.9521416 35.4258046,30.9521416 C34.4983388,30.9521416 29.7783482,30.7113202 29.7783482,30.7113202 C28.2452468,30.7113202 27.1959926,30.8716841 24.6544168,30.8716841 C24.1303408,30.8716841 23.5252562,30.7906755 23.5252562,29.7822012 C23.5252562,28.048507 26.590908,29.822981 26.590908,25.7483038 L26.590908,20.5042372 L26.590908,20.5042372 Z M4.92799729,25.3856939 C4.92799729,30.1459132 0.49071016,27.7652525 0.49071016,29.822981 C0.49071016,31.0739301 1.29748964,31.0739301 1.90257425,31.0739301 C3.35521817,31.0739301 5.97725147,30.7509978 10.6162335,30.7509978 C13.7628939,30.7509978 15.8206224,30.9124639 17.2324865,30.9124639 C17.8375711,30.9124639 18.3616471,30.7906755 18.3616471,29.6615149 C18.3616471,28.6530405 17.5146389,28.5329054 16.3446984,28.5329054 C16.062546,28.5329054 15.7396138,28.572583 15.4574614,28.572583 C13.4405127,28.572583 11.0196232,28.3301083 11.0196232,24.2157534 L11.0196232,16.1876363 C11.0196232,16.1876363 11.5442503,16.1071788 12.5124959,16.1071788 C18.8460454,16.1071788 15.4976902,21.9166523 18.3214183,21.9166523 C19.45113,21.9166523 19.4913588,21.0696441 19.4913588,19.9393813 C19.4913588,18.6487546 19.4109013,18.04367 19.4109013,14.2109164 C19.4109013,12.7185948 19.5315876,11.9118153 19.5315876,11.1452646 C19.5315876,9.41046827 19.0477403,9.24900216 18.3616471,9.24900216 C15.9010799,9.24900216 18.7650368,13.5253743 12.5124959,13.5253743 C11.2620979,13.5253743 11.0196232,13.3639081 11.0196232,13.3639081 L11.0196232,5.17432494 C11.1006318,5.17432494 12.5929534,4.65024892 15.2155378,4.65024892 C24.2515782,4.65024892 20.0964434,10.0557816 23.1224175,10.0557816 C24.5745104,10.0557816 24.4935018,8.52323128 24.7359765,5.98165549 C24.816434,4.97318115 24.9376714,4.12562183 24.9376714,3.48030846 C24.9376714,2.63330023 24.7359765,2.14890189 24.090112,2.14890189 C22.5575617,2.14890189 19.3701215,2.51206288 10.535776,2.51206288 C8.19589504,2.51206288 4.44415003,2.31036801 2.30596399,2.31036801 C1.17625228,2.31036801 0.450481402,2.51206288 0.450481402,3.56131706 C0.450481402,6.50573151 4.68662474,2.31036801 4.76708226,9.81385801 L4.92799729,25.3856939 L4.92799729,25.3856939 Z" id="logo" fill="#000000" sketch:type="MSShapeGroup"></path>
    </g>
</svg>