<?xml version="1.0" encoding="UTF-8"?>
<svg width="72px" height="67px" viewBox="0 0 72 67" version="1.1" xmlns="http://www.w3.org/2000/svg" xmlns:xlink="http://www.w3.org/1999/xlink">
    <!-- Generator: Sketch 42 (36781) - http://www.bohemiancoding.com/sketch -->
    <title>Group</title>
    <desc>Created with Sketch.</desc>
    <defs>
        <polygon id="path-1" points="67.6191365 33.5317525 67.6191365 66.9122531 0.689928968 66.9122531 0.689928968 0.151251942 67.6191365 0.151251942 67.6191365 33.5317525"></polygon>
        <polygon id="path-3" points="67.2218213 66.9122531 -3.15294118 66.9122531 -3.15294118 51.7093135 -3.15294118 36.506374 67.2218213 36.506374"></polygon>
    </defs>
    <g id="Page-1" stroke="none" stroke-width="1" fill="none" fill-rule="evenodd">
        <g id="Desktop-HD-Copy-4" transform="translate(-138.000000, -736.000000)">
            <g id="Group" transform="translate(142.000000, 736.000000)">
                <mask id="mask-2" fill="white">
                    <use xlink:href="#path-1"></use>
                </mask>
                <g id="Clip-2"></g>
                <path d="M0.689928968,0.151251942 L0.689928968,66.9238535 L67.2218213,66.9238535 L67.2218213,44.8816715 C67.4884084,44.5059956 67.6191365,44.0140921 67.6191365,43.4151077 C67.6191365,42.7313507 67.4884084,42.3119501 67.2218213,41.9581365 L67.2218213,0.151251942 L0.689928968,0.151251942 Z" id="Fill-1" fill="#000000" mask="url(#mask-2)"></path>
                <path d="M0.689928968,33.9582919 L3.88741287,33.9582919 L4.60686349,32.2164406 L6.22021754,32.2164406 L6.93699112,33.9582919 L13.2262164,33.9582919 L13.2262164,32.6300411 L13.7859378,33.9658768 L17.0472242,33.9658768 L17.6033762,32.6137558 L17.6033762,33.9582919 L33.2293973,33.9582919 L33.2256049,31.1056981 L33.5269933,31.1056981 C33.7393707,31.1110522 33.8011654,31.1329145 33.8011654,31.481374 L33.8011654,33.9582919 L41.8804284,33.9582919 L41.8804284,33.2926049 C42.532061,33.6464184 43.5462075,33.9582919 44.8764661,33.9582919 L48.2811964,33.9582919 L49.0048857,32.2164406 L50.6222553,32.2164406 L51.3334517,33.9582919 L57.8830178,33.9582919 L57.8830178,32.3070133 L58.8775327,33.9582919 L64.1207103,33.9582919 L64.1207103,23.0462897 L58.9263885,23.0462897 L58.9263885,24.3384007 L58.2024761,23.0462897 L52.8687259,23.0462897 L52.8687259,24.3384007 L52.2025927,23.0462897 L45.0034018,23.0462897 C43.7985172,23.0462897 42.7332841,23.2133807 41.8804284,23.6831987 L41.8804284,23.0462897 L36.9149922,23.0462897 L36.9149922,23.6831987 C36.3653097,23.2004417 35.624889,23.0462897 34.8010344,23.0462897 L16.6479012,23.0462897 L15.422939,25.8647514 L14.1799068,23.0462897 L8.46133407,23.0462897 L8.46133407,24.3384007 L7.82821754,23.0462897 L2.95558491,23.0462897 L0.689928968,28.2292342 L0.689928968,33.9582919 Z M62.4560466,32.4196715 L59.8064606,32.4196715 L56.262525,26.5525239 L56.2660943,32.4196715 L52.4569101,32.4196715 L51.7269745,30.6755893 L47.836364,30.6755893 L47.1394451,32.4196715 L44.9474073,32.4196715 C44.0327569,32.4196715 42.8856515,32.2164406 42.2378113,31.5556615 C41.5754706,30.8879667 41.2399501,29.9916093 41.2399501,28.5687703 C41.2399501,27.4053796 41.4467503,26.3455006 42.2451731,25.5127225 C42.8546426,24.884737 43.7985172,24.5962875 45.0888435,24.5962875 L46.8909279,24.5962875 L46.8909279,26.2694284 L45.1272142,26.2694284 C44.4412264,26.2694284 44.0528346,26.372717 43.6789434,26.735677 C43.3666238,27.0678513 43.1450999,27.688475 43.1450999,28.5087603 C43.1450999,29.3509079 43.3083984,29.9496693 43.6662275,30.3472075 C43.9457536,30.653727 44.4717891,30.7483152 44.9636926,30.7483152 L45.8036093,30.7483152 L48.4407026,24.5962875 L51.2373019,24.5962875 L54.4024384,31.9949168 L54.4024384,24.5962875 L57.2588246,24.5962875 L60.5433119,30.0440344 L60.5433119,24.5962875 L62.4560466,24.5962875 L62.4560466,32.4196715 Z M38.4143496,32.4196715 L40.3230688,32.4196715 L40.3230688,24.5962875 L38.4143496,24.5962875 L38.4143496,32.4196715 Z M37.3310466,26.7084606 C37.3310466,27.9443541 36.4975993,28.599556 36.0170733,28.790071 C36.4233119,28.9515849 36.7702098,29.2201798 36.9315006,29.4506271 C37.1985339,29.8336648 37.2507358,30.1910477 37.2507358,30.8788202 L37.2507358,32.4196715 L35.3634329,32.4196715 L35.3545094,31.4325183 C35.3545094,30.969616 35.4015805,30.2871976 35.0535671,29.915091 C34.7829645,29.6337802 34.3727103,29.5777858 33.6940844,29.5777858 L31.683192,29.5777858 L31.683192,32.4196715 L29.8175283,32.4196715 L29.8175283,24.5962875 L34.1150466,24.5962875 C35.071414,24.5962875 35.7772564,24.6270733 36.3851643,24.9737481 C36.9787947,25.3184151 37.3310466,25.8301731 37.3310466,26.7084606 L37.3310466,26.7084606 Z M28.5191709,32.4196715 L22.2718857,32.4196715 L22.2718857,24.5962875 L28.5191709,24.5962875 L28.5191709,26.2277114 L24.1464728,26.2277114 L24.1464728,27.6358269 L28.4100821,27.6358269 L28.4100821,29.2400344 L24.1464728,29.236465 L24.1464728,30.8009634 L28.5191709,30.8009634 L28.5191709,32.4196715 Z M20.8791632,32.4196715 L18.9670977,32.4196715 L18.9543818,26.3002142 L16.2467936,32.4196715 L14.6062231,32.4196715 L11.8814573,26.2854906 L11.8814573,32.4196715 L8.07874251,32.4196715 L7.36174584,30.6755893 L3.46645061,30.6755893 L2.74566149,32.4196715 L0.709560488,32.4196715 L4.05495006,24.5962875 L6.83816426,24.5962875 L10.0157936,32.0058479 L10.0157936,24.5962875 L13.0718413,24.5962875 L15.5179734,29.9079523 L17.7675671,24.5962875 L20.8791632,24.5962875 L20.8791632,32.4196715 Z M51.0902886,29.0441654 L49.7930466,25.9298923 L48.509859,29.0441654 L51.0902886,29.0441654 Z M34.880899,27.8082719 C34.6283663,27.9552852 34.3218468,27.9642087 33.9591099,27.9642087 L31.683192,27.9642087 L31.683192,26.2277114 L33.9807492,26.2277114 C34.314485,26.2277114 34.6558058,26.2402042 34.8773296,26.3673629 C35.1204928,26.4835905 35.2692908,26.7249689 35.2692908,27.0553585 C35.2692908,27.4035949 35.1238391,27.6739745 34.880899,27.8082719 L34.880899,27.8082719 Z M6.68735849,29.0441654 L5.4090788,25.9298923 L4.13503774,29.0441654 L6.68735849,29.0441654 L6.68735849,29.0441654 Z" id="Fill-4" fill="#FFFFFF" mask="url(#mask-2)"></path>
                <mask id="mask-4" fill="white">
                    <use xlink:href="#path-3"></use>
                </mask>
                <g id="Clip-6"></g>
                <path d="M36.9315006,40.638586 C36.9315006,42.8107691 35.3127925,43.2627403 33.6793607,43.2627403 L31.343879,43.2627403 L31.343879,45.8868946 L27.7151709,45.8868946 L25.4095827,43.2993263 L23.0178835,45.8868946 L15.6105538,45.8868946 L15.6105538,38.0599412 L23.1309878,38.0599412 L25.4332297,40.6238624 L27.8104284,38.0599412 L33.7848801,38.0599412 C35.2692908,38.0599412 36.9315006,38.4717569 36.9315006,40.638586 L36.9315006,40.638586 Z M22.0695472,44.2498935 L17.4699711,44.2498935 L17.4699711,42.6983341 L21.5760821,42.6983341 L21.5760821,41.1014883 L17.4699711,41.1014883 L17.4699711,39.6842264 L22.1556582,39.6842264 L24.1988979,41.9634906 L22.0695472,44.2498935 Z M29.48,45.1772597 L26.6126826,41.9871376 L29.48,38.9072198 L29.48,45.1772597 Z M33.7630178,41.6694639 L31.343879,41.6694639 L31.343879,39.6842264 L33.7848801,39.6842264 C34.4599367,39.6842264 34.92797,39.9490289 34.92797,40.638586 C34.92797,41.3210044 34.481576,41.6694639 33.7630178,41.6694639 L33.7630178,41.6694639 Z M46.3773851,38.0599412 L52.6240011,38.0599412 L52.6240011,39.6842264 L48.2448335,39.6842264 L48.2448335,41.1014883 L52.5131276,41.1014883 L52.5131276,42.6983341 L48.2448335,42.6983341 L48.2448335,44.2498935 L52.6240011,44.2608246 L52.6240011,45.8868946 L46.3773851,45.8868946 L46.3773851,38.0599412 Z M44.0160255,42.246586 C44.4302952,42.4025228 44.7729545,42.6751332 44.9311221,42.9071421 C45.1961476,43.2917414 45.2378646,43.6455549 45.241434,44.3333274 L45.241434,45.8868946 L43.3666238,45.8868946 L43.3666238,44.9030877 C43.3666238,44.4350544 43.406556,43.7401432 43.0636737,43.3771831 C42.793071,43.0902952 42.3759012,43.0249312 41.6916981,43.0249312 L39.6899523,43.0249312 L39.6899523,45.8868946 L37.8171498,45.8868946 L37.8171498,38.0599412 L42.1307303,38.0599412 C43.0817436,38.0599412 43.7715239,38.1018812 44.3830011,38.4356171 C44.9710544,38.7858613 45.3393685,39.2813341 45.3393685,40.1703296 C45.3393685,41.4133618 44.5083751,42.0525017 44.0160255,42.246586 L44.0160255,42.246586 Z M42.8856515,41.2792875 C42.6407037,41.4227314 42.3268224,41.4387936 41.9656471,41.4387936 L39.6899523,41.4387936 L39.6899523,39.6842264 L42.0000022,39.6842264 C42.3268224,39.6842264 42.6661354,39.6898036 42.8856515,39.8203085 C43.1272531,39.9490289 43.2740433,40.1850533 43.2740433,40.5243663 C43.2740433,40.8618946 43.1272531,41.1287048 42.8856515,41.2792875 L42.8856515,41.2792875 Z M59.7558202,41.7600366 C60.1294883,42.1377203 60.321788,42.6149001 60.321788,43.4151077 C60.321788,45.1047569 59.2659245,45.8868946 57.3837525,45.8868946 L53.7380899,45.8868946 L53.7380899,44.2063918 L57.3674673,44.2063918 C57.7268579,44.2063918 57.9738135,44.1608824 58.131535,44.0140921 C58.2586937,43.8960799 58.3528357,43.7236349 58.3528357,43.5076881 C58.3528357,43.2774639 58.256909,43.0902952 58.1259578,42.9870067 C57.9789445,42.8634173 57.7868679,42.818131 57.4602708,42.8107691 C55.7106115,42.7491976 53.5221432,42.8634173 53.5221432,40.3882841 C53.5221432,39.257687 54.2353474,38.0599412 56.1933685,38.0599412 L59.940758,38.0599412 L59.940758,39.7259434 L56.5179578,39.7259434 C56.1699445,39.7259434 55.9502053,39.7422286 55.7616981,39.8655949 C55.5582442,39.9925305 55.4839567,40.1850533 55.4839567,40.429778 C55.4839567,40.727374 55.6599711,40.9290433 55.8939878,41.0160466 C56.0900799,41.0831953 56.2968801,41.1014883 56.6145538,41.1068424 L57.6269156,41.1287048 C58.6453008,41.1577059 59.3328502,41.3317125 59.7558202,41.7600366 L59.7558202,41.7600366 Z M67.2218213,44.8816715 C66.7624883,45.5529356 65.8788468,45.8868946 64.6828857,45.8868946 L61.0697936,45.8868946 L61.0697936,44.2063918 L64.6666004,44.2063918 C65.0237603,44.2063918 65.2729467,44.1608824 65.4253141,44.0140921 C65.5522497,43.8960799 65.6481765,43.7236349 65.6481765,43.5076881 C65.6481765,43.2774639 65.5522497,43.0902952 65.419737,42.9870067 C65.2760699,42.8634173 65.0839933,42.818131 64.7609656,42.8107691 C63.0059523,42.7491976 60.8156992,42.8634173 60.8156992,40.3882841 C60.8156992,39.257687 61.5360422,38.0599412 63.4942863,38.0599412 L67.2218213,38.0599412 L67.2218213,36.506374 L63.7588657,36.506374 C62.7121487,36.506374 61.9534351,36.751545 61.41803,37.1437292 L61.41803,36.506374 L56.2968801,36.506374 C55.4839567,36.506374 54.5237969,36.7096049 54.064687,37.1437292 L54.0700411,36.506374 L44.9217525,36.506374 L44.9217525,37.1437292 C44.1942708,36.6226016 42.9693085,36.506374 42.4031176,36.506374 L36.3780255,36.506374 L36.3780255,37.1437292 C35.7935416,36.5900311 34.5215083,36.506374 33.7393707,36.506374 L26.9901432,36.506374 L25.4439378,38.1779534 L24.0003518,36.506374 L13.919343,36.506374 L13.919343,47.4241765 L23.8071598,47.4241765 L25.4022209,45.7273885 L26.9022475,47.4241765 L32.9971654,47.4257381 L32.9971654,44.8578013 L33.5994961,44.8578013 C34.4019345,44.8669478 35.3634329,44.8417392 36.201788,44.4821254 L36.201788,47.4241765 L41.2325882,47.4241765 L41.2325882,44.5782752 L41.472182,44.5782752 C41.7842786,44.5782752 41.8150644,44.5945605 41.8150644,44.8979567 L41.8150644,47.4241765 L57.0937414,47.4241765 C58.0574706,47.4241765 59.066263,47.1756593 59.6322309,46.7254728 L59.6322309,47.4241765 L64.4796548,47.4241765 C65.4906781,47.4241765 66.4720311,47.2863097 67.2218213,46.9213418 L67.2218213,44.8816715 Z M67.2218213,39.7259434 L63.8081676,39.7259434 C63.4670699,39.7259434 63.2417536,39.7422286 63.054808,39.8655949 C62.8627314,39.9925305 62.780859,40.1850533 62.780859,40.429778 C62.780859,40.727374 62.9479501,40.9290433 63.1949057,41.0160466 C63.3869822,41.0831953 63.5975749,41.1014883 63.9116792,41.1068424 L64.9222564,41.1287048 C65.9459956,41.1577059 66.628414,41.3317125 67.0511609,41.7600366 C67.1183097,41.8164772 67.1709578,41.8907647 67.2218213,41.9581365 L67.2218213,39.7259434 L67.2218213,39.7259434 Z" id="Fill-5" fill="#FFFFFF" mask="url(#mask-4)"></path>
                <path d="M-0.974288568,66.1053529 L-1.25202997,66.1053529 C-1.2883929,65.9944795 -1.29553163,65.7876792 -1.29553163,65.7350311 C-1.29553163,65.627727 -1.31203996,65.5262231 -1.5032242,65.5262231 L-1.91548613,65.5262231 L-1.91347836,66.1053529 L-2.15954162,66.1053529 L-2.15954162,64.6898757 L-1.5032242,64.6898757 C-1.27746171,64.6898757 -1.02626748,64.7748713 -1.02626748,65.0907603 C-1.02626748,65.2685594 -1.10390122,65.348424 -1.18041953,65.4082109 C-1.11483241,65.4447969 -1.06039956,65.5027991 -1.05147614,65.6607436 L-1.0443374,65.9090377 C-1.04054495,65.9784173 -1.03340622,65.990687 -0.974288568,66.0254883 L-0.974288568,66.1053529 Z M-1.27924639,65.1034761 C-1.27924639,64.9274617 -1.39993563,64.9111765 -1.49050832,64.9111765 L-1.91548613,64.9111765 L-1.91548613,65.3029145 L-1.5215172,65.3029145 C-1.39257381,65.3029145 -1.27924639,65.2759212 -1.27924639,65.1034761 L-1.27924639,65.1034761 Z M-0.117863485,65.4117802 C-0.117863485,64.5790022 -0.794704772,63.9019378 -1.63328302,63.9019378 C-2.47141509,63.9019378 -3.15294118,64.5790022 -3.15294118,65.4117802 C-3.15294118,66.2503585 -2.47141509,66.9256382 -1.63328302,66.9256382 C-0.794704772,66.9256382 -0.117863485,66.2503585 -0.117863485,65.4117802 L-0.117863485,65.4117802 Z M-0.34563374,65.4117802 C-0.34563374,66.1269922 -0.894647059,66.7043374 -1.63328302,66.7043374 C-2.37437292,66.7043374 -2.91981687,66.1269922 -2.91981687,65.4117802 C-2.91981687,64.7041532 -2.37638069,64.1252464 -1.63328302,64.1252464 C-0.889293008,64.1252464 -0.34563374,64.7041532 -0.34563374,65.4117802 L-0.34563374,65.4117802 Z" id="Fill-7" fill="#000000" mask="url(#mask-4)"></path>
            </g>
        </g>
    </g>
</svg>