<?xml version="1.0" encoding="UTF-8"?>
<svg width="124px" height="28px" viewBox="0 0 124 28" version="1.1" xmlns="http://www.w3.org/2000/svg" xmlns:xlink="http://www.w3.org/1999/xlink">
    <!-- Generator: Sketch 42 (36781) - http://www.bohemiancoding.com/sketch -->
    <title>Fill-1</title>
    <desc>Created with Sketch.</desc>
    <defs></defs>
    <g id="Page-1" stroke="none" stroke-width="1" fill="none" fill-rule="evenodd">
        <g id="Desktop-HD-Copy-4" transform="translate(-384.000000, -756.000000)" fill-rule="nonzero" fill="#000000">
            <path d="M410.933481,783.672187 L410.933481,782.483301 C408.26847,782.196062 407.735854,781.827675 406.423958,778.261018 C403.80081,771.168277 401.053363,763.461128 398.512007,756.410249 L397.0771,756.819855 L388.591315,778.261018 C387.197626,781.827675 386.623148,782.11427 384,782.483301 L384,783.672187 L392.977183,783.672187 L392.977183,782.483301 C389.903211,782.155488 389.574754,781.745239 390.394609,779.244457 C390.968442,777.563529 391.54292,775.883246 392.157972,774.1611 L400.766768,774.1611 C401.627841,776.497654 402.407121,778.629405 402.898519,780.146748 C403.472353,781.786457 403.14454,782.155488 400.561965,782.483301 L400.561965,783.672187 L410.933481,783.672187 Z M400.15236,772.316589 L392.813598,772.316589 C394.002484,768.995952 395.273806,765.552305 396.54384,762.149232 L396.667495,762.149232 L400.15236,772.316589 Z M434.353758,763.379336 C434.1496,760.960346 433.944153,757.844512 433.944153,756 L433.041862,756 C432.42681,756.778636 432.058423,757.024657 430.95133,757.024657 L414.676603,757.024657 C413.527647,757.024657 413.036894,756.942865 412.421842,756 L411.560769,756 C411.478977,758.213543 411.272886,760.960346 411.068084,763.502346 L412.339406,763.502346 C412.790873,761.65719 413.200478,760.468304 413.691876,759.77146 C414.266354,758.869813 415.045634,758.500782 418.447419,758.500782 L420.783973,758.500782 L420.783973,778.547612 C420.783973,781.868249 420.45616,782.23728 416.767136,782.483301 L416.767136,783.672187 L428.819579,783.672187 L428.819579,782.483301 C424.965682,782.23728 424.637869,781.827675 424.637869,778.547612 L424.637869,758.500782 L427.343454,758.500782 C430.336278,758.500782 431.033122,758.788021 431.729966,759.730886 C432.263226,760.42773 432.672831,761.493606 433.123654,763.502346 L434.353758,763.379336 Z M462.611372,782.89355 C461.710369,782.606312 460.808078,782.155488 459.742203,781.007176 C458.758764,779.941301 457.938265,778.875426 456.46214,776.661882 C455.23268,774.817371 453.552397,772.070568 452.855553,770.799246 C455.847088,769.487349 458.061919,767.355599 458.061919,763.788941 C458.061919,761.329377 456.954182,759.484865 455.314472,758.41899 C453.756555,757.393688 451.747815,757.024657 448.631981,757.024657 L438.260466,757.024657 L438.260466,758.213543 C441.416874,758.459564 441.744687,758.665011 441.744687,762.108658 L441.744687,778.46582 C441.744687,781.950685 441.3763,782.23728 438.096881,782.483301 L438.096881,783.672187 L449.124667,783.672187 L449.124667,782.483301 C445.885822,782.23728 445.516147,781.950685 445.516147,778.46582 L445.516147,772.02935 L446.705033,772.02935 C448.713773,772.02935 449.370687,772.521391 450.108106,773.710277 C451.296992,775.719017 452.69068,778.219799 454.084368,780.187322 C455.88895,782.811114 457.569234,783.753979 461.054099,783.959426 C461.504922,784 461.996964,784 462.447787,784 L462.611372,782.89355 Z M445.516147,770.676235 L445.516147,760.550741 C445.516147,759.484865 445.639801,759.033398 445.926396,758.788021 C446.254853,758.542 446.951698,758.377772 448.099365,758.377772 C451.050971,758.377772 453.88021,760.017481 453.88021,764.445211 C453.88021,766.658754 453.223296,768.298464 451.707241,769.528567 C450.682584,770.348422 449.328825,770.676235 447.320085,770.676235 L445.516147,770.676235 Z M477.148496,783.672187 L477.148496,782.483301 C473.827859,782.23728 473.500046,781.99126 473.500046,778.506394 L473.500046,762.19045 C473.500046,758.705585 473.827859,758.459564 477.148496,758.213543 L477.148496,757.024657 L465.9977,757.024657 L465.9977,758.213543 C469.318337,758.459564 469.64615,758.705585 469.64615,762.19045 L469.64615,778.506394 C469.64615,781.99126 469.318337,782.23728 465.9977,782.483301 L465.9977,783.672187 L477.148496,783.672187 Z M507.939737,783.672187 L507.939737,782.483301 C505.274726,782.196062 504.742111,781.827675 503.430214,778.261018 C500.807066,771.168277 498.059619,763.461128 495.518263,756.410249 L494.083356,756.819855 L485.597571,778.261018 C484.203882,781.827675 483.629405,782.11427 481.006256,782.483301 L481.006256,783.672187 L489.983439,783.672187 L489.983439,782.483301 C486.909467,782.155488 486.58101,781.745239 487.400865,779.244457 C487.974699,777.563529 488.549177,775.883246 489.164229,774.1611 L497.773025,774.1611 C498.633453,776.497654 499.413378,778.629405 499.904775,780.146748 C500.478609,781.786457 500.150796,782.155488 497.568222,782.483301 L497.568222,783.672187 L507.939737,783.672187 Z M497.157973,772.316589 L489.819855,772.316589 C491.008096,768.995952 492.280063,765.552305 493.550096,762.149232 L493.673751,762.149232 L497.157973,772.316589 Z" id="Fill-1"></path>
        </g>
    </g>
</svg>