<?xml version="1.0" encoding="UTF-8"?>
<svg width="102px" height="69px" viewBox="0 0 102 69" version="1.1" xmlns="http://www.w3.org/2000/svg" xmlns:xlink="http://www.w3.org/1999/xlink">
    <!-- Generator: Sketch 42 (36781) - http://www.bohemiancoding.com/sketch -->
    <title>Group 8</title>
    <desc>Created with Sketch.</desc>
    <defs>
        <polygon id="path-1" points="0.0713793103 14.5137931 0.0713793103 0.281948276 12.5116034 0.281948276 12.5116034 14.5137931 0.0713793103 14.5137931"></polygon>
    </defs>
    <g id="Page-1" stroke="none" stroke-width="1" fill="none" fill-rule="evenodd">
        <g id="Desktop-HD-Copy-4" transform="translate(-669.000000, -735.000000)">
            <g id="Group-8" transform="translate(669.000000, 735.000000)">
                <g id="Group-3" transform="translate(0.000000, 35.689655)">
                    <mask id="mask-2" fill="white">
                        <use xlink:href="#path-1"></use>
                    </mask>
                    <g id="Clip-2"></g>
                    <path d="M12.5116034,11.1316034 L12.5116034,13.3193793 C11.0507069,14.1164483 9.36853448,14.5137931 7.45794828,14.5137931 C5.90663793,14.5137931 4.59087931,14.2009138 3.50948276,13.5787241 C2.43046552,12.9565345 1.57510345,12.0964138 0.943396552,11.0031207 C0.314068966,9.90863793 0,8.72612069 0,7.45437931 C0,5.43077586 0.720931034,3.73075862 2.1627931,2.35075862 C3.60465517,0.971948276 5.38318966,0.281948276 7.49839655,0.281948276 C8.95572414,0.281948276 10.5772241,0.665017241 12.3617069,1.4252069 L12.3617069,3.5642069 C10.7366379,2.63627586 9.14844828,2.17112069 7.59713793,2.17112069 C6.00656897,2.17112069 4.68486207,2.67434483 3.63439655,3.67841379 C2.58393103,4.68367241 2.05810345,5.94113793 2.05810345,7.45437931 C2.05810345,8.97713793 2.57560345,10.2310345 3.60822414,11.2125 C4.64322414,12.1939655 5.96731034,12.6841034 7.57810345,12.6841034 C9.26146552,12.6841034 10.905569,12.1677931 12.5116034,11.1316034" id="Fill-1" fill="#1A1918" mask="url(#mask-2)"></path>
                </g>
                <path d="M23.0269655,44.156431 L20.7856552,39.1253793 L18.7073276,44.156431 L23.0269655,44.156431 Z M20.1039828,36.0703448 L21.5030172,36.0703448 L27.7308621,50.0440345 L25.6965517,50.0440345 L23.8454483,45.9266379 L17.9162069,45.9266379 L16.1816897,50.0440345 L14.1378621,50.0440345 L20.1039828,36.0703448 L20.1039828,36.0703448 Z" id="Fill-4" fill="#000000"></path>
                <path d="M32.5108966,37.8417414 L31.9136897,37.8417414 L31.9136897,42.2268103 L32.6691207,42.2268103 C33.675569,42.2268103 34.3679483,42.1411552 34.7415,41.9686552 C35.117431,41.7961552 35.4077069,41.5356207 35.6170862,41.1870517 C35.8264655,40.8396724 35.9299655,40.4447069 35.9299655,39.9985862 C35.9299655,39.5631724 35.8133793,39.1658276 35.5825862,38.8125 C35.3506034,38.4556034 35.0246379,38.2057759 34.6023103,38.0618276 C34.1811724,37.9143103 33.4840345,37.8417414 32.5108966,37.8417414 Z M29.9245862,50.0440345 L29.9245862,36.1512414 L33.4043276,36.1512414 C34.8093103,36.1512414 35.9252069,36.4998103 36.7508276,37.1969483 C37.5752586,37.8917069 37.9892586,38.8339138 37.9892586,40.02 C37.9892586,40.8277759 37.7870172,41.5284828 37.3825345,42.1185517 C36.9780517,42.707431 36.3975,43.1487931 35.6408793,43.4414483 C36.087,43.7329138 36.5212241,44.1302586 36.9447414,44.6358621 C37.3694483,45.1378966 37.9666552,46.0170517 38.7351724,47.2673793 C39.2181724,48.0585 39.606,48.6521379 39.8986552,49.0494828 L40.6350517,50.0440345 L38.2676379,50.0440345 L37.6609138,49.1291897 C37.6418793,49.097069 37.601431,49.0399655 37.5419483,48.959069 L37.1553103,48.4118276 L36.5378793,47.3970517 L35.8740517,46.3120862 C35.4636207,45.7422414 35.0865,45.2877931 34.745069,44.9511207 C34.4024483,44.612069 34.0955172,44.370569 33.8195172,44.2206724 C33.5435172,44.0719655 33.081931,43.9970172 32.4311897,43.9970172 L31.9136897,43.9970172 L31.9136897,50.0440345 L29.9245862,50.0440345 L29.9245862,50.0440345 Z" id="Fill-5" fill="#000000"></path>
                <polyline id="Fill-6" fill="#000000" points="53.816431 36.1512414 55.7056034 36.1512414 55.7056034 50.0440345 53.9948793 50.0440345 44.7060517 39.3454655 44.7060517 50.0440345 42.8371034 50.0440345 42.8371034 36.1512414 44.4478966 36.1512414 53.816431 46.9414138 53.816431 36.1512414"></polyline>
                <polyline id="Fill-7" fill="#000000" points="59.6968966 36.1512414 67.5747931 36.1512414 67.5747931 37.9202586 61.6871897 37.9202586 61.6871897 42.159 67.3761207 42.159 67.3761207 43.9387241 61.6871897 43.9387241 61.6871897 48.2536034 67.7627586 48.2536034 67.7627586 50.0238103 59.6968966 50.0238103 59.6968966 36.1512414"></polyline>
                <path d="M78.4054138,43.2011379 L83.0700517,43.2011379 L83.0700517,49.0887414 C81.3605172,49.8322759 79.6628793,50.2034483 77.9795172,50.2034483 C75.6775345,50.2034483 73.8395172,49.5324828 72.4630862,48.1893621 C71.0902241,46.847431 70.4014138,45.1902414 70.4014138,43.2213621 C70.4014138,41.1466034 71.1140172,39.4204138 72.5392241,38.0404138 C73.964431,36.6616034 75.7524828,35.9716034 77.8986207,35.9716034 C78.6814138,35.9716034 79.4249483,36.056069 80.1268448,36.2261897 C80.8287414,36.3951207 81.7186034,36.7056207 82.7916724,37.1553103 L82.7916724,39.1848621 C81.1332931,38.222431 79.4891897,37.743 77.8593621,37.743 C76.3413621,37.743 75.0624828,38.2593103 74.0227241,39.2931207 C72.9805862,40.326931 72.4595172,41.5974828 72.4595172,43.1023966 C72.4595172,44.6798793 72.9805862,45.9706552 74.0227241,46.9711552 C75.0624828,47.9716552 76.4008448,48.4736897 78.039,48.4736897 C78.8348793,48.4736897 79.7854138,48.2904828 80.8917931,47.9252586 L81.0821379,47.8657759 L81.0821379,44.9725345 L78.4054138,44.9725345 L78.4054138,43.2011379" id="Fill-8" fill="#000000"></path>
                <polygon id="Fill-9" fill="#000000" points="87.0113793 50.0452241 89.0016724 50.0452241 89.0016724 36.1512414 87.0113793 36.1512414"></polygon>
                <polyline id="Fill-10" fill="#000000" points="93.1047931 36.1512414 100.979121 36.1512414 100.979121 37.9202586 95.0915172 37.9202586 95.0915172 42.159 100.780448 42.159 100.780448 43.9387241 95.0915172 43.9387241 95.0915172 48.2536034 101.167086 48.2536034 101.167086 50.0238103 93.1047931 50.0238103 93.1047931 36.1512414"></polyline>
                <polyline id="Fill-11" fill="#000000" points="9.22815517 54.9489828 16.6361379 54.9489828 16.6361379 56.7191897 11.2172586 56.7191897 11.2172586 60.5974655 16.6361379 60.5974655 16.6361379 62.3676724 11.2172586 62.3676724 11.2172586 68.8405862 9.22815517 68.8405862 9.22815517 54.9489828"></polyline>
                <path d="M26.6792069,56.6382931 C25.0910172,56.6382931 23.7847759,57.135569 22.7592931,58.128931 C21.7361897,59.1246724 21.2246379,60.3952241 21.2246379,61.9393966 C21.2246379,63.4383621 21.738569,64.6851207 22.7640517,65.6784828 C23.7931034,66.6730345 25.0767414,67.1703103 26.6197241,67.1703103 C28.1710345,67.1703103 29.4618103,66.6635172 30.5003793,65.6487414 C31.536569,64.6339655 32.0552586,63.3705517 32.0552586,61.8596897 C32.0552586,60.3880862 31.536569,59.1496552 30.5003793,58.1455862 C29.4618103,57.1403276 28.190069,56.6382931 26.6792069,56.6382931 Z M26.5995,54.7491207 C28.7468276,54.7491207 30.5336897,55.4284138 31.9624655,56.787 C33.3888621,58.1467759 34.1038448,59.8503621 34.1038448,61.8989483 C34.1038448,63.9487241 33.3817241,65.6439828 31.9422414,66.9871034 C30.5003793,68.3278448 28.6837759,69 26.4912414,69 C24.3974483,69 22.6534138,68.3278448 21.2591379,66.9871034 C19.8636724,65.6439828 19.1653448,63.963 19.1653448,61.9393966 C19.1653448,59.8634483 19.8696207,58.1467759 21.2734138,56.787 C22.6783966,55.4284138 24.4545517,54.7491207 26.5995,54.7491207 L26.5995,54.7491207 Z" id="Fill-12" fill="#000000"></path>
                <polyline id="Fill-13" fill="#000000" points="48.200069 54.9489828 50.090431 54.9489828 50.090431 68.8405862 48.3797069 68.8405862 39.0896897 58.1420172 39.0896897 68.8405862 37.2207414 68.8405862 37.2207414 54.9489828 38.8315345 54.9489828 48.200069 65.7379655 48.200069 54.9489828"></polyline>
                <path d="M58.5750517,56.7191897 L56.0886724,56.7191897 L56.0886724,67.0513448 L58.6357241,67.0513448 C59.6290862,67.0513448 60.4011724,66.9823448 60.9519828,66.8455345 C61.5016034,66.7099138 61.9608103,66.5386034 62.3307931,66.3304138 C62.6983966,66.1210345 63.0338793,65.864069 63.338431,65.5595172 C64.3198966,64.5637759 64.8100345,63.3075 64.8100345,61.7895 C64.8100345,60.2964828 64.3068103,59.0806552 63.2991724,58.1408276 C62.928,57.7886897 62.5009138,57.5007931 62.0214828,57.2759483 C61.5396724,57.0487241 61.0840345,56.9000172 60.6533793,56.8274483 C60.2239138,56.7548793 59.5303448,56.7191897 58.5750517,56.7191897 Z M54.099569,68.8203621 L54.099569,54.9489828 L58.784431,54.9489828 C60.6747931,54.9489828 62.169,55.2321207 63.269431,55.7983966 C64.3698621,56.3658621 65.2442586,57.1986207 65.895,58.3002414 C66.5445517,59.3994828 66.8705172,60.5998448 66.8705172,61.8989483 C66.8705172,62.828069 66.6908793,63.7167414 66.3327931,64.5637759 C65.9747069,65.412 65.4643448,66.1579138 64.8017069,66.8015172 C64.1247931,67.4653448 63.338431,67.965 62.4438103,68.3040517 C61.9203621,68.5098621 61.440931,68.6466724 61.0019483,68.7168621 C60.5641552,68.7858621 59.7290172,68.8203621 58.4953448,68.8203621 L54.099569,68.8203621 L54.099569,68.8203621 Z" id="Fill-14" fill="#000000"></path>
                <polyline id="Fill-15" fill="#000000" points="69.966 54.9489828 77.8438966 54.9489828 77.8438966 56.7191897 71.9562931 56.7191897 71.9562931 60.9543621 77.6452241 60.9543621 77.6452241 62.7340862 71.9562931 62.7340862 71.9562931 67.0513448 78.0330517 67.0513448 78.0330517 68.8203621 69.966 68.8203621 69.966 54.9489828"></polyline>
                <path d="M83.8135862,56.6382931 L83.2163793,56.6382931 L83.2163793,61.0245517 L83.973,61.0245517 C84.9806379,61.0245517 85.6718276,60.9377069 86.0453793,60.7652069 C86.4201207,60.5938966 86.7127759,60.3333621 86.9209655,59.9847931 C87.1303448,59.6374138 87.2338448,59.240069 87.2338448,58.7963276 C87.2338448,58.3585345 87.1184483,57.963569 86.8852759,57.6078621 C86.6532931,57.2533448 86.3273276,57.0023276 85.9073793,56.8571897 C85.4850517,56.7120517 84.7879138,56.6382931 83.8135862,56.6382931 Z M81.2272759,68.8405862 L81.2272759,54.9489828 L84.7082069,54.9489828 C86.1131897,54.9489828 87.2290862,55.2951724 88.0547069,55.9911207 C88.8803276,56.687069 89.2931379,57.6292759 89.2931379,58.8165517 C89.2931379,59.6255172 89.0897069,60.3250345 88.6852241,60.9151034 C88.281931,61.5039828 87.702569,61.9453448 86.9459483,62.2368103 C87.3896897,62.5294655 87.8251034,62.9268103 88.2498103,63.4312241 C88.6721379,63.9344483 89.2705345,64.8124138 90.0390517,66.0663103 C90.5220517,66.8550517 90.9098793,67.4486897 91.2025345,67.8472241 L91.9377414,68.8405862 L89.5715172,68.8405862 L88.9647931,67.9257414 C88.944569,67.892431 88.9053103,67.8365172 88.8470172,67.7568103 L88.458,67.2083793 L87.8429483,66.1936034 L87.177931,65.1098276 C86.7675,64.5399828 86.3903793,64.0855345 86.0501379,63.7464828 C85.7087069,63.4098103 85.3970172,63.1683103 85.1222069,63.0184138 C84.8473966,62.8697069 84.3858103,62.793569 83.7338793,62.793569 L83.2163793,62.793569 L83.2163793,68.8405862 L81.2272759,68.8405862 L81.2272759,68.8405862 Z" id="Fill-16" fill="#000000"></path>
                <path d="M36.1762241,7.62331034 C37.1172414,7.47936207 37.6287931,7.96355172 37.1446034,8.76062069 C35.8050517,10.9567241 31.985069,12.8387586 28.9930862,12.8387586 C31.3890517,10.1882069 34.5797069,7.87789655 36.1762241,7.62331034 Z M27.5678793,16.4850517 C27.4976897,16.7027586 27.7189655,16.7943621 27.8533966,16.5433448 C29.3666379,13.9106379 33.0402931,13.2943966 32.4121552,16.1436207 C32.1563793,17.3416034 31.2165517,18.9964138 29.9614655,19.9350517 C27.5952414,21.7016897 25.2028448,20.1646552 26.2568793,17.0858276 C26.7125172,15.7450862 27.3632586,14.7588621 28.6195345,13.3622069 C29.049,13.3657759 29.1929483,13.3669655 29.4201724,13.3669655 C32.640569,13.3669655 36.1476724,11.4409138 37.5728793,8.99022414 C38.5412586,7.3937069 37.8001034,6.51217241 35.8347931,6.7382069 C32.8416207,7.02491379 29.0787414,9.44586207 26.7696207,12.4961379 C25.0886379,11.9833966 24.1761724,10.9840862 24.1761724,9.75993103 C24.1761724,8.59168966 25.6870345,7.47936207 27.7391897,7.47936207 C29.2203103,7.47936207 30.1077931,7.81365517 30.7038103,8.02184483 C30.8703621,8.08013793 31.0143103,7.8767069 30.7311724,7.73632759 C29.8674828,7.32351724 28.6790172,7.13793103 27.7391897,7.13793103 C25.0327241,7.13793103 23.463569,8.33472414 23.463569,9.81703448 C23.463569,11.2422414 24.4616897,12.4390345 26.3437241,12.9803276 C25.5442759,14.148569 25.0041724,15.3739138 24.7472069,16.6301897 C23.9489483,20.7047586 26.9980345,22.7271724 30.191069,20.4775345 C31.3010172,19.6792759 32.499,17.9971034 32.9260862,16.287569 C33.81,12.7245517 28.9514483,13.1171379 27.5678793,16.4850517 L27.5678793,16.4850517 Z" id="Fill-17" fill="#000000"></path>
                <path d="M63.9653793,18.9964138 C63.3657931,19.5365172 62.8245,19.6507241 62.4545172,19.6507241 C60.8877414,19.6507241 62.1107069,15.9746897 64.0224828,14.5482931 C64.9337586,13.8345 65.9889828,13.6643793 66.132931,14.5768448 C66.1733793,14.8695 66.1543448,15.249 66.0175345,15.4881207 C65.4179483,16.4850517 64.6482414,17.7972414 63.9653793,18.9964138 Z M37.1743448,18.0542069 C36.9423621,18.4967586 36.8745517,18.5812241 36.7924655,18.9202759 C36.1096034,19.5460345 35.5754483,19.6507241 35.1792931,19.6507241 C33.7814483,19.6507241 34.6927241,16.0020517 36.6889655,14.4911897 C37.8001034,13.6370172 39.0837414,13.5787241 38.8838793,15.1466897 C38.2271897,16.2304655 37.4182241,17.6413966 37.1743448,18.0542069 Z M58.7772931,14.0641034 C59.0390172,14.0224655 59.2626724,14.1200172 59.2626724,14.4626379 C59.2626724,15.3465517 57.8660172,16.0591552 56.6965862,16.4850517 C57.4377414,15.1193276 58.0646897,14.1771207 58.7772931,14.0641034 Z M76.2771207,14.0641034 C76.5388448,14.0224655 76.7625,14.1200172 76.7625,14.4626379 C76.7625,15.3465517 75.3658448,16.0591552 74.1964138,16.4850517 C74.937569,15.1193276 75.5657069,14.1771207 76.2771207,14.0641034 Z M78.4720345,16.970431 C77.7891724,17.9971034 77.1907759,18.6240517 76.5079138,19.109431 C74.5675862,20.4775345 72.6308276,19.9350517 73.799069,17.3142414 L73.8323793,17.2559483 C75.171931,16.8288621 76.9326207,16.0865172 77.7891724,15.2894483 C78.7016379,14.4626379 78.387569,13.2646552 76.9052586,13.3788621 C75.3955862,13.493069 73.6277586,14.7481552 72.4868793,16.6004483 C72.2596552,16.970431 72.0597931,17.3416034 71.9455862,17.6818448 C71.2912759,18.5383966 70.5774828,19.0523276 70.1503966,19.3081034 C69.4366034,19.7066379 68.8953103,19.5948103 69.237931,18.9964138 C69.8077759,17.8257931 71.6029655,14.9182759 72.2596552,13.7214828 L70.6060345,13.7214828 C70.1206552,14.6042069 68.8382069,16.6861034 68.0387586,18.0542069 C67.4106207,18.8833966 66.7872414,19.5067759 66.3316034,19.9065 C65.5607069,20.6179138 65.1919138,19.9636034 65.4750517,19.3937586 C67.071569,16.6301897 68.6954483,13.7214828 68.6954483,13.7214828 L66.9871034,13.7214828 C66.9871034,13.7214828 66.8443448,14.007 66.5873793,14.4055345 C66.5873793,13.3526897 65.2478276,13.0362414 63.6513103,13.865431 C62.0286207,14.7481552 60.8008966,16.3434828 60.2893448,17.7686897 C59.8598793,18.3111724 59.3756897,18.7656207 58.9200517,19.0808793 C56.8976379,20.4775345 54.9192414,20.1075517 56.373,17.2297759 C57.7125517,16.8026897 59.405431,16.0865172 60.2893448,15.2894483 C61.199431,14.4626379 60.8877414,13.2646552 59.3756897,13.3788621 C57.894569,13.493069 56.0993793,14.7481552 54.9870517,16.6004483 C54.617069,17.1988448 54.3886552,17.7401379 54.2744483,18.2826207 C53.8759138,18.7097069 53.5047414,19.0237759 52.9063448,19.3937586 C52.1937414,19.7934828 51.6798103,19.6792759 51.9938793,19.0237759 C52.5649138,17.8828966 53.5606552,16.4291379 54.1887931,15.2608966 C54.9870517,13.6941207 53.789069,13.0362414 52.3650517,13.5787241 C51.5667931,13.8927931 50.6543276,14.4626379 50.0844828,14.9182759 L50.7697241,13.7214828 L49.0875517,13.7214828 L47.9193103,15.6879828 C46.7498793,16.4850517 46.6071207,15.8890345 46.6071207,15.6023276 C46.6071207,14.9468276 47.6908966,14.5768448 47.6908966,13.8927931 C47.6908966,13.6072759 47.4910345,13.4086034 47.0639483,13.4086034 C46.2930517,13.4086034 45.3532241,14.1783103 44.2706379,15.4012759 L45.2390172,13.7214828 L43.6436897,13.7214828 C43.3593621,14.2354138 42.2184828,16.1436207 41.6486379,17.0013621 C41.0776034,17.8543448 40.1092241,18.7656207 39.5108276,19.2807414 C38.4853448,20.1337241 38.0285172,19.5365172 38.7970345,18.2552586 C39.2538621,17.4272586 40.5648621,15.176431 41.334569,13.7214828 L39.6821379,13.7214828 C39.6821379,13.7214828 39.567931,13.9796379 39.3395172,14.348431 C39.1967586,13.3217586 37.8857586,12.9803276 36.3189828,13.8059483 C34.1228793,14.9753793 32.7559655,17.4831724 32.7559655,19.1379828 C32.7559655,20.7606724 34.1228793,21.9015517 36.7163276,19.5948103 C36.7163276,21.0461897 38.0285172,21.8170862 40.4803966,19.0237759 C40.3078966,19.3366552 39.7951552,20.1646552 39.567931,20.5905517 L41.3060172,20.5905517 L43.1868621,17.2833103 L43.3296207,17.0584655 C43.8911379,16.2697241 45.2116552,14.8909138 45.7243966,14.6339483 C45.0391552,16.4576897 46.2371379,17.1143793 47.5195862,16.4005862 L45.0688966,20.5905517 L46.8628966,20.5905517 L49.1732069,16.4850517 L49.2219828,16.3958276 L49.2874138,16.3161207 C49.9988276,15.4012759 51.3383793,14.6339483 51.822569,14.348431 C52.5922759,13.9796379 52.8206897,14.4626379 52.5649138,14.9753793 C52.0807241,16.0306034 50.9672069,17.5973793 50.3973621,18.7656207 C49.9131724,19.6792759 49.9988276,20.2776724 50.37,20.5905517 C50.7970862,21.0188276 51.5382414,20.9605345 52.1080862,20.6179138 C52.7647759,20.2776724 53.5903966,19.5948103 54.1887931,18.9666724 C54.1887931,21.075931 56.5264655,21.7873448 59.232931,19.4520517 C59.4898966,19.1938966 59.8206207,18.9381207 60.0763966,18.5966897 C60.033569,18.7929828 60.0026379,18.9964138 60.0026379,19.1379828 C60.0026379,20.903431 61.6574483,21.5874828 63.3098793,20.1051724 C63.2087586,20.2752931 63.2087586,20.2752931 63.0243621,20.5905517 C60.6866897,24.6948621 60.0026379,25.4074655 57.6376034,25.4074655 C56.3539655,25.4074655 55.299931,24.4664483 55.299931,23.2411034 C55.299931,22.3857414 56.0422759,21.662431 57.0677586,21.6433966 C57.3711207,21.6541034 57.4103793,21.4423448 57.1260517,21.3614483 C56.9856724,21.3257586 56.7536897,21.2448621 56.4408103,21.2448621 C55.1012586,21.2448621 54.0460345,22.1597069 54.0460345,23.3553103 C54.0460345,24.6948621 55.3570345,25.8357414 57.7506207,25.8357414 C60.2596034,25.8357414 62.3700517,24.7531552 64.1926034,21.6160345 C64.4888276,21.1151897 64.6196897,20.9605345 64.791,20.5905517 C65.0491552,20.9902759 65.6463621,21.0461897 66.4446207,20.3621379 C66.7289483,20.1337241 67.0430172,19.7637414 67.4415517,19.2807414 C67.271431,19.7934828 67.2987931,20.1932069 67.4998448,20.4477931 C67.7841724,20.9331724 68.5812414,21.0461897 69.2938448,20.6464655 C70.0076379,20.2491207 70.9760172,19.4520517 71.7171724,18.6526034 C71.4613966,21.0188276 73.9120862,21.9301034 76.8767069,19.5067759 C77.5905,18.9381207 78.3578276,17.9685517 78.7575517,17.0858276 C78.8646207,16.8300517 78.6433448,16.7146552 78.4720345,16.970431 L78.4720345,16.970431 Z" id="Fill-18" fill="#000000"></path>
                <path d="M72.3726724,12.1535172 C72.9139655,12.1535172 73.4290862,11.7549828 73.4290862,11.2422414 C73.4290862,10.7580517 73.1138276,10.3297759 72.5998966,10.3297759 C72.1157069,10.3297759 71.5744138,10.7580517 71.5744138,11.2422414 C71.5744138,11.7549828 71.8884828,12.1535172 72.3726724,12.1535172" id="Fill-19" fill="#000000"></path>
                <path d="M50.5686724,27.6594828 C33.2687069,27.6594828 19.1879483,21.8170862 19.1879483,14.5768448 C19.1879483,7.33660345 33.2687069,1.49539655 50.5686724,1.49539655 C67.8983793,1.49539655 81.9779483,7.33660345 81.9779483,14.5768448 C81.9779483,21.8170862 67.8983793,27.6594828 50.5686724,27.6594828 Z M50.5686724,0.325965517 C32.9260862,0.325965517 18.6466552,6.96662069 18.6466552,14.5768448 C18.6466552,22.187069 32.8416207,28.8265345 50.5686724,28.8265345 C68.2398103,28.8265345 82.5192414,22.187069 82.5192414,14.5768448 C82.5192414,6.96662069 68.2398103,0.325965517 50.5686724,0.325965517 L50.5686724,0.325965517 Z" id="Fill-20" fill="#000000"></path>
            </g>
        </g>
    </g>
</svg>