<?xml version="1.0" encoding="UTF-8"?>
<svg width="114px" height="54px" viewBox="0 0 114 54" version="1.1" xmlns="http://www.w3.org/2000/svg" xmlns:xlink="http://www.w3.org/1999/xlink">
    <!-- Generator: Sketch 42 (36781) - http://www.bohemiancoding.com/sketch -->
    <title>Group 7</title>
    <desc>Created with Sketch.</desc>
    <defs></defs>
    <g id="Page-1" stroke="none" stroke-width="1" fill="none" fill-rule="evenodd">
        <g id="Desktop-HD-Copy-4" transform="translate(-1016.000000, -743.000000)" fill-rule="nonzero" fill="#000000">
            <g id="Group-7" transform="translate(1016.000000, 743.000000)">
                <path d="M8.24835165,47.8879121 L8.24835165,53.8813187 L7.12087912,53.8813187 L7.12087912,51.1516484 L4.50989011,51.1516484 L4.50989011,53.8813187 L3.44175824,53.8813187 L3.44175824,47.8879121 L4.56923077,47.8879121 L4.56923077,50.1428571 L7.12087912,50.1428571 L7.12087912,47.8879121 L8.24835165,47.8879121 Z M11.156044,54 C9.85054945,54 8.96043956,53.0505495 8.96043956,51.7450549 C8.96043956,50.4395604 9.85054945,49.4901099 11.0967033,49.4901099 C12.2835165,49.4901099 13.2923077,50.3208791 13.2923077,51.7450549 C13.3516484,53.0505495 12.4615385,54 11.156044,54 Z M10.8,47.8879121 L10.8,48.8967033 L9.85054945,48.8967033 L9.85054945,47.8879121 L10.8,47.8879121 Z M11.156044,50.4395604 C10.5032967,50.4395604 10.0879121,50.9736264 10.0879121,51.7450549 C10.0879121,52.6351648 10.621978,53.1098901 11.2153846,53.1098901 C11.9274725,53.1098901 12.3428571,52.4571429 12.2835165,51.7450549 C12.2835165,51.032967 11.8681319,50.4395604 11.156044,50.4395604 Z M12.5208791,47.8879121 L12.5208791,48.8967033 L11.5714286,48.8967033 L11.5714286,47.8879121 L12.5208791,47.8879121 Z M15.0725275,49.6087912 L15.0725275,50.2021978 C15.1912088,49.9648352 15.4879121,49.4901099 16.4373626,49.4901099 L16.4373626,50.5582418 C16.2,50.5582418 15.843956,50.5582418 15.5472527,50.7956044 C15.1318681,51.1516484 15.1318681,51.567033 15.1318681,52.2791209 L15.1318681,53.821978 L14.1230769,53.821978 L14.1230769,49.5494505 L15.0725275,49.5494505 L15.0725275,49.6087912 Z M17.4461538,52.6351648 C17.6835165,52.9318681 18.0989011,53.1692308 18.6923077,53.1692308 C19.2857143,53.1692308 19.5230769,52.8725275 19.5230769,52.6945055 C19.5230769,52.3978022 19.2263736,52.3384615 19.1076923,52.3384615 C18.989011,52.2791209 18.2769231,52.1604396 18.0989011,52.1604396 C17.0901099,51.9230769 16.9120879,51.3296703 16.9120879,50.9736264 C16.9120879,50.2615385 17.5648352,49.6087912 18.7516484,49.6087912 C19.4043956,49.6087912 19.8791209,49.7868132 20.1758242,50.0241758 C20.4131868,50.1428571 20.5318681,50.3208791 20.5912088,50.3802198 L19.8791209,51.032967 C19.7604396,50.7956044 19.4637363,50.3802198 18.7516484,50.3802198 C18.2769231,50.3802198 18.0395604,50.6175824 18.0395604,50.7956044 C18.0395604,51.0923077 18.3362637,51.210989 18.8703297,51.2703297 C19.7604396,51.4483516 19.9978022,51.4483516 20.2945055,51.6857143 C20.5318681,51.8637363 20.7098901,52.2197802 20.7098901,52.5758242 C20.7098901,53.2285714 20.1164835,54 18.810989,54 C18.0395604,54 17.3274725,53.7626374 16.7934066,53.2285714 L17.4461538,52.6351648 L17.4461538,52.6351648 Z M25.3978022,52.9318681 C24.8637363,53.643956 24.210989,54 23.3208791,54 C22.1934066,54 21.1252747,53.2879121 21.1252747,51.7450549 C21.1252747,50.3208791 22.0153846,49.4901099 23.2615385,49.4901099 C24.389011,49.4901099 24.8637363,50.1428571 24.9230769,50.2615385 C25.2791209,50.7362637 25.3384615,51.5076923 25.3384615,51.9230769 L22.1934066,51.9230769 C22.3120879,52.5758242 22.7274725,52.9912088 23.3802198,52.9912088 C24.0923077,52.9912088 24.3296703,52.5758242 24.5076923,52.3978022 L25.3978022,52.9318681 Z M24.2703297,51.210989 C24.1516484,50.5582418 23.7956044,50.3208791 23.3208791,50.3208791 C22.7868132,50.3208791 22.4307692,50.6175824 22.3120879,51.210989 L24.2703297,51.210989 L24.2703297,51.210989 Z M27.178022,47.8879121 L27.178022,53.8813187 L26.1098901,53.8813187 L26.1098901,47.8879121 L27.178022,47.8879121 Z M28.6021978,52.6351648 C28.8395604,52.9318681 29.2549451,53.1692308 29.8483516,53.1692308 C30.4417582,53.1692308 30.6791209,52.8725275 30.6791209,52.6945055 C30.6791209,52.3978022 30.3824176,52.3384615 30.2637363,52.3384615 C30.1450549,52.2791209 29.432967,52.1604396 29.2549451,52.1604396 C28.2461538,51.9230769 28.0681319,51.3296703 28.0681319,50.9736264 C28.0681319,50.2615385 28.7208791,49.6087912 29.9076923,49.6087912 C30.5604396,49.6087912 31.0351648,49.7868132 31.3318681,50.0241758 C31.5692308,50.1428571 31.6879121,50.3208791 31.7472527,50.3802198 L31.0351648,51.032967 C30.9164835,50.7956044 30.6197802,50.3802198 29.9076923,50.3802198 C29.432967,50.3802198 29.1956044,50.6175824 29.1956044,50.7956044 C29.1956044,51.0923077 29.4923077,51.210989 30.0263736,51.2703297 C30.9164835,51.4483516 31.1538462,51.4483516 31.4505495,51.6857143 C31.6879121,51.8637363 31.8659341,52.2197802 31.8659341,52.5758242 C31.8659341,53.2285714 31.2725275,54 29.967033,54 C29.1956044,54 28.4835165,53.7626374 27.9494505,53.2285714 L28.6021978,52.6351648 L28.6021978,52.6351648 Z M33.5868132,47.8879121 L33.5868132,51.2703297 L35.2483516,49.6681319 L36.5538462,49.6681319 L34.9516484,51.2703297 L36.7318681,53.8813187 L35.4857143,53.8813187 L34.1802198,51.9824176 L33.5868132,52.5758242 L33.5868132,53.8813187 L32.578022,53.8813187 L32.578022,47.8879121 L33.5868132,47.8879121 L33.5868132,47.8879121 Z" id="Shape"></path>
                <path d="M37.2065934,50.8549451 C37.2065934,50.6175824 37.2659341,50.4395604 37.3846154,50.2021978 C37.8,49.4901099 38.8087912,49.4901099 39.0461538,49.4901099 C39.4615385,49.4901099 39.9362637,49.5494505 40.2923077,49.7868132 C40.767033,50.0835165 40.8263736,50.4989011 40.8263736,50.9736264 L40.8263736,53.2285714 C40.8263736,53.5252747 40.8263736,53.643956 41.0043956,53.9406593 L39.8175824,53.9406593 L39.8175824,53.5846154 C39.5802198,53.7626374 39.1648352,54 38.5714286,54 C37.621978,54 37.0285714,53.4065934 37.0285714,52.6945055 C37.0285714,52.4571429 37.0879121,52.2791209 37.1472527,52.1010989 C37.443956,51.5076923 38.0967033,51.3296703 38.5120879,51.2703297 C39.4021978,51.0923077 39.4615385,51.0923077 39.8175824,50.9736264 C39.8175824,50.7362637 39.8175824,50.3208791 39.1054945,50.3208791 C38.6901099,50.3208791 38.4527473,50.4395604 38.3340659,50.6175824 C38.2153846,50.7362637 38.2153846,50.8549451 38.2153846,50.9736264 L37.2065934,50.8549451 L37.2065934,50.8549451 Z M39.8175824,51.7450549 C39.6395604,51.8637363 39.4021978,51.9230769 38.9274725,51.9824176 C38.5714286,52.0417582 38.0967033,52.1010989 38.0967033,52.5758242 C38.0967033,52.9318681 38.3934066,53.0505495 38.8087912,53.0505495 C39.3428571,53.0505495 39.6989011,52.8131868 39.8175824,52.5758242 C39.8769231,52.4571429 39.8769231,52.3384615 39.8769231,52.2197802 L39.8769231,51.7450549 L39.8175824,51.7450549 Z M45.6923077,47.8879121 L45.6923077,53.8813187 L44.6835165,53.8813187 L44.6835165,53.4659341 C44.3868132,53.821978 43.9714286,54 43.4967033,54 C42.4879121,54 41.5978022,53.2285714 41.5978022,51.8637363 C41.5978022,50.6175824 42.3098901,49.5494505 43.4967033,49.5494505 C43.9120879,49.5494505 44.3274725,49.6681319 44.6241758,50.0241758 L44.6241758,47.9472527 L45.6923077,47.9472527 L45.6923077,47.8879121 Z M44.4461538,50.8549451 C44.2681319,50.6175824 44.0307692,50.4395604 43.6747253,50.4395604 C42.9626374,50.4395604 42.6659341,51.032967 42.6659341,51.7450549 C42.6659341,51.8043956 42.6659341,53.1098901 43.6747253,53.1098901 C44.2087912,53.1098901 44.6835165,52.6945055 44.6835165,51.8043956 C44.6835165,51.5076923 44.6241758,51.0923077 44.4461538,50.8549451 Z M46.6417582,50.8549451 C46.6417582,50.6175824 46.7010989,50.4395604 46.8197802,50.2021978 C47.2351648,49.4901099 48.243956,49.4901099 48.4813187,49.4901099 C48.8967033,49.4901099 49.3714286,49.5494505 49.7274725,49.7868132 C50.2021978,50.0835165 50.2615385,50.4989011 50.2615385,50.9736264 L50.2615385,53.2285714 C50.2615385,53.5252747 50.2615385,53.643956 50.4395604,53.9406593 L49.2527473,53.9406593 L49.2527473,53.5846154 C49.0153846,53.7626374 48.6,54 48.0065934,54 C47.0571429,54 46.4637363,53.4065934 46.4637363,52.6945055 C46.4637363,52.4571429 46.5230769,52.2791209 46.5824176,52.1010989 C46.8791209,51.5076923 47.5318681,51.3296703 47.9472527,51.2703297 C48.8373626,51.0923077 48.8967033,51.0923077 49.2527473,50.9736264 C49.2527473,50.7362637 49.2527473,50.3208791 48.5406593,50.3208791 C48.1252747,50.3208791 47.8879121,50.4395604 47.7692308,50.6175824 C47.6505495,50.7362637 47.6505495,50.8549451 47.6505495,50.9736264 L46.6417582,50.8549451 Z M49.2527473,51.7450549 C49.0747253,51.8637363 48.8373626,51.9230769 48.3626374,51.9824176 C48.0065934,52.0417582 47.5318681,52.1010989 47.5318681,52.5758242 C47.5318681,52.9318681 47.8285714,53.0505495 48.243956,53.0505495 C48.778022,53.0505495 49.1340659,52.8131868 49.2527473,52.5758242 L49.2527473,51.7450549 Z M55.1274725,47.8879121 L55.1274725,53.8813187 L54.1186813,53.8813187 L54.1186813,53.4659341 C53.821978,53.821978 53.4065934,54 52.9318681,54 C51.9230769,54 51.032967,53.2285714 51.032967,51.8637363 C51.032967,50.6175824 51.7450549,49.5494505 52.9318681,49.5494505 C53.3472527,49.5494505 53.7626374,49.6681319 54.0593407,50.0241758 L54.0593407,47.9472527 L55.1274725,47.9472527 L55.1274725,47.8879121 Z M53.8813187,50.8549451 C53.7032967,50.6175824 53.4659341,50.4395604 53.1098901,50.4395604 C52.3978022,50.4395604 52.1010989,51.032967 52.1010989,51.7450549 C52.1010989,51.8043956 52.1010989,53.1098901 53.1098901,53.1098901 C53.643956,53.1098901 54.1186813,52.6945055 54.1186813,51.8043956 C54.1186813,51.5076923 54.0593407,51.0923077 53.8813187,50.8549451 Z M60.2307692,52.9318681 C59.6967033,53.643956 59.043956,54 58.1538462,54 C57.0263736,54 55.9582418,53.2879121 55.9582418,51.7450549 C55.9582418,50.3208791 56.8483516,49.4901099 58.0945055,49.4901099 C59.221978,49.4901099 59.6967033,50.1428571 59.756044,50.2615385 C60.1120879,50.7362637 60.1714286,51.5076923 60.1714286,51.9230769 L57.0263736,51.9230769 C57.1450549,52.5758242 57.5604396,52.9912088 58.2131868,52.9912088 C58.9252747,52.9912088 59.1626374,52.5758242 59.3406593,52.3978022 L60.2307692,52.9318681 Z M59.043956,51.210989 C58.9252747,50.5582418 58.5692308,50.3208791 58.0945055,50.3208791 C57.5604396,50.3208791 57.2043956,50.6175824 57.0857143,51.210989 L59.043956,51.210989 Z M61.2989011,52.6351648 C61.5362637,52.9318681 61.9516484,53.1692308 62.5450549,53.1692308 C63.1384615,53.1692308 63.3758242,52.8725275 63.3758242,52.6945055 C63.3758242,52.3978022 63.0791209,52.3384615 62.9604396,52.3384615 C62.8417582,52.2791209 62.1296703,52.1604396 61.9516484,52.1604396 C60.9428571,51.9230769 60.7648352,51.3296703 60.7648352,50.9736264 C60.7648352,50.2615385 61.4175824,49.6087912 62.6043956,49.6087912 C63.2571429,49.6087912 63.7318681,49.7868132 64.0285714,50.0241758 C64.2659341,50.1428571 64.3846154,50.3208791 64.443956,50.3802198 L63.7318681,51.032967 C63.6131868,50.7956044 63.3164835,50.3802198 62.6043956,50.3802198 C62.1296703,50.3802198 61.8923077,50.6175824 61.8923077,50.7956044 C61.8923077,51.0923077 62.189011,51.210989 62.7230769,51.2703297 C63.6131868,51.4483516 63.8505495,51.4483516 64.1472527,51.6857143 C64.3846154,51.8637363 64.5626374,52.2197802 64.5626374,52.5758242 C64.5626374,53.2285714 63.9692308,54 62.6637363,54 C61.8923077,54 61.1802198,53.7626374 60.6461538,53.2285714 L61.2989011,52.6351648 L61.2989011,52.6351648 Z" id="Shape"></path>
                <path d="M67.8857143,47.8879121 L69.7846154,47.8879121 C70.556044,47.8879121 71.0901099,47.8879121 71.6241758,48.3032967 C71.9802198,48.6 72.2769231,49.0747253 72.2769231,49.7868132 C72.2769231,50.9142857 71.4461538,51.3296703 71.0901099,51.4483516 L72.3956044,53.8813187 L71.2087912,53.8813187 L70.021978,51.6857143 L69.0131868,51.6857143 L69.0131868,53.8813187 L67.8857143,53.8813187 L67.8857143,47.8879121 L67.8857143,47.8879121 Z M69.0131868,48.8373626 L69.0131868,50.7362637 L70.1406593,50.7362637 C70.378022,50.7362637 71.2087912,50.6769231 71.2087912,49.7868132 C71.2087912,49.6681319 71.2087912,49.1934066 70.7340659,48.956044 C70.4967033,48.8373626 70.2,48.8373626 69.5472527,48.8373626 L69.0131868,48.8373626 Z M74.1758242,47.9472527 L74.1758242,48.956044 L73.167033,48.956044 L73.167033,47.9472527 L74.1758242,47.9472527 Z M74.1758242,49.6087912 L74.1758242,53.8813187 L73.167033,53.8813187 L73.167033,49.6087912 L74.1758242,49.6087912 Z M76.2527473,47.8879121 L76.2527473,51.2703297 L77.9142857,49.6681319 L79.2197802,49.6681319 L77.6175824,51.2703297 L79.3978022,53.8813187 L78.1516484,53.8813187 L76.8461538,51.9824176 L76.2527473,52.5758242 L76.2527473,53.8813187 L75.243956,53.8813187 L75.243956,47.8879121 L76.2527473,47.8879121 L76.2527473,47.8879121 Z" id="Shape"></path>
                <path d="M79.9912088,52.6351648 C80.2285714,52.9318681 80.643956,53.1692308 81.2373626,53.1692308 C81.8307692,53.1692308 82.0681319,52.8725275 82.0681319,52.6945055 C82.0681319,52.3978022 81.7714286,52.3384615 81.6527473,52.3384615 C81.5340659,52.2791209 80.821978,52.1604396 80.643956,52.1604396 C79.6351648,51.9230769 79.4571429,51.3296703 79.4571429,50.9736264 C79.4571429,50.2615385 80.1098901,49.6087912 81.2967033,49.6087912 C81.9494505,49.6087912 82.4241758,49.7868132 82.7208791,50.0241758 C82.9582418,50.1428571 83.0769231,50.3208791 83.1362637,50.3802198 L82.4241758,51.032967 C82.3054945,50.7956044 82.0087912,50.3802198 81.2967033,50.3802198 C80.821978,50.3802198 80.5846154,50.6175824 80.5846154,50.7956044 C80.5846154,51.0923077 80.8813187,51.210989 81.4153846,51.2703297 C82.3054945,51.4483516 82.5428571,51.4483516 82.8395604,51.6857143 C83.0769231,51.8637363 83.2549451,52.2197802 83.2549451,52.5758242 C83.2549451,53.2285714 82.6615385,54 81.356044,54 C80.5846154,54 79.8725275,53.7626374 79.3384615,53.2285714 L79.9912088,52.6351648 L79.9912088,52.6351648 Z M85.1538462,50.3208791 L85.1538462,53.821978 L84.1450549,53.821978 L84.1450549,50.3208791 L83.4923077,50.3208791 L83.4923077,49.6087912 L84.1450549,49.6087912 L84.1450549,49.1340659 C84.1450549,48.5406593 84.1450549,47.8879121 85.5098901,47.8879121 C85.6879121,47.8879121 85.9252747,47.8879121 86.1032967,47.9472527 L86.1032967,48.8373626 L85.8065934,48.8373626 C85.5098901,48.8373626 85.3912088,48.8967033 85.2725275,49.0747253 C85.2131868,49.1340659 85.2131868,49.2527473 85.2131868,49.3714286 L85.2131868,49.7274725 L86.1626374,49.7274725 L86.1626374,50.4395604 L85.1538462,50.4395604 L85.1538462,50.3208791 Z M88.5362637,54 C87.2307692,54 86.3406593,53.0505495 86.3406593,51.7450549 C86.3406593,50.4395604 87.2307692,49.4901099 88.4769231,49.4901099 C89.6637363,49.4901099 90.6725275,50.3208791 90.6725275,51.7450549 C90.7318681,53.0505495 89.8417582,54 88.5362637,54 Z M88.1802198,47.8879121 L88.1802198,48.8967033 L87.2307692,48.8967033 L87.2307692,47.8879121 L88.1802198,47.8879121 Z M88.5362637,50.4395604 C87.8835165,50.4395604 87.4681319,50.9736264 87.4681319,51.7450549 C87.4681319,52.6351648 88.0021978,53.1098901 88.5956044,53.1098901 C89.3076923,53.1098901 89.7230769,52.4571429 89.6637363,51.7450549 C89.6043956,51.032967 89.2483516,50.4395604 88.5362637,50.4395604 Z M89.9010989,47.8879121 L89.9010989,48.8967033 L88.9516484,48.8967033 L88.9516484,47.8879121 L89.9010989,47.8879121 Z" id="Shape"></path>
                <path d="M92.3934066,49.6087912 L92.3934066,50.2021978 C92.5120879,49.9648352 92.8087912,49.4901099 93.7582418,49.4901099 L93.7582418,50.5582418 C93.5208791,50.5582418 93.1648352,50.5582418 92.8681319,50.7956044 C92.4527473,51.1516484 92.4527473,51.567033 92.4527473,52.2791209 L92.4527473,53.821978 L91.3846154,53.821978 L91.3846154,49.5494505 L92.3934066,49.5494505 L92.3934066,49.6087912 Z M95.3604396,47.8879121 L95.3604396,49.9648352 C95.7164835,49.6681319 96.1318681,49.4901099 96.6065934,49.4901099 C97.556044,49.4901099 98.4461538,50.3802198 98.4461538,51.7450549 C98.4461538,53.1098901 97.556044,54 96.5472527,54 C96.0131868,54 95.5978022,53.7032967 95.3604396,53.4065934 L95.3604396,53.821978 L94.3516484,53.821978 L94.3516484,47.8879121 L95.3604396,47.8879121 Z M96.3692308,50.4395604 C95.8945055,50.4395604 95.3604396,50.7956044 95.3604396,51.6857143 C95.3604396,51.9230769 95.4197802,52.1010989 95.4197802,52.2197802 C95.5978022,53.0505495 96.3098901,53.0505495 96.3692308,53.0505495 C97.1406593,53.0505495 97.378022,52.2791209 97.378022,51.7450549 C97.4373626,50.8549451 96.9032967,50.4395604 96.3692308,50.4395604 Z" id="Shape"></path>
                <path d="M103.015385,49.6087912 L103.015385,53.8813187 L102.006593,53.8813187 L102.006593,53.4659341 C101.828571,53.643956 101.413187,54 100.641758,54 C99.9296703,54 99.632967,53.7032967 99.4549451,53.5252747 C99.1582418,53.1692308 99.1582418,52.7538462 99.1582418,52.1010989 L99.1582418,49.6681319 L100.167033,49.6681319 L100.167033,52.1010989 C100.167033,52.2791209 100.167033,52.3978022 100.226374,52.5164835 C100.345055,52.8725275 100.641758,53.0505495 100.997802,53.0505495 C101.413187,53.0505495 101.70989,52.8131868 101.828571,52.5758242 C102.006593,52.2791209 102.006593,52.0417582 102.006593,51.4483516 L102.006593,49.6681319 L103.015385,49.6681319 L103.015385,49.6087912 Z M103.846154,49.6087912 L104.854945,49.6087912 L104.854945,50.0835165 C104.914286,50.0241758 105.032967,49.8461538 105.210989,49.7274725 C105.448352,49.5494505 105.863736,49.4307692 106.16044,49.4307692 C106.635165,49.4307692 107.050549,49.6681319 107.287912,49.9648352 C107.525275,50.3208791 107.525275,50.7956044 107.525275,51.3296703 L107.525275,53.821978 L106.516484,53.821978 L106.516484,51.6857143 C106.516484,51.389011 106.516484,51.1516484 106.457143,51.032967 C106.338462,50.6769231 106.101099,50.4395604 105.745055,50.4395604 C105.389011,50.4395604 105.092308,50.6175824 104.973626,50.9142857 C104.795604,51.210989 104.795604,51.6857143 104.795604,51.9824176 L104.795604,53.821978 L103.846154,53.821978 L103.846154,49.6087912 L103.846154,49.6087912 Z" id="Shape"></path>
                <path d="M112.331868,47.8879121 L112.331868,53.8813187 L111.323077,53.8813187 L111.323077,53.4659341 C111.026374,53.821978 110.610989,54 110.136264,54 C109.127473,54 108.237363,53.2285714 108.237363,51.8637363 C108.237363,50.6175824 108.949451,49.5494505 110.136264,49.5494505 C110.551648,49.5494505 110.967033,49.6681319 111.263736,50.0241758 L111.263736,47.9472527 L112.331868,47.9472527 L112.331868,47.8879121 Z M111.085714,50.8549451 C110.907692,50.6175824 110.67033,50.4395604 110.314286,50.4395604 C109.602198,50.4395604 109.305495,51.032967 109.305495,51.7450549 C109.305495,51.8043956 109.305495,53.1098901 110.314286,53.1098901 C110.848352,53.1098901 111.323077,52.6945055 111.323077,51.8043956 C111.323077,51.5076923 111.263736,51.0923077 111.085714,50.8549451 L111.085714,50.8549451 Z" id="Shape"></path>
                <path d="M73.7010989,32.1032967 L68.9538462,32.1032967 L71.2087912,20.2351648 C71.6241758,17.9208791 71.2681319,16.9714286 70.0813187,16.9714286 C67.5296703,16.9714286 64.1472527,22.9054945 63.3164835,27.2967033 L62.4263736,32.1032967 L57.6791209,32.1032967 L62.2483516,8.18901099 L62.3076923,8.12967033 C61.4175824,7.95164835 60.1714286,7.83296703 59.1032967,7.77362637 L59.6373626,4.74725275 C62.0703297,4.45054945 64.978022,4.33186813 67.7076923,4.39120879 L66.1648352,12.4021978 C65.8681319,14.0637363 65.2747253,15.9626374 64.1472527,19.1076923 L64.2065934,19.167033 C65.9274725,15.7846154 68.5384615,12.8769231 72.1582418,12.8769231 C75.778022,12.8769231 76.9054945,15.4285714 76.1934066,19.1076923 L73.7010989,32.1032967 L73.7010989,32.1032967 Z M93.2241758,17.5648352 C89.9010989,16.3186813 86.6967033,21.956044 85.5692308,27.9494505 L84.7978022,32.043956 L80.0505495,32.043956 L82.9582418,16.9714286 L82.9582418,16.9120879 C82.1274725,16.7340659 80.8813187,16.6153846 79.7538462,16.556044 L80.3472527,13.5296703 C82.7802198,13.232967 85.6879121,13.1142857 88.1802198,13.1736264 C87.9428571,14.6571429 87.4681319,16.3186813 86.578022,18.9296703 L86.6373626,18.9296703 C88.6549451,14.8945055 90.7318681,12.1648352 94.2923077,12.8769231 L93.2241758,17.5648352 L93.2241758,17.5648352 Z M111.61978,8.30769231 C110.907692,8.07032967 110.017582,7.95164835 109.364835,7.95164835 C107.169231,7.95164835 106.101099,9.01978022 105.507692,11.9274725 L105.27033,13.232967 L109.542857,13.232967 L108.830769,16.9714286 L104.498901,16.9714286 L101.531868,32.8153846 C100.404396,38.9274725 97.3186813,41.5384615 92.6307692,41.5384615 C91.5032967,41.5384615 90.3758242,41.4197802 89.3076923,41.1824176 L90.4351648,37.2065934 C91.1472527,37.3846154 91.978022,37.5032967 92.6307692,37.5032967 C94.767033,37.5032967 95.9538462,36.4945055 96.6659341,32.756044 L99.6923077,16.9714286 L96.4879121,16.9714286 L97.2593407,13.232967 L100.463736,13.232967 L100.701099,11.7494505 C101.591209,6.76483516 104.202198,4.03516484 109.542857,4.03516484 C110.551648,4.03516484 111.61978,4.15384615 112.628571,4.39120879 L111.61978,8.30769231 Z M109.958242,32.578022 C108.296703,32.578022 106.991209,31.1538462 106.991209,29.5516484 C106.991209,27.7714286 108.474725,26.3472527 110.136264,26.3472527 C111.857143,26.3472527 113.103297,27.7714286 113.103297,29.3736264 C113.162637,31.1538462 111.679121,32.578022 109.958242,32.578022 Z M23.7956044,0.712087912 C18.6923077,1.18681319 14.0043956,2.72967033 10.0285714,5.04395604 C12.6989011,4.27252747 15.6065934,3.7978022 18.5736264,3.5010989 C34.7142857,2.07692308 48.1252747,8.84175824 48.421978,18.6923077 C48.7186813,28.4835165 35.9010989,37.621978 19.7604396,39.0461538 C16.9714286,39.2835165 14.2417582,39.2835165 11.6901099,39.1054945 C15.6659341,40.5296703 20.2945055,41.1824176 25.1604396,40.767033 C39.5802198,39.4615385 50.9736264,29.4923077 50.6175824,18.4549451 C50.2615385,7.35824176 38.2153846,-0.534065934 23.7956044,0.712087912 L23.7956044,0.712087912 Z" id="Shape"></path>
                <path d="M16.4967033,28.3648352 C15.1912088,26.5252747 14.7758242,24.3296703 15.3098901,22.1934066 C15.9626374,19.4637363 18.0989011,17.0901099 21.0659341,15.6065934 C25.5164835,13.410989 31.1538462,14.3604396 33.5868132,17.7428571 C34.4769231,18.989011 34.7736264,20.4725275 34.4175824,21.8967033 C33.9428571,23.7362637 32.578022,25.2791209 30.5604396,26.2879121 C27.5934066,27.7714286 23.8549451,27.1186813 22.2527473,24.8637363 C21.6593407,24.032967 21.421978,22.9648352 21.7186813,21.956044 C22.0153846,20.7098901 22.9648352,19.6417582 24.2703297,18.989011 C26.2879121,17.9802198 28.7802198,18.3956044 29.9076923,19.9978022 C30.0857143,20.2351648 30.1450549,20.5318681 30.1450549,20.8285714 C30.1450549,21.778022 29.2549451,22.5494505 28.0681319,22.5494505 C26.9406593,22.5494505 25.9912088,21.778022 25.9912088,20.8285714 C25.9912088,20.4725275 26.1098901,20.1164835 26.3472527,19.8791209 C25.8131868,19.8791209 25.3384615,19.9978022 24.8043956,20.2351648 C23.8549451,20.7098901 23.1428571,21.4813187 22.9648352,22.2527473 C22.7868132,22.8461538 22.9054945,23.4395604 23.3208791,23.9736264 C24.567033,25.6945055 27.5340659,26.1692308 29.9076923,24.9824176 C31.5098901,24.210989 32.6373626,22.9054945 32.9934066,21.5406593 C33.2307692,20.4725275 33.0527473,19.4637363 32.4,18.5142857 C30.3230769,15.6659341 25.5164835,14.8945055 21.6593407,16.7934066 C19.0483516,18.1582418 17.2087912,20.2351648 16.6153846,22.5494505 C16.2,24.3296703 16.4967033,26.0505495 17.5648352,27.5340659 C20.8879121,32.1626374 28.6021978,33.4087912 34.832967,30.3230769 C39.0461538,28.2461538 42.0131868,24.9230769 42.9032967,21.1846154 C43.6153846,18.2769231 43.0813187,15.4879121 41.3010989,13.0549451 C36.0791209,5.75604396 23.7956044,3.73846154 13.9450549,8.6043956 C7.23956044,11.8681319 2.55164835,17.2087912 1.06813187,23.1428571 C-0.0593406593,27.7120879 0.830769231,32.3406593 3.61978022,36.1978022 L16.4967033,28.3648352 L16.4967033,28.3648352 Z" id="Shape"></path>
            </g>
        </g>
    </g>
</svg>