<?xml version="1.0" encoding="UTF-8"?>
<svg width="233px" height="35px" viewBox="0 0 233 35" version="1.1" xmlns="http://www.w3.org/2000/svg" xmlns:xlink="http://www.w3.org/1999/xlink">
    <!-- Generator: Sketch 42 (36781) - http://www.bohemiancoding.com/sketch -->
    <title>Group 11</title>
    <desc>Created with Sketch.</desc>
    <defs></defs>
    <g id="Page-1" stroke="none" stroke-width="1" fill="none" fill-rule="evenodd">
        <g id="Desktop-HD-Copy-4" transform="translate(-60.000000, -587.000000)" fill="#000000">
            <g id="Group-11" transform="translate(60.000000, 587.000000)">
                <path d="M61.51,27.368 L59.255,27.368 C57.399,23.931 55.308,20.383 53.107,16.909 L53.107,27.368 L51.288,27.368 L51.288,14.69 L53.744,14.69 C55.799,17.819 57.818,21.274 59.655,24.622 L59.655,14.69 L61.51,14.69 L61.51,27.368" id="Fill-1"></path>
                <path d="M69.386,23.039 C68.804,22.894 68.022,22.839 67.24,22.839 C65.676,22.839 65.148,23.003 65.148,24.44 C65.148,25.986 65.567,26.222 67.222,26.222 C67.986,26.222 68.768,26.077 69.386,25.858 L69.386,23.039 Z M71.06,26.896 C69.968,27.35 68.35,27.623 67.113,27.623 C64.33,27.623 63.293,26.932 63.293,24.531 C63.293,21.911 64.821,21.493 66.931,21.493 C67.804,21.493 68.513,21.584 69.386,21.766 C69.386,19.838 68.896,19.401 66.877,19.401 C65.931,19.401 64.894,19.547 64.148,19.838 L63.784,18.346 C64.602,18.128 65.858,17.892 67.149,17.892 C69.859,17.892 71.06,18.692 71.06,21.475 L71.06,26.896 L71.06,26.896 Z" id="Fill-2"></path>
                <path d="M75.407,19.674 L75.407,24.167 C75.407,25.513 75.771,26.077 76.971,26.077 C77.59,26.077 78.154,25.986 78.627,25.822 L78.954,27.241 C78.372,27.459 77.444,27.623 76.68,27.623 C74.607,27.623 73.679,27.004 73.679,24.276 L73.679,19.674 L72.097,19.674 L72.097,18.146 L73.679,18.146 L73.679,16.4 L75.407,15.69 L75.407,18.146 L78.645,18.146 L78.645,19.674 L75.407,19.674" id="Fill-3"></path>
                <path d="M85.975,18.146 L87.685,18.146 L87.685,26.859 C86.612,27.314 84.92,27.623 83.647,27.623 C81.009,27.623 79.955,26.641 79.955,23.312 L79.955,18.146 L81.664,18.146 L81.664,23.094 C81.664,25.513 82.155,26.04 83.974,26.04 C84.72,26.04 85.338,25.968 85.975,25.768 L85.975,18.146" id="Fill-4"></path>
                <path d="M89.649,18.146 L91.359,18.146 L91.359,18.819 C91.705,18.346 92.523,17.892 93.832,17.892 C94.142,17.892 94.469,17.91 94.779,17.946 L94.779,19.62 C94.469,19.565 94.087,19.528 93.706,19.528 C92.468,19.528 91.359,19.893 91.359,20.656 L91.359,27.368 L89.649,27.368 L89.649,18.146" id="Fill-5"></path>
                <path d="M102.054,19.819 C101.309,19.547 100.29,19.347 99.38,19.347 C98.052,19.347 97.379,19.51 97.379,20.711 C97.379,21.475 97.889,21.784 99.471,21.93 C101.781,22.13 102.782,22.857 102.782,24.622 C102.782,26.932 101.436,27.623 99.035,27.623 C98.089,27.623 96.616,27.441 95.724,27.132 L96.143,25.677 C96.797,25.949 98.052,26.168 98.998,26.168 C100.344,26.168 101.036,25.968 101.036,24.749 C101.036,23.931 100.599,23.548 98.908,23.403 C96.779,23.221 95.615,22.657 95.615,20.857 C95.615,18.565 97.052,17.892 99.416,17.892 C100.344,17.892 101.508,18.073 102.491,18.364 L102.054,19.819" id="Fill-6"></path>
                <path d="M110.239,27.368 C107.984,24.367 106.547,22.712 105.983,22.493 C106.547,22.075 107.948,20.565 109.93,18.146 L112.022,18.146 C110.076,20.529 108.693,21.948 108.166,22.33 C108.675,22.621 110.13,24.294 112.331,27.368 L110.239,27.368 Z M104.273,27.368 L105.983,27.368 L105.983,14.235 L104.273,14.235 L104.273,27.368 Z" id="Fill-7"></path>
                <path d="M112.659,18.146 L114.496,18.146 C115.405,20.274 116.351,23.167 117.06,25.731 C118.061,23.239 119.006,20.62 119.662,18.146 L121.444,18.146 C120.516,21.274 119.297,24.458 117.988,27.55 C117.534,28.642 116.933,29.933 116.442,30.86 L114.496,30.86 C114.969,29.987 115.533,28.805 115.987,27.805 C115.078,24.531 113.841,20.784 112.659,18.146" id="Fill-8"></path>
                <path d="M128.483,20.493 C128.483,19.801 127.483,19.401 126.301,19.401 C124.445,19.401 123.827,20.092 123.827,22.73 C123.827,25.567 124.445,26.095 126.319,26.095 C127.065,26.095 127.883,25.986 128.483,25.768 L128.483,20.493 Z M130.193,26.914 C129.193,27.35 127.538,27.623 126.319,27.623 C123.373,27.623 122.008,26.55 122.008,22.766 C122.008,19.019 123.427,17.892 126.101,17.892 C127.283,17.892 127.993,18.201 128.483,18.51 L128.483,14.235 L130.193,14.235 L130.193,26.914 L130.193,26.914 Z" id="Fill-9"></path>
                <path d="M138.342,20.493 C138.342,19.801 137.341,19.401 136.159,19.401 C134.303,19.401 133.685,20.092 133.685,22.73 C133.685,25.567 134.303,26.095 136.177,26.095 C136.923,26.095 137.742,25.986 138.342,25.768 L138.342,20.493 Z M140.051,26.914 C139.051,27.35 137.396,27.623 136.177,27.623 C133.231,27.623 131.867,26.55 131.867,22.766 C131.867,19.019 133.286,17.892 135.959,17.892 C137.141,17.892 137.85,18.201 138.342,18.51 L138.342,14.235 L140.051,14.235 L140.051,26.914 L140.051,26.914 Z" id="Fill-10"></path>
                <path d="M148.018,19.819 C147.272,19.547 146.254,19.347 145.344,19.347 C144.016,19.347 143.343,19.51 143.343,20.711 C143.343,21.475 143.853,21.784 145.435,21.93 C147.746,22.13 148.746,22.857 148.746,24.622 C148.746,26.932 147.4,27.623 144.999,27.623 C144.053,27.623 142.58,27.441 141.688,27.132 L142.107,25.677 C142.761,25.949 144.016,26.168 144.962,26.168 C146.308,26.168 147,25.968 147,24.749 C147,23.931 146.563,23.548 144.872,23.403 C142.743,23.221 141.579,22.657 141.579,20.857 C141.579,18.565 143.016,17.892 145.381,17.892 C146.308,17.892 147.472,18.073 148.455,18.364 L148.018,19.819" id="Fill-11"></path>
                <path d="M152.821,18.146 L155.967,18.146 L155.967,19.674 L152.821,19.674 L152.821,27.368 L151.11,27.368 L151.11,19.674 L149.528,19.674 L149.528,18.146 L151.11,18.146 L151.11,17.419 C151.11,14.617 152.693,14.253 154.475,14.253 C155.204,14.253 155.985,14.399 156.585,14.599 L156.185,16 C155.731,15.855 155.002,15.763 154.458,15.763 C153.493,15.763 152.821,16.054 152.821,17.473 L152.821,18.146" id="Fill-12"></path>
                <path d="M163.698,16.054 C163.698,16.873 163.479,17 162.788,17 C162.079,17 161.86,16.873 161.86,16.054 C161.86,15.309 162.079,15.199 162.788,15.199 C163.479,15.199 163.698,15.309 163.698,16.054 Z M158.496,22.748 C158.496,25.513 159.096,26.168 160.969,26.168 C162.842,26.168 163.443,25.513 163.443,22.748 C163.443,19.856 162.842,19.347 160.969,19.347 C159.096,19.347 158.496,19.856 158.496,22.748 Z M160.042,16.054 C160.042,16.873 159.823,17 159.132,17 C158.422,17 158.205,16.873 158.205,16.054 C158.205,15.309 158.422,15.199 159.132,15.199 C159.823,15.199 160.042,15.309 160.042,16.054 Z M156.676,22.712 C156.676,18.946 158.077,17.892 160.969,17.892 C163.879,17.892 165.262,18.946 165.262,22.712 C165.262,26.495 163.898,27.623 160.969,27.623 C158.059,27.623 156.676,26.495 156.676,22.712 L156.676,22.712 Z" id="Fill-13"></path>
                <path d="M166.971,18.146 L168.681,18.146 L168.681,18.819 C169.027,18.346 169.845,17.892 171.155,17.892 C171.464,17.892 171.792,17.91 172.101,17.946 L172.101,19.62 C171.792,19.565 171.41,19.528 171.028,19.528 C169.791,19.528 168.681,19.893 168.681,20.656 L168.681,27.368 L166.971,27.368 L166.971,18.146" id="Fill-14"></path>
                <path d="M174.666,21.711 L179.212,21.711 C179.122,19.747 178.594,19.329 177.103,19.329 C175.429,19.329 174.811,19.874 174.666,21.711 Z M180.34,27.113 C179.395,27.404 178.067,27.623 177.194,27.623 C174.465,27.623 172.81,26.495 172.81,22.712 C172.81,19.056 174.32,17.892 177.03,17.892 C179.794,17.892 181.013,18.91 180.922,23.112 L174.647,23.112 C174.666,25.586 175.52,26.113 177.394,26.113 C178.048,26.113 179.267,25.931 180.013,25.677 L180.34,27.113 L180.34,27.113 Z" id="Fill-15"></path>
                <path d="M184.106,27.368 L182.396,27.368 L182.396,18.655 C183.451,18.201 185.143,17.892 186.434,17.892 C189.072,17.892 190.126,18.856 190.126,22.202 L190.126,27.368 L188.417,27.368 L188.417,22.421 C188.417,20.002 187.925,19.474 186.088,19.474 C185.342,19.474 184.743,19.547 184.106,19.729 L184.106,27.368" id="Fill-16"></path>
                <path d="M192.018,27.368 L193.728,27.368 L193.728,18.146 L192.018,18.146 L192.018,27.368 Z M193.91,15.381 C193.91,16.254 193.655,16.4 192.891,16.4 C192.109,16.4 191.854,16.254 191.854,15.381 C191.854,14.581 192.109,14.472 192.891,14.472 C193.655,14.472 193.91,14.581 193.91,15.381 L193.91,15.381 Z" id="Fill-17"></path>
                <path d="M197.383,27.368 L195.674,27.368 L195.674,18.655 C196.729,18.201 198.42,17.892 199.712,17.892 C202.35,17.892 203.405,18.856 203.405,22.202 L203.405,27.368 L201.695,27.368 L201.695,22.421 C201.695,20.002 201.204,19.474 199.367,19.474 C198.621,19.474 198.02,19.547 197.383,19.729 L197.383,27.368" id="Fill-18"></path>
                <path d="M211.499,19.711 C210.88,19.492 210.062,19.383 209.334,19.383 C207.46,19.383 206.842,19.874 206.842,22.748 C206.842,25.404 207.443,26.077 209.316,26.077 C210.499,26.077 211.499,25.677 211.499,24.985 L211.499,19.711 Z M209.061,27.605 C206.351,27.605 205.024,26.513 205.024,22.748 C205.024,18.983 206.387,17.892 209.334,17.892 C210.553,17.892 212.208,18.164 213.208,18.583 L213.208,26.677 C213.208,30.188 211.353,31.061 208.461,31.061 C207.551,31.061 206.096,30.824 205.351,30.533 L205.75,29.06 C206.497,29.351 207.679,29.551 208.443,29.551 C210.389,29.551 211.499,29.005 211.499,26.914 C211.008,27.259 210.225,27.605 209.061,27.605 L209.061,27.605 Z" id="Fill-19"></path>
                <path d="M216.719,21.711 L221.266,21.711 C221.175,19.747 220.648,19.329 219.157,19.329 C217.483,19.329 216.864,19.874 216.719,21.711 Z M222.394,27.113 C221.448,27.404 220.12,27.623 219.247,27.623 C216.519,27.623 214.864,26.495 214.864,22.712 C214.864,19.056 216.374,17.892 219.083,17.892 C221.848,17.892 223.067,18.91 222.976,23.112 L216.701,23.112 C216.719,25.586 217.574,26.113 219.448,26.113 C220.102,26.113 221.321,25.931 222.067,25.677 L222.394,27.113 L222.394,27.113 Z" id="Fill-20"></path>
                <path d="M226.159,27.368 L224.45,27.368 L224.45,18.655 C225.504,18.201 227.196,17.892 228.488,17.892 C231.125,17.892 232.18,18.856 232.18,22.202 L232.18,27.368 L230.47,27.368 L230.47,22.421 C230.47,20.002 229.979,19.474 228.142,19.474 C227.396,19.474 226.795,19.547 226.159,19.729 L226.159,27.368" id="Fill-21"></path>
                <path d="M36.636,19.119 C37.305,18.316 40.154,18.584 40.154,18.584 C41.846,18.584 41.913,17.403 41.557,16.556 C41.179,15.711 40.154,14.017 38.283,12.371 C36.124,10.433 33.54,8.829 31.625,7.85 C29.688,6.87 26.971,5.489 24.789,4.531 C22.651,3.574 19.199,2.126 17.239,1.48 C15.235,0.834 14.901,0.701 14.677,0.678 C14.5,0.657 14.344,0.79 14.5,0.924 C14.811,1.168 18.352,4.085 19.599,5.11 C20.847,6.113 22.183,7.494 23.118,8.473 C23.853,9.275 24.565,9.988 24.632,10.255 C24.632,10.277 24.61,10.387 24.543,10.433 C23.897,10.768 21.492,12.17 21.492,12.17 C20.936,12.504 17.974,11.591 15.769,10.967 C13.564,10.322 7.975,8.339 7.128,8.117 C6.46,7.939 5.838,7.738 4.901,9.03 C3.966,10.298 4.189,10.945 4.791,11.39 C5.213,11.725 6.705,12.704 8.888,14.086 C11.115,15.465 13.453,17.091 14.588,17.938 C15.123,18.316 16.504,19.341 16.526,19.942 C16.548,21.078 16.548,22.481 16.548,22.86 C16.548,23.193 16.504,23.504 16.46,23.661 C16.392,23.906 16.147,23.906 16.125,23.906 C12.273,23.906 8.843,23.193 6.438,22.725 C4.01,22.258 0.514,21.3 0.292,21.278 C0.047,21.255 -0.108,21.39 0.091,21.567 C0.804,22.236 4.122,25.242 9.845,28.628 C19.176,34.195 24.789,34.841 26.836,34.975 C28.306,35.085 30.556,34.818 31.648,34.462 C32.85,34.06 33.607,33.303 33.83,32.991 C34.052,32.68 34.164,32.211 34.075,31.612 C33.986,31.01 33.562,30.765 32.961,30.052 C32.404,29.362 32.226,28.315 32.182,27.87 C33.786,27.513 36.057,27.336 37.348,27.224 C38.684,27.113 39.442,27.424 39.731,27.603 C39.821,27.67 40.043,27.803 40.043,27.803 C40.043,27.803 40.221,27.938 40.243,27.736 C40.288,27.469 40.221,27.046 40.221,27.046 C40.221,27.046 40.421,27.046 40.644,27.068 C40.934,27.113 41.445,27.336 41.445,27.336 C41.49,27.157 41.512,26.846 41.49,26.601 C41.468,26.155 41.2,25.732 40.956,25.443 C40.977,24.664 40.733,23.883 40.177,23.238 C39.509,22.414 37.682,21.034 36.346,19.92 C36.346,19.653 36.413,19.385 36.636,19.119" id="Fill-23"></path>
            </g>
        </g>
    </g>
</svg>