<?xml version="1.0" encoding="UTF-8"?>
<svg width="105px" height="82px" viewBox="0 0 105 82" version="1.1" xmlns="http://www.w3.org/2000/svg" xmlns:xlink="http://www.w3.org/1999/xlink">
    <!-- Generator: Sketch 42 (36781) - http://www.bohemiancoding.com/sketch -->
    <title>Group 5</title>
    <desc>Created with Sketch.</desc>
    <defs></defs>
    <g id="Page-1" stroke="none" stroke-width="1" fill="none" fill-rule="evenodd">
        <g id="Desktop-HD-Copy-4" transform="translate(-386.000000, -407.000000)">
            <g id="Group-5" transform="translate(386.000000, 407.000000)">
                <path d="M102.2253,13.8047 C102.27828,14.4605623 102.826001,14.9658233 103.484,14.9658233 C104.141999,14.9658233 104.68972,14.4605623 104.7427,13.8047 L104.7427,13.6981 C104.734125,13.3624165 104.592205,13.0439714 104.348314,12.8131596 C104.104423,12.5823478 103.778646,12.4581784 103.443,12.4681 C102.739964,12.499167 102.192144,13.0889866 102.213,13.7924" id="Shape" fill="#1D1D1B"></path>
                <path d="M28.9788,34.5548 C28.5688,36.8344 28.208,39.1755 27.6791,41.4346 L27.06,44.0914 L26.7361,44.1939 C25.6906,44.4932 24.723,44.8089 23.7021,45.2025 C23.9728265,44.278654 24.1810309,43.337625 24.3253,42.3858 C24.6454824,40.640844 24.8332511,38.8741736 24.887,37.1009 C24.8249592,36.4439378 24.8167318,35.783003 24.8624,35.1247 C25.0363745,35.2901971 25.2703328,35.3775613 25.5102,35.3666 C26.029464,35.2795696 26.5162367,35.0559938 26.9206,34.7188 C27.7406,34.112 28.5155,33.456 29.2781,32.7959 L29.3068,32.8492 C29.1605909,33.4098004 29.0523785,33.9796282 28.9829,34.5548 M23.4274,29.6348 C23.4008309,29.6143181 23.3820317,29.5853962 23.3741,29.5528 C23.5063532,29.5946084 23.6340899,29.6495489 23.7554,29.7168 C23.8639868,29.9773996 24.0104305,30.2205514 24.19,30.4384 C24.5426,30.955 24.7066,30.9263 24.7066,30.9263 L24.7599,30.955 L24.2433,31.4962 C24.1304678,31.1441441 23.9934758,30.800294 23.8333,30.4671 C23.6734,30.1145 23.4807,29.7619 23.4233,29.6471 M3.0217,62.32 C-0.7749,58.3758 -0.7831,51.045 1.8286,42.1849 C3.4522,36.6704 6.15,31.0575 10.5288,27.1666 C14.7395,23.4151 18.6263,23.6119 20.7788,26.0678 C21.1888,26.4778 21.5332,26.9944 21.9596,27.4536 C21.991045,27.4857723 22.0185699,27.5215547 22.0416,27.5602 L22.14,27.5602 C22.1085536,27.4992028 22.0811609,27.4361996 22.058,27.3716 C22.0074565,26.9965795 21.9841621,26.6183886 21.9883,26.24 C22.0781769,25.3000804 22.357094,24.3880214 22.8083,23.5586 C23.4742778,22.1436245 24.8558316,21.201656 26.4163,21.0986 C27.2259255,21.0509881 28.0202837,21.3335252 28.618,21.8817 C28.8741031,22.1645656 29.1033248,22.4706521 29.3027,22.796 C29.5128708,22.9414781 29.7079144,23.1076772 29.8849,23.2921 C30.422,23.78 31.201,25.8587 31.201,25.83 C32.841,22.0867 35.0345,18.86 38.6794,16.9412 C39.7073968,16.3546042 40.8848429,16.0823376 42.066,16.1581 C43.1158858,16.2004539 44.0995033,16.6825902 44.7761,17.4865 L45.1246,18.04 C45.2279841,18.1578601 45.3570266,18.2504341 45.5018,18.3106 C45.9330873,18.5257897 46.27018,18.8920679 46.4489,19.3397 C47.4028277,21.1339516 46.8407603,23.3591713 45.1492,24.4852 L45.1492,24.5672 L45.4116,24.4729 C46.6908,23.8784 48.872,23.4315 49.8601,24.8378 C50.0217323,25.0891703 50.1669032,25.3507519 50.2947,25.6209 L50.84,25.9489 C51.1049942,26.12363 51.331104,26.3511355 51.5042,26.6172 C52.4550058,25.3426535 53.5563193,24.1876511 54.7842,23.1773 C56.0142,22.14 57.4574,21.2544 59.1261,21.2134 C59.752997,21.1995361 60.368827,21.3799886 60.8891,21.73 C61.0531,21.2134 61.1884,21.0248 61.4836,20.91 L65.0014,19.8153 C65.9034,19.5324 66.2314,20.0859 66.0346,20.6353 C65.928,20.9469 65.887,20.9879 65.764,21.3159 C65.764,21.3528 65.764,21.3897 65.7394,21.4225 L66.5594,21.1765 C66.6096014,21.1541647 66.6644646,21.1443174 66.7193,21.1478 C67.0432,21.1191 67.2359,21.2831 67.4491,21.771 C67.6746,20.9715 67.896,20.131 68.1256,19.311 C68.4823,18.081 68.8595,17.6095 69.5073,17.5849 C69.6641958,17.582693 69.8200649,17.6105268 69.9665,17.6669 C71.0079,18.0769 71.5163,18.2491 72.6479,17.9662 C73.6524,17.7161 74.6282,17.2282 75.5999,16.8838 C75.6531566,16.8674346 75.7082507,16.8577931 75.7639,16.8551 C75.9965045,16.8030551 76.2399764,16.8652634 76.4191063,17.0225086 C76.5982361,17.1797538 76.6914672,17.4131127 76.67,17.6505 C76.6634197,17.9221527 76.5871847,18.1875635 76.4486,18.4213 C76.4486,18.4213 76.4486,18.4869 76.5306,18.4623 C76.7407203,18.3354794 76.9821997,18.2701379 77.2276,18.2737 C77.5515,18.245 77.7401,18.3844 77.9861,18.7903 C78.1261486,18.2295755 78.2261672,17.6596062 78.2854,17.0847 C78.2854,16.6501 78.31,16.2647 78.31,16.2647 C78.3077478,15.9777195 78.4659569,15.7135103 78.72,15.58 C79.8967,15.2151 81.0693,14.8379 82.2419,14.4689 C82.6929,14.35 82.7011,14.35 82.779,14.35 C83.189,14.2188 83.6441,14.2721 83.7753,14.596 C83.8463679,14.9592655 83.8807075,15.3287595 83.8778,15.6989 L83.8491,15.8137 C84.0373108,15.7538818 84.2309394,15.7126842 84.4272,15.6907 C84.7249232,15.6662411 85.0063585,15.8298663 85.1324,16.1007 C85.1611,16.154 85.2718,16.4533 85.2144,17.4537 C85.0709,20.0326 83.8532,22.3737 83.2341,24.8337 L83.2095,24.887 C83.223162,24.8723032 83.2317797,24.8536315 83.2341,24.8337 C83.5120211,24.5301896 83.7656367,24.2052875 83.9926,23.862 C84.1648,23.3577 84.3288,22.9559 84.5092,22.4516 C85.1324,20.6927 85.7023,18.942 86.2148,17.1708 C86.4571026,16.2692652 86.5852053,15.340865 86.5961,14.4074 L86.5961,13.612 C86.6355416,13.3367657 86.8048711,13.0972637 87.0512,12.9683 C88.3509,12.5911 89.6383,12.1893 90.9257,11.7752 C91.0083725,11.7439888 91.0933667,11.7193131 91.1799,11.7014 C91.5632923,11.6792364 91.8975769,11.9596042 91.9425,12.341 C92.0145275,12.642865 92.0366868,12.9544802 92.0081,13.2635 L92.0081,13.2881 C92.4181,13.1405 92.9798,12.9437 93.2381,13.4767 C93.6932,14.4689 93.357,16.5476 93.0208,17.4865 C92.9843154,17.5919413 92.9568828,17.7003 92.9388,17.8104 C94.2302092,15.3504408 95.6692024,12.9708307 97.2479,10.6846 C97.7276,10.004 98.1909,9.4546 98.5968,9.3316 C99.4701,9.0528 100.1835,8.8068 101.0568,8.5772 C101.284911,8.48688186 101.543638,8.5223732 101.739001,8.67078197 C101.934364,8.81919074 102.037938,9.05892409 102.0121,9.3029 C101.922918,9.64731785 101.734766,9.95805364 101.4709,10.1967 C101.44608,10.218741 101.427667,10.2470697 101.4176,10.2787 C101.4176,10.2787 101.4176,10.3361 101.4463,10.332 C102.1802,10.1393 102.5164,9.6719 103.1273,10.1434 C103.294343,10.2537367 103.403939,10.4323925 103.4266,10.6313 C103.432208,10.715362 103.413717,10.7992791 103.3733,10.8732 C103.3733,10.8732 102.8485,11.6932 102.5533,12.2549 C101.9178,13.4849 101.4545,15.4775 101.6841,16.8346 C102.0244,18.7903 102.7542,20.4057 102.3114,22.4434 C101.7661,24.9034 100.0359,27.2322 97.4611,27.8349 C95.6694,28.2449 93.6932,28.0686 92.5862,26.4532 L92.4468,26.24 C91.7334,27.0805 90.7207,28.5442 89.5768,28.5934 L89.3349,28.5934 L89.2816,28.6467 C88.1172,31.7053 87.002,35.6741 84.9479,38.212 C82.9512,40.672 81.1964,42.4104 78.228,43.7101 C73.513,45.7601 67.978,46.8835 63.058,48.3964 C56.129,50.5161 48.5563,52.685 42.148,56.0634 C37.6216885,58.4683564 33.6451794,61.7886297 30.4712,65.8132 C29.5733,66.9694 28.7533,68.183 27.9251,69.3884 C27.7390542,69.6638488 27.4866671,69.8880362 27.1912,70.0403 C23.5424583,70.8665914 19.9851961,72.0546345 16.5722,73.5868 C16.5024074,73.6139873 16.4293515,73.6319067 16.3549,73.6401 C16.1585466,73.6523954 15.965546,73.5848936 15.8196577,73.4528994 C15.6737694,73.3209053 15.5873523,73.1356006 15.58,72.939 C15.5763798,72.8748231 15.5861536,72.810595 15.6087,72.7504 C15.770639,72.442817 15.9157202,72.1266496 16.0433,71.8033 C15.669422,71.9913983 15.2798029,72.1464228 14.8789,72.2666 C14.6765774,72.2754591 14.4813846,72.1909556 14.3493911,72.0373631 C14.2173976,71.8837707 14.1632123,71.6780888 14.2024,71.4794 C14.3377,70.7373 14.965,69.7615 15.2848,69.0973 C16.3038094,67.0621485 17.6085052,65.1831104 19.1593,63.5172 C21.7028196,60.7194731 24.6571904,58.3250088 27.921,56.416 C31.6605614,54.2849691 35.5226437,52.3765173 39.4871,50.7006 C39.5527,50.6719 39.5158,50.6268 39.4461,50.635 C38.9459,50.6842 38.4457,50.7621 37.9414,50.7826 C36.1784,50.8523 34.276,50.922 32.4966,50.8359 L32.1686,50.8359 C32.0822896,50.8821629 32.0153882,50.9577906 31.98,51.0491 C31.6210187,51.5417291 31.2219622,52.0038668 30.7869,52.4308 C28.8394,54.4808 26.2769,56.0347 23.4069,56.3586 C22.519529,56.4689853 21.6186274,56.3663866 20.7788,56.0593 C20.4807414,55.9210203 20.1905643,55.7663504 19.9096,55.596 L19.8768,55.596 L19.0568,57.113 C18.3027492,58.4529882 17.4431291,59.7307648 16.4861,60.9342 C14.6903,63.2179 12.0335,65.7517 8.8724,65.5385 C7.3554,65.436 6.1459,65.1285 4.9159,64.1814 C4.70860029,64.0201777 4.51770939,63.8389 4.346,63.6402 C4.1,63.4229 3.69,62.8776 3.69,62.8776 L3.4194,62.6726 C3.27520551,62.5688744 3.14195116,62.4507314 3.0217,62.32 M17.4906,39.2944 C17.1104898,42.6222877 16.4577634,45.9133452 15.539,49.1344 C14.5632,52.48 13.53,56.2643 11.1274,58.9375 C10.9142,59.1753 9.5202,60.4217 9.2045,60.2659 C9.11035467,60.0979684 9.04651336,59.9147716 9.0159,59.7247 C8.9462,59.409 8.8519,59.0974 8.7986,58.7776 C8.53457416,57.2016966 8.39746724,55.6071431 8.3886,54.0093 C8.38339018,50.4026191 8.81987205,46.8088724 9.6883,43.3083 C10.4339871,40.1023411 11.5055608,36.9810392 12.8863,33.9931 C13.626478,32.3692084 14.6140128,30.8699259 15.8137,29.5487 C16.195127,29.1822343 16.6924923,28.9603776 17.22,28.9214 C17.293809,29.0669398 17.348913,29.2212309 17.384,29.3806 C18.1097,32.6073 17.8719,36.0349 17.4947,39.2944 M46.6826,38.4375 C45.9917255,38.7518607 45.2344907,38.8926106 44.4768,38.8475 C44.1397391,38.8456575 43.8069922,38.7715584 43.501,38.6302 C43.4122663,38.3364673 43.3397238,38.0380851 43.2837,37.7364 C43.2837,37.597 43.4067,37.6093 43.5256,37.5191 C44.3907,36.9697 45.2722,36.4531 46.125,35.8791 C47.0639,35.2313 47.9126,34.4687 48.8064,33.7676 L48.8802,33.7471 C48.7420173,34.7716503 48.8046837,35.8133055 49.0647,36.8139 C49.0647,37.1009 47.4247,38.1833 46.6826,38.4539 M80.3682,34.3539 C79.7155029,35.721409 78.8460197,36.9744064 77.7934,38.0644 C75.5261,40.3317 71.1391,41.1476 68.1502,41.9635 C63.4147,43.2509 58.6956,44.5383 53.9806,45.92 L49.0606,47.4083 C49.0073,47.4083 48.9335,47.3837 49.0032,47.3263 C49.7125,46.7277 51.6682,44.9319 51.6313,43.9397 C51.5944,42.9475 50.6842,42.927 49.9913,43.1812 C50.1185083,42.9771144 50.1931662,42.7446889 50.2086,42.5047 C50.2147198,42.2259423 50.0531567,41.9706726 49.7986,41.8569 C50.4636679,41.3269089 51.096213,40.7573445 51.6928,40.1513 C53.8371,41.3813 55.8297,40.3522 57.5722,38.7942 C58.0904701,38.2999214 58.5792144,37.7755824 59.0359,37.2239 L59.1425,37.2526 C61.7173,41.3731 65.8788,37.0353 67.3425,34.3252 L67.9944,33.0952 L68.3183,33.3412 C68.5761895,33.6271831 68.8865703,33.8610125 69.2326,34.03 L69.7,34.7434 C71.586,37.5683 75.9894,33.2961 77.2563,31.898 L77.2563,31.8734 L77.3383,31.8734 C77.9283362,32.7104699 78.9350291,33.1498116 79.95,33.0132 C80.3261301,32.9485682 80.6973719,32.8581551 81.0611,32.7426 L81.0611,32.7672 C81.0611,32.7672 80.5568,33.9521 80.3559,34.3375 M65.7107,26.8058 L66.6865,24.0424 L67.117,22.7427 L67.1703,22.7427 L67.035,23.2839 C66.912,23.7185 66.7849,24.149 66.6578,24.5836 C66.461,25.1521333 66.2628333,25.7206667 66.0633,26.2892 L65.4114,27.88 L65.3294,27.8513 L65.7107,26.7935 M74.6774,28.2039 C75.153,25.8218 76.2067,23.3987 77.1989,21.1888 L77.1989,21.32 C76.4855,23.1937 75.5589,25.2109 75.3826,27.2527 C75.3491394,27.4130433 75.339469,27.5774395 75.3539,27.7406 C75.1504001,28.0210444 74.9136005,28.2757416 74.6487,28.4991 L74.62,28.4581 C74.6432138,28.3787641 74.6610213,28.2979454 74.6733,28.2162 M56.7153,30.75 C57.269131,29.2740052 57.98849,27.865547 58.8596,26.5516 C59.0769,26.2318 59.737,25.3216 59.6181,25.6824 C59.0236,27.5151 58.3881,29.3273 57.7772,31.1559 C57.6337,31.5659 57.5476,31.8529 57.5066,31.939 C57.3096954,32.3156014 57.0732995,32.6701952 56.8014,32.9968 L55.9076,34.1079 C55.8503709,34.1850402 55.78732,34.2576858 55.719,34.3252 L55.6944,34.3252 C55.9553668,33.1117945 56.2978093,31.917355 56.7194,30.75 M39.77,23.8292 C39.77,23.7636 39.8315,23.7595 39.852,23.8005 L39.934,23.9891 C40.3932,25.0592 41.6519,25.4487 42.8614,25.3995 C43.2450664,25.401722 43.6244819,25.3191187 43.9725,25.1576 L43.9725,25.2396 L43.7306,25.3995 C41.4887427,26.9177107 39.6133357,28.9163707 38.2407,31.2502 L37.5929,32.39 L37.5109,32.5786 L37.4822,32.6073 C37.9783,29.5651 38.5031,26.65 39.77,23.8292 M43.3452,44.2144 C41.7274965,44.4316773 40.0880035,44.4316773 38.4703,44.2144 C37.5355,44.075 36.5925,43.9971 35.6536,43.8864 L35.4527,43.8864 L35.424,43.87 C35.5167603,43.698442 35.5896642,43.5168701 35.6413,43.3288 L36.3178,39.9709 L36.49,39.0238 C36.49,39.0238 36.5146,38.9131 36.5433,38.9951 C37.1378,40.9713 38.2776,41.7872 38.6302,41.9758 C38.8311996,42.2030926 39.0122675,42.4472599 39.1714,42.7056 C40.2374,44.034 42.2587,44.1283 43.829,44.0627 L43.829,44.1447 C43.665,44.1447 43.501,44.1939 43.3411,44.2103" id="Shape" fill="#1D1D1B"></path>
                <path d="M102.91,12.9314 L103.7505,12.9314 C103.916756,12.9232052 104.067915,13.0273368 104.1195,13.1856 C104.149193,13.2929173 104.149193,13.4062827 104.1195,13.5136 C104.09492,13.6197372 104.019846,13.7070686 103.9186,13.7473 C104.002075,13.7802031 104.061529,13.8553019 104.0744,13.9441 L104.0744,14.2967 C104.078489,14.3514237 104.105241,14.4019549 104.1482,14.4361 L104.1482,14.4894 L103.7997,14.4894 C103.775375,14.4427728 103.765389,14.3899908 103.771,14.3377 L103.771,14.0343 C103.772595,13.9873809 103.75349,13.9421315 103.718753,13.9105521 C103.684015,13.8789727 103.637155,13.8642542 103.5906,13.8703 L103.2093,13.8703 L103.2093,14.4771 L102.91,14.4771 L102.91,12.9314 L102.91,12.9314 Z M102.4385,13.8047 C102.487589,14.3651932 102.971442,14.7863241 103.533348,14.7576216 C104.095255,14.7289191 104.533678,14.2606779 104.5254,13.6981 C104.482245,13.1361713 104.010652,12.7040267 103.4471,12.71 C102.86418,12.7408924 102.416469,13.238145 102.4467,13.8211 L102.4385,13.8047 Z M96.0507,20.4139 L96.022,19.8194 L95.7801,18.1794 L95.6981,17.22 L95.7268,17.0027 L95.6735,17.0027 L93.3693,20.91 C94.4517,21.1806 95.0093,21.73 95.0503,22.591 C95.0522069,22.7350352 95.0426098,22.8789926 95.0216,23.0215 L95.0503,23.0502 C95.7779614,22.3678124 96.1475599,21.3862555 96.0507,20.3934 L96.0507,20.4139 Z M59.778,23.8538 C59.662139,23.5939096 59.4137938,23.4178674 59.1302,23.3946 C58.8596,23.3946 58.589,23.6119 57.9904,24.2146 C56.6784,25.5307 55.7395,27.839 55.0671,29.5446 C54.3947,31.2502 53.8371,33.1034 54.038,34.9361 C54.1651,36.1661 55.268,35.096 55.678,34.6901 C55.8666,34.5015 56.3586,33.907 57.0884,32.9558 C57.4140133,32.5747073 57.6794774,32.1460934 57.8756,31.6848 C58.4291,30.0161 59.0564,28.3433 59.5156,26.6459 C59.6796,26.1867 59.7575,25.8628 59.8395,25.6701 C59.964283,25.3773313 60.0377876,25.0652836 60.0568,24.7476 C60.0258138,24.43148 59.9249848,24.1261921 59.7616,23.8538 L59.778,23.8538 Z M43.091,32.6073 C42.7340683,32.8694776 42.352312,33.0960595 41.9512,33.2838 C41.9512,33.2838 42.2628,32.2301 42.4391,31.7135 C42.9035987,30.5263359 43.5225637,29.4055819 44.28,28.3802 C44.772,27.6791 45.51,27.0969 45.9856,27.0764 C46.2562,27.0764 46.4243,27.3183 46.4489,27.7529 C46.4686381,28.4593994 46.2850617,29.156705 45.92,29.7619 C45.3624,30.873 44.1365,31.8857 43.1033,32.6073 L43.091,32.6073 Z M100.9379,8.8273 C100.7575,8.8765 98.9084,9.471 98.6665,9.5653 C98.3072146,9.72715425 98.004521,9.99272501 97.7973,10.3279 C95.1405,14.0179 93.3816,18.3065 90.7535,21.8694 L89.9335,23.0051 L89.0684,23.9809 C89.0010799,24.0494267 88.9284175,24.1124921 88.8511,24.1695 L88.8511,24.1162 L88.9331,23.8989 L90.8273,18.1835 C91.3931,16.4738 91.922,14.5878 91.8318,12.7674 C91.8031,12.2262 91.5612,11.9023 91.2086,11.9474 C91.1626851,11.9526124 91.117377,11.9622232 91.0733,11.9761 C90.9339,12.0089 90.8027,12.0704 90.6633,12.1114 L87.1701,13.1938 C86.9904571,13.2819162 86.8671906,13.4544894 86.8421,13.653 C86.858052,14.0781562 86.8498388,14.5038754 86.8175,14.9281 C86.772773,15.7796449 86.6352932,16.6237705 86.4075,17.4455 C86.2353,18.0113 86.0836,18.5853 85.9401,18.9256 C85.9401,18.9256 84.4067,23.6898 84.2427,24.026 C84.136969,24.1968451 84.0191341,24.3598958 83.8901,24.5139 C83.681,24.764 83.4801,25.0592 83.2669,25.3011 C82.8569,25.7521 82.4469,26.2072 82.0369,26.6541 C81.9057,26.7976 81.1677,27.6586 80.9791,27.6586 C80.7905,27.6586 80.6716,27.306 80.7085,26.8714 C80.8128656,26.1874332 80.9859412,25.5157348 81.2251,24.8665 C81.754,23.0953 82.3649,21.3569 82.8651,19.5857 C83.0455,18.9584 83.2956,18.1507 83.2956,18.1507 C83.5539,17.3799 83.8204,15.621 83.5949,14.8174 C83.5829899,14.6952819 83.5084535,14.5881358 83.3981,14.5345 C83.1984361,14.4776382 82.9868639,14.4776382 82.7872,14.5345 L78.8553,15.7645 C78.6788603,15.8294342 78.5537339,15.9878222 78.5314,16.1745 L78.5314,16.5845 C78.5292041,16.9967089 78.4935537,17.4080595 78.4248,17.8145 C78.2791275,18.6301428 78.0805414,19.4354437 77.8303,20.2253 C77.2358,22.0088 76.2682,24.1777 75.932,25.5553 C75.7489315,26.3004995 75.6485588,27.0636071 75.6327,27.8308 C75.5525487,27.986889 75.4304374,28.1175197 75.2801,28.208 C74.9471254,28.5685142 74.589569,28.9055214 74.21,29.2166 C73.6606,29.6266 73.39,29.7373 73.0538,29.069 C72.5864,28.1301 73.2875,25.7152 73.5868,24.8255 C73.7918,24.2064 74.0337,23.5955 74.2633,22.9805 C74.3863,22.6648 74.5052,22.3532 74.6159,22.0334 C74.7112573,21.7887544 74.8221843,21.5504667 74.948,21.32 L75.7311,19.5611 C75.9074,19.1511 76.4937,18.0072 76.4609,17.6382 C76.4117,17.0478 75.8705,17.0519 75.4605,17.2036 C74.8291,17.4414 74.2018,17.712 73.5622,17.9334 C72.8078,18.1999 71.791,18.491 70.9874,18.286 C70.4462,18.1466 69.9911,17.835 69.5524,17.8268 C68.7324,17.8063 68.4495,18.9092 68.2814,19.5611 C68.0272,20.5 67.24,23.4192 67.24,23.4192 C66.75947,25.098839 66.1621483,26.7428436 65.4524,28.3392 C64.9346249,29.5288909 64.3473104,30.6870916 63.6935,31.8078 C63.4393,32.2178 62.6234,33.5421 62.0945,33.5421 C61.9305,33.5421 61.8854,33.4232 61.8854,33.0952 C61.9199129,32.612713 62.0079193,32.1355532 62.1478,31.6725 C62.771,29.3642 63.5705,27.1051 64.3413,24.846 C64.8333,23.4028 65.3212,21.9514 65.8911,20.5369 C66.051,20.1269 65.641,19.7948 65.1449,19.9793 C65.0629,20.008 61.6271,21.0576 61.4549,21.1355 C61.2827,21.2134 61.2089,21.3815 60.9957,22.058 C60.4861534,21.6492006 59.8489106,21.4329154 59.1958,21.4471 C57.892,21.4471 56.375,22.2671 55.4156,23.0051 C53.952693,24.1094345 52.6835296,25.449261 51.66,26.9698 C51.1231966,27.771034 50.6344367,28.6034318 50.1963,29.4626 C49.1959,31.5126 48.6424,34.6819 49.3312,36.8426 C48.5199402,37.7440275 47.4844443,38.4145536 46.33,38.786 C45.5897381,39.0473514 44.7940773,39.1109478 44.0217,38.9705 C42.9081236,38.7720244 42.0188285,37.9310607 41.7585,36.8303 C41.6478,36.4203 41.5822,36.203 41.6642,36.1538 C41.8815,36.0144 42.0742,35.9078 42.2874,35.7766 C43.7142,34.8377 45.1082,34.0464 46.3874,32.9312 C48.0561,31.4962 50.512,29.2986 50.3685,26.8345 C50.3205721,26.0909772 50.0246191,25.3850212 49.528,24.8296 C48.052,23.2306 45.1697,24.6697 43.7306,25.5881 C41.0984,27.2732 38.663,30.4794 37.392,33.2838 C36.6663,34.8787 36.08,37.1091 36.613,38.8065 C37.023,40.0939 37.7159,41.4715 39.1222,42.0619 C41.82,43.1894 44.9565,42.2136 46.8712,41.1968 C48.1930128,40.5179265 49.3632726,39.5778131 50.3111,38.4334 C50.8564433,38.9034468 51.5709661,39.1287735 52.2873,39.0566 C54.6079,38.9172 56.498,37.0394 57.7608,35.2395 L57.8141,35.2395 C58.3102,36.4695 58.712,37.3141 60.4135,37.2895 C63.2138,37.2157 65.149,34.1817 66.2396,31.98 C66.871205,30.7499643 67.4124675,29.4755993 67.8591,28.167 C68.4987,26.281 69.249,24.19 69.7,22.55 C69.7697,22.2876 70.1879,22.5787 70.3519,22.5787 C70.6647574,22.5456961 70.9736932,22.4825359 71.2744,22.3901 C71.2673895,22.4019205 71.2575205,22.4117895 71.2457,22.4188 C71.1992333,22.4898667 71.1541333,22.5623 71.1104,22.6361 C70.8193,23.1404 70.5282,23.6447 70.2453,24.1531 C69.6634941,25.1376028 69.1471439,26.1593463 68.6996,27.2117 C68.1683065,28.5138704 67.89001,29.9053529 67.8796,31.3117 C67.8796,32.718 68.8185,34.0095 70.3396,33.9931 C72.324,33.9726 74.1075,32.3531 75.2596,30.9632 C75.563,30.5901 75.9033,30.1678 76.1575,30.1432 C76.3502,30.1432 76.3502,30.1965 76.4609,30.4179 C76.7917857,30.9200197 77.3101431,31.268545 77.9,31.3855 C78.7990777,31.4272401 79.6908708,31.2064287 80.4666,30.75 C81.2359595,30.2020663 81.9624003,29.5962421 82.6396,28.9378 C82.276867,30.215647 81.8429563,31.4722089 81.3399,32.7016 C80.799221,34.1042643 80.0989851,35.4400777 79.253,36.6827 C76.6741,40.4178 72.2543,41.0656 68.183,42.1275 C61.7583,43.8044 55.4156,45.674 49.0565,47.5969 C47.5395,48.0561 46.0389,48.5645 44.5465,49.0606 C38.786,50.9671 33.3412,53.6198 28.0481,56.5923 C24.8010716,58.494729 21.8608417,60.8778773 19.3274,63.6607 C17.8449585,65.3238758 16.5713495,67.1620035 15.5349,69.1342 C15.3873,69.4171 14.3787,71.2785 14.4156,71.6147 C14.4459036,71.7917852 14.5585085,71.9439539 14.719,72.0247 C14.9199,72.119 15.2971,71.9222 15.6046,71.7951 C18.9655864,70.3945542 22.4276535,69.2501258 25.9612,68.3716 C26.0494885,68.3592061 26.1284205,68.3100597 26.1785,68.2363 C26.8263,67.2769 27.4741,66.3175 28.1301,65.3663 C28.9250159,64.1714934 29.822186,63.047973 30.8115,62.0084 C31.8513596,60.9152069 32.9548101,59.8843159 34.1161,58.9211 C35.9488,57.482 37.884,55.9281 39.9668,54.8867 C43.6056312,53.1077034 47.3410958,51.5335795 51.1557,50.1717 C51.1557,50.1717 53.8699,49.3189 55.2188,48.8433 C58.1216,47.8265 63.4188,46.2275 64.5627,45.8667 C66.1576,45.3583 67.773,44.8786 69.3843,44.4317 C71.2211,43.9192 73.0169,43.46 74.8291,42.886 C77.3911916,42.0845865 79.7227758,40.6783234 81.6269,38.786 C82.8700887,37.5598174 83.9206399,36.1526318 84.7429,34.6122 C84.9274,34.2596 85.3661,33.2059 85.3661,33.2059 C85.9975,31.7586 86.5387,30.3359 87.1004,28.8722 C87.1004,28.8722 87.7236,27.0313 87.8056,26.9739 C88.027,26.8263 88.6256,27.0641 88.9987,26.732 C89.6675227,26.1825795 90.2591594,25.5454324 90.7576,24.8378 C91.0159,24.3663 91.2332,24.4729 91.4095,24.8378 C91.8933,25.8464 93.2176,26.363 94.2795,26.4778 C96.8215,26.7115 99.3635,24.6656 100.3188,22.3778 C100.804643,21.1865654 100.963184,19.8871028 100.778,18.614 C100.655,17.5234 100.1753,16.4451 100.0728,15.334 C99.9638176,14.2952444 100.065617,13.2451781 100.3721,12.2467 C100.660043,11.3352821 101.074054,10.4686193 101.6021,9.6719 C101.9916,9.2291 101.7538,8.5813 100.9215,8.8191 L100.9379,8.8273 Z M28.5319,22.14 C27.0764,20.6312 24.7312,21.361 23.5586,22.8452 C22.6541378,24.0164526 22.1858802,25.4661666 22.2343,26.9452 C22.2632971,27.8760313 22.6976362,28.747705 23.4233,29.3314 C23.7713759,29.5390227 24.1601588,29.6690831 24.5631,29.7127 C24.861817,29.712351 25.1602586,29.6945541 25.4569,29.6594 L25.4569,29.766 L25.1576,30.545 C24.8505801,31.1739798 24.4163958,31.7324162 23.8825,32.185 C23.6026872,32.4145878 23.4268806,32.7469952 23.3946,33.1075 C23.439083,33.4732514 23.7561952,33.7440438 24.1244,33.7307 C24.5455852,33.6896104 24.9437328,33.5191803 25.2642,33.2428 C26.6131,32.1645 27.6053,31.2707 28.4909,29.8152 C29.7004,27.8349 30.3113,23.9809 28.5319,22.14 L28.5319,22.14 Z M3.4932,62.4184 C3.69,62.6029 4.1369,62.9186 4.4075,63.1359 C5.371,63.8042 6.7035,63.9559 7.8474,63.9231 C9.41812322,63.8320237 10.922685,63.2594027 12.1565,62.2831 C14.2065,60.762 16.0433,58.2159 17.2774,56.0265 C17.5234,55.6165 18.0482,54.6776 18.1425,54.4808 C18.2368,54.284 18.4295,53.956 18.4541,53.9273 C18.4787,53.8986 18.4787,53.8822 18.5074,53.8986 C18.5911831,53.9689729 18.6787827,54.0346726 18.7698,54.0954 C18.8969,54.1774 19.2044,54.3373 19.3889,54.4275 C20.2538931,54.7931318 21.2024545,54.9150695 22.1318,54.7801 C25.0879,54.4685 27.6463,52.4923 29.6758,50.4628 C30.0562432,50.0638811 30.4019007,49.6331809 30.709,49.1754 C31.0903,49.2041 31.4675,49.241 31.8488,49.2574 C33.7008502,49.327384 35.555511,49.2725934 37.4002,49.0934 C38.9985106,48.9736601 40.5839459,48.7199356 42.1398,48.3349 C43.1960123,48.0745779 44.2213709,47.7020951 45.1984,47.2238 C46.3521119,46.6162142 47.4170917,45.8533466 48.3636,44.9565 C48.9909377,44.396018 49.5312394,43.7451685 49.9667,43.0254 C50.0334891,42.8611567 50.069619,42.6860657 50.0733,42.5088 C49.9921917,42.0841711 49.611347,41.7836881 49.1795,41.8036 C48.9335,41.8323 48.6916,41.9922 47.8798,42.6728 C46.4694,43.8659 44.3374,44.4686 41.656,44.5875 C40.4859879,44.6405195 39.3136004,44.5980119 38.1505,44.4604 C37.5191,44.3907 36.8877,44.2759 36.2563,44.2144 L34.5466,44.0504 C34.2391,44.0504 33.9234,44.0504 33.6323,43.9971 C33.5626,43.9971 33.4355,43.9971 33.4396,43.9151 L33.7389,43.0213 L34.2801,40.9344 L34.6901,39.0648 L35.1001,36.6827 C35.2436,35.7274 35.3912,34.768 35.5347,33.8127 C36.0431,30.3933 36.7319,25.584 37.7815,23.3003 L38.4867,21.9473 C38.6448124,22.2733742 38.8357669,22.5824733 39.0566,22.8698 C39.9032377,23.7487389 41.1832698,24.0559466 42.3366,23.657 C43.9251931,23.194382 45.0859246,21.8305224 45.2886,20.1884 C45.3062218,19.7902422 45.2787133,19.3913692 45.2066,18.9994 C45.0205092,17.8149416 44.146411,16.8553689 42.9844,16.5599 C41.9585468,16.2658731 40.8649063,16.3133601 39.8684,16.6952 C36.7483,17.8186 34.4605,20.4221 32.8984,23.0338 C32.3474999,23.9479879 31.8769683,24.9082565 31.4921,25.9038 L31.3035,26.3917 L30.9017,27.429 L30.3072,29.5979 L29.4667,33.0665 C28.8025,36.859 28.3351,40.5326 27.2568,44.2513 C27.1406221,44.3077261 27.0199363,44.3543547 26.896,44.3907 C25.8190362,44.6883297 24.7607332,45.0497682 23.7267,45.4731 C22.860557,45.8345857 22.0358125,46.2881952 21.2667,46.8261 C21.9571598,44.6724877 22.4915435,42.4719232 22.8657,40.2415 C23.1517433,38.5132462 23.3052571,36.7656552 23.3249,35.014 C23.3508101,33.4026803 23.1408537,31.7962375 22.7017,30.2457 C22.468033,29.4935089 22.1589633,28.7668519 21.7792,28.0768 C21.554178,27.6238466 21.2791301,27.1975223 20.9592,26.8058 C20.7337,26.5475 20.5123,26.2851 20.2827,26.0309 C19.8313868,25.5561656 19.2851719,25.1817779 18.6796,24.9321 C17.0396,24.2556 15.2561,24.5877 13.7104,25.3421 C11.3734,26.4573 9.3562,28.5237 7.79,30.5573 C6.79422917,31.8583487 5.90961331,33.2408181 5.1455,34.6901 C4.46360878,35.982307 3.85715925,37.3129367 3.3292,38.6753 C2.7675,40.1185 2.2878,41.5945 1.8737,43.0869 C1.29210995,45.1215082 0.853704422,47.1943443 0.5617,49.2902 C0.305054173,51.0834754 0.233611285,52.8983995 0.3485,54.7063 C0.405158196,55.4976888 0.517503005,56.2841025 0.6847,57.0597 C1.0947,58.9908 2.0172,61.049 3.4932,62.4143 L3.4932,62.4184 Z M17.7038,29.6143 C17.5316,28.8189 16.7854,27.2404 15.867,27.2814 C13.6776,27.3798 12.0786,31.0124 11.2627,32.6114 C9.7662,35.5511 8.938,38.7614 8.118,41.9307 C7.51801615,44.2713778 7.13374342,46.6621031 6.97,49.0729 C6.7855,51.6477 6.437,55.8461 7.4333,58.3389 C7.6242359,58.9793095 7.93751553,59.5766293 8.3558,60.0978 C8.55337029,60.3544953 8.85245718,60.5130114 9.1758,60.5324 C10.6231,60.4299 12.0909,58.1872 12.7797,57.113 C14.2516,54.8252 14.9814,51.783 15.744,49.1836 C16.2811,47.3386 16.6501,45.4936 17.0437,43.6281 C17.3225,42.3243 17.4906,40.9221 17.6669,39.5937 C18.0769,36.4531 18.3598,32.7016 17.6915,29.602 L17.7038,29.6143 Z M25.3626,48.9663 C23.7226,50.9179 22.1113,52.0536 20.9756,52.1069 C20.5103445,52.1533118 20.0867532,51.8365082 19.9998,51.3771 C19.9711,50.5161 21.4799,49.8027 22.1933,49.5321 C23.209857,49.1880661 24.2670678,48.9785537 25.338,48.9089 L25.3626,48.9663 Z M103.2216,13.5997 L103.6562,13.5997 C103.761306,13.5829506 103.836112,13.4885524 103.8284,13.3824 C103.834742,13.3321631 103.8181,13.2817439 103.7831,13.2451525 C103.748099,13.2085611 103.698469,13.1896963 103.648,13.1938 L103.2175,13.1938 L103.2175,13.6038 L103.2216,13.5997 Z" id="Shape" fill="#FFFFFF"></path>
                <path d="M28.3269,29.0034 C27.5724024,30.3037531 26.6176915,31.4770789 25.4979,32.4802 C25.1266175,32.8007302 24.6981901,33.0483279 24.2351,33.21 C24.1285,33.21 24.0711,33.1813 24.0711,33.0993 C24.0852856,32.9821691 24.1440123,32.8749928 24.2351,32.8 C24.8375941,32.1748706 25.3722073,31.4877071 25.83,30.75 C26.0864827,30.2742431 26.2269632,29.7446314 26.24,29.2043 C26.254485,29.0854853 26.1701597,28.977329 26.0514,28.9624 C26.0353526,28.9739033 26.0172649,28.9822514 25.9981,28.987 C25.6483958,29.1021869 25.2837536,29.1657231 24.9157,29.1756 C24.0354192,29.145295 23.272888,28.5560663 23.0215,27.7119 C22.3491,25.6209 23.7595,21.9719 26.5147,21.9145 C29.8234,21.8448 29.3847,27.0518 28.331,28.987 M22.0211,49.077 C20.3811,49.6182 19.4381,50.717 19.5283,51.4591 C19.7169,53.054 21.812,52.6891 22.7468,52.1848 C24.1945034,51.3664451 25.4149508,50.1995508 26.2974,48.79 C26.5393,48.4128 26.2195,48.3472 25.8628,48.38 C24.5562661,48.4710046 23.265231,48.7173748 22.017,49.1139 M18.7657,33.1444 C18.7329,31.2912 18.5115,29.5651 17.6833,27.8882 C17.3763063,27.1918894 16.6853701,26.7441499 15.9244,26.7484 C14.3131,26.8058 13.0954,28.495 12.2959,29.7537 C8.856,35.1698 6.9331,42.1767 6.4985,48.4989 C6.2935,51.5124 5.9696,54.3209 6.6625,57.4369 C6.84416775,58.4943224 7.24953934,59.5007622 7.8515,60.3889 C8.20165149,60.8612203 8.75595288,61.138371 9.3439,61.1351 C10.3156,61.1351 11.6194,59.8436 12.1606,59.1712 C14.0056,56.8875 15.0962,54.1077 15.9285,51.3156 C16.6678499,48.8295324 17.2741435,46.3058181 17.7448,43.7552 C18.4362345,40.2579924 18.7809375,36.7010973 18.7739,33.1362 M49.6018,42.5662 C49.6018,43.4518 47.5149,45.1615 46.7318,45.7068 C45.2679543,46.7018112 43.6377597,47.4266507 41.9184,47.847 C38.3678,48.7818 34.2637,48.831 30.5942,48.6342 C30.5639635,48.6311371 30.5339269,48.6416499 30.5122,48.6629 C30.3195,48.8884 30.1555,49.1344 29.971,49.3681 C28.1014,51.7379 24.9526,54.0872 21.8981,54.2881 C20.869,54.3578 19.393,53.9519 18.9174,53.4681 C18.7083,53.259 18.6837,53.1155 18.4582,53.1155 C18.3543847,53.0888522 18.2479323,53.1483934 18.2163,53.2508 C17.8649006,54.0487404 17.453731,54.8189982 16.9863,55.555 C14.8625,59.0933 11.9556,63.4106 7.3431,63.4106 C6.08083996,63.3079448 4.87635304,62.8375534 3.8786,62.0576 C1.8696,60.3069 1.1521,57.1007 0.9512,54.5792 C0.7872,51.0819 1.3899,47.6707 2.2509,44.2841 C3.49763249,39.1903816 5.80414665,34.4166936 9.02,30.2744 C10.7338,28.0481 12.7879,26.2031 15.5226,25.3995 C16.6555387,25.1203625 17.8497105,25.234575 18.9092,25.7234 C21.279,26.7197 22.5623,30.9468 22.7304,33.333 C22.8214251,35.0592754 22.7665637,36.790154 22.5664,38.5072 C22.3561818,40.3699519 22.0205871,42.2164075 21.5619,44.034 C21.2877043,45.2802372 20.9161988,46.5030525 20.4508,47.6912 L20.2622,48.1504 C20.3145983,48.2331924 20.3901583,48.2987728 20.4795,48.339 C20.6107,48.339 21.2995,47.6338 21.7792,47.2812 C23.3857346,46.2038326 25.177409,45.432398 27.0641,45.0057 L27.8472,44.8704 C28.0358,44.1488 28.2326,43.4272 28.3884,42.7015 C29.0116,39.8069 29.3437,36.8713 29.9587,33.9808 C30.4343,31.7422 30.9796,29.5077 31.6397,27.3142 C32.4064,24.7599 33.6897,22.8042 35.1862,20.8936 C35.9761921,19.8681706 36.939109,18.9885029 38.0316,18.2942 C39.2247,17.5357 40.5982,16.7854 42.066,16.9658 C43.6609,17.1626 44.7023,17.917 44.7761,19.6185 C44.8157386,21.5554006 43.3004665,23.1690196 41.3649,23.2511 C40.4219,23.288 38.9828,22.3532 38.9828,21.2995 C38.9828,21.2462 39.0361,20.7583 39.0361,20.7296 C39.0361,20.4754 38.7368,20.5287 38.6261,20.6763 C38.4306452,20.9280254 38.2499423,21.190866 38.0849,21.4635 C37.6054801,22.3116623 37.2231358,23.2111341 36.9451,24.1449 C36.2657693,26.5487283 35.731803,28.9912818 35.3461,31.4593 C34.9648,33.5093 34.7721,35.6044 34.399,37.6626 C34.1858,38.8311 34.0218,40.098 33.6938,41.2378 C33.3904,42.2956 33.0952,43.3329 32.7467,44.3825 C32.7417795,44.4096119 32.7417795,44.4373881 32.7467,44.4645 C32.744253,44.5010792 32.7577201,44.5369335 32.7836433,44.5628567 C32.8095665,44.5887799 32.8454208,44.602247 32.882,44.5998 C33.5503,44.5998 34.2227,44.5998 34.8869,44.6531 C36.4818,44.8007 38.0603,45.1246 39.6552,45.223 C41.3022728,45.3162137 42.9545627,45.207438 44.5752,44.8991 C45.5530236,44.7021363 46.488471,44.3343417 47.3386,43.8126 C47.885042,43.5013858 48.3940278,43.1285881 48.8556,42.7015 C48.9734651,42.5473049 49.1502849,42.4492368 49.3435,42.4309 C49.4788,42.4063 49.5608,42.4596 49.5608,42.5662 M96.4853,17.9211 C96.4402,17.5111 96.4115,17.0232 96.4033,16.5927 C96.4421309,15.9957564 96.5807165,15.4095392 96.8133,14.8584 L96.7846,14.8584 L96.514,14.7231 C96.3664,14.6493 94.0253,18.8231 93.8326,19.1675 C93.4718,19.7702 93.1151,20.3975 92.7502,20.9838 C92.6343074,21.1020132 92.5595529,21.2543974 92.537,21.4184 C92.5419344,21.5021057 92.5945892,21.5755034 92.6723,21.607 C93.2970835,21.2880981 94.0621938,21.5243554 94.3984,22.14 C94.7797,22.8042 94.5419,23.0912 94.0991,23.6283 C93.9515,23.9235 94.3697,23.9522 94.5583,23.9522 C95.7473,23.7554 96.4361,22.6853 96.6739,21.5701 C96.9363,20.3401 96.6165,19.1716 96.4853,17.9416 M41.2624,34.03 C41.2624,34.3006 41.4797,34.2719 41.5986,34.2104 C42.54942,33.7255541 43.4538315,33.1546358 44.3005,32.5048 C45.0570785,31.9124244 45.7325281,31.2231901 46.3095,30.4548 C46.8645679,29.6618583 47.1518608,28.7123554 47.1295,27.7447 C47.0803,26.9862 46.6949,26.5147 46.0758,26.5516 C45.4567,26.5885 44.7474,27.1092 44.0996,27.88 C42.674596,29.4895708 41.7150058,31.4569431 41.3239,33.5708 C41.2953207,33.7251762 41.2775111,33.8813529 41.2706,34.0382 M99.9498,11.9638 C100.255128,11.0669811 100.655083,10.2052232 101.1429,9.3931 L98.7854,10.127 C98.2402341,10.7413265 97.7504286,11.4026325 97.3217,12.1032 C96.8789,12.7961 96.4074,13.4767 95.9933,14.1901 C95.0011,15.9162 94.054,17.6587 93.07,19.393 C92.338918,20.6625159 91.5438615,21.8941007 90.6879,23.083 C90.2533,23.6242 89.1914,25.3052 88.3058,24.9239 C88.1888722,24.8868663 88.1114754,24.7758187 88.1172,24.6533 C88.2607,24.1818 88.478,23.739 88.6297,23.2716 C89.4702,20.7255 90.323,18.1712 91.0405,15.6046 C91.3433844,14.6047889 91.4176484,13.5496806 91.2578,12.5173 L87.494,13.6571 C87.5384571,14.4986571 87.493101,15.3425558 87.3587,16.1745 C86.9368207,18.0441199 86.4125983,19.8891639 85.7884,21.7013 C85.7884,21.7013 85.0299,24.0055 84.8946,24.2474 C84.5145496,24.860074 84.0600915,25.4233267 83.5416,25.9243 C83.0332,26.4245 81.7253,28.1301 81.1021,28.1998 C80.0238,28.3228 80.1919,26.7566 80.3723,26.0883 C80.5199,25.5389 80.6757,25.01 80.8315,24.4483 C81.6515,21.607 82.9143,18.7083 83.1603,15.8055 L83.1603,15.0511 L79.2079,16.2811 C79.2079,18.5033 78.4863,20.5369 77.7155,22.591 C77.3711,23.5094 76.998,24.3991 76.6536,25.3216 C76.4335976,26.1238462 76.3124333,26.9499663 76.2928,27.7816 C76.2739659,28.0219609 76.1621883,28.2455162 75.9812,28.4048 C75.5242993,28.9408941 75.0070045,29.4224185 74.4396,29.8398 C73.6893,30.3646 72.7463,29.9013 72.488,28.905 C72.3404,28.3351 72.5495,26.4983 72.9513,25.215 C73.4777095,23.5932528 74.0922572,22.0014512 74.7922,20.4467 L75.5794,18.6878 C75.7229,18.3639 75.8828,18.0441 76.0099,17.712 C76.0138499,17.7016784 76.0134657,17.6901993 76.0088345,17.6801649 C76.0042032,17.6701305 75.9957171,17.6623907 75.9853,17.6587 C75.8830832,17.6576558 75.7815723,17.6757331 75.686,17.712 C74.4109,18.204 72.2666,19.352 70.9177,18.8231 C70.5277811,18.6266775 70.1144656,18.4806393 69.6877,18.3885 C69.5115981,18.4015383 69.3608922,18.5198343 69.3064,18.6878 C68.634,20.7378 68.1461,22.8534 67.4901,24.9157 C66.6701,27.5397 65.3868,30.9058 63.6976,33.0419 C63.2876,33.5708 62.8776,34.0956 62.2093,34.1243 C61.9736485,34.1260036 61.7486548,34.0262403 61.5917031,33.8504544 C61.4347514,33.6746685 61.3610149,33.439854 61.3893,33.2059 C61.425832,32.6639625 61.5220817,32.1277143 61.6763,31.6069 C62.2011,29.3314 63.0785,27.1256 63.8247,24.9157 C64.3167,23.4643 64.8497,22.0252 65.3704,20.582 L65.3171,20.5533 L65.2884,20.582 L61.8731,21.6685 C61.7406255,22.1328733 61.5957066,22.593606 61.4385,23.0502 C61.4219751,23.1056584 61.3760739,23.147389 61.3192968,23.1585724 C61.2625198,23.1697557 61.2042218,23.1485492 61.1679,23.1035 C61.0698328,22.9980342 60.9870277,22.8793469 60.9219,22.7509 C60.6513,22.263 59.9748,22.0088 59.1097,22.0457 C57.5886,22.1113 56.0019,23.2429 54.94,24.2392 C53.2389167,25.7954273 51.8477648,27.6595708 50.84,29.7332 C50.0424298,31.4428495 49.6616456,33.3172628 49.7289,35.2026 C49.7524109,35.8052214 49.8714249,36.4002915 50.0815,36.9656 C50.1881,37.2854 49.159,37.9947 48.8515,38.1956 C48.0487398,38.8512689 47.1015409,39.3065989 46.0881,39.524 C44.198,39.8192 41.9881,39.237 41.3444,37.2772 C41.2182673,36.8786718 41.1465521,36.4649302 41.1312,36.0472 C41.1210558,35.9461607 41.175097,35.8495417 41.2665,35.8053 C41.5658,35.6372 41.8692,35.4732 42.1603,35.2887 C44.5014,33.8127 47.2238,32.0866 48.8515,29.8152 C49.3681,29.0936 49.9585,27.88 49.9093,26.9698 C49.8232,25.4036 48.8884,24.7107 47.4165,24.7763 C45.7232,24.8542 43.911,26.0842 42.7138,27.1912 C41.352532,28.4162015 40.172235,29.8284166 39.2083,31.3855 C38.0275,33.3863 36.6704,36.0431 37.2321,38.4006 C37.4840437,39.5129752 38.093152,40.512316 38.9664,41.246 C41.164,42.886 45.1164,41.8241 47.2074,40.426 C48.1450697,39.8304834 49.0152741,39.1348698 49.8027,38.3514 C49.9762817,38.1048387 50.1963311,37.8945383 50.4505,37.7323 C50.6209984,37.8287318 50.7769805,37.9488243 50.9138,38.089 C52.3365,39.2944 54.8047,37.7815 55.8707,36.7606 C56.7366751,35.9180004 57.4829959,34.9606129 58.0888,33.9152 C58.0988831,33.8954933 58.1200973,33.8840703 58.1421,33.8865 C58.2791468,33.8841318 58.4012141,33.972756 58.4414,34.1038 C58.4414,34.2719 58.4127,34.4482 58.4127,34.6204 C58.4515036,35.2645306 58.7704218,35.8593671 59.2854276,36.2481846 C59.8004333,36.6370021 60.4598729,36.7808033 61.09,36.6417 C63.2507,36.1866 64.78,33.8496 65.6943,32.0087 C66.6680569,29.9953976 67.4903365,27.9122893 68.1543,25.7767 C68.5192,24.6451 68.7488,23.9604 69.0645,22.8124 C69.1752,22.4024 69.249,21.8981 69.454,21.8776 C69.7533,21.8489 70.0444,22.0416 70.3478,22.0416 C71.0161,22.0416 71.504,21.6316 72.0534,21.5824 C72.1114888,21.5717816 72.1713592,21.5862199 72.2182227,21.6221486 C72.2650863,21.6580773 72.2945732,21.7121462 72.2994,21.771 C72.2982039,21.8671391 72.2697708,21.9609684 72.2174,22.0416 C71.955,22.4803 71.7172,22.9313 71.4589,23.37 C70.0526,25.7685 68.7283,28.1096 68.5069,30.9263 C68.2117,34.7311 72.2625,33.3576 73.8369,31.6561 C74.3822,31.0739 74.9316,30.586 75.44,29.9669 C75.6573,29.7045 75.9361,29.4175 76.1657,29.1469 C76.2723,29.0321 76.4896,29.2248 76.5429,29.3109 C76.8176,29.7578 76.9529,30.8566 78.5929,30.7992 C79.8229,30.7541 81.2292,29.7086 82.0328,28.8476 C82.5781,28.2613 83.0496,27.5766 83.5498,26.9493 C83.6564,26.8181 83.8942,27.0108 83.8737,27.0846 C83.6031,28.1342 83.2669,29.1715 82.9266,30.2006 C82.5863,31.2297 82.246,32.2096 81.8729,33.21 C80.8807,35.4404 79.7409,37.8799 77.6458,39.3026 C74.3658,41.5371 70.1264,42.2423 66.3503,43.255 C60.885,44.7269 55.4853,46.2972 50.0692,47.9413 C45.7519,49.2779 41.41,50.7006 37.31,52.6235 C33.784,54.2635 30.3769,55.9035 27.0969,58.0396 C23.9985551,60.0233149 21.2314242,62.4819107 18.8969,65.3253 C17.405838,67.1851406 16.184326,69.2458381 15.2684,71.4466 C18.573,69.9788 22.1851,68.9374 25.6701,68.0067 C25.8517131,67.88214 25.9996227,67.7145092 26.1006,67.5188 C27.9784,64.8374 29.7906,62.2462 32.2219,60.0158 C34.6532,57.7854 37.2936,55.6206 40.4752,54.0093 C44.3213579,52.1797019 48.278846,50.5939679 52.3242,49.2615 C56.8342,47.8142 61.3442,46.3546 65.8542,44.9565 C68.2076,44.2267 70.5897,43.6363 72.9513,42.9516 C74.453471,42.5713193 75.9074166,42.0211034 77.285,41.3116 C80.501398,39.6240439 83.0890471,36.9458272 84.665,33.6733 C85.1898,32.4433 85.6982,31.2133 86.182,29.9341 C86.6371,28.7492 87.0758,27.552 87.5104,26.3589 C87.5324584,26.2766657 87.6164464,26.2273684 87.699,26.2482 C88.3673,26.3138 88.4657,26.5352 89.1053,25.9489 C89.6587086,25.4318561 90.1586931,24.8604453 90.5977,24.2433 L91.3562,23.2388 C91.4382,23.1281 91.6555,23.2921 91.6555,23.4274 L91.6555,23.698 C91.7063604,24.1523034 91.9170735,24.5737296 92.25,24.887 C92.8019366,25.4065832 93.5033475,25.7393589 94.2549,25.8382 C96.7149,26.1703 98.8715,24.1982 99.8637,22.1482 C100.369596,20.9995864 100.51955,19.7256908 100.2942,18.491 C100.1548,17.63 99.8473,16.8018 99.6997,15.9449 C99.4758752,14.6054912 99.5685451,13.2322918 99.9703,11.9351 M59.2081,22.8534 C58.63,22.8534 57.9781,23.4028 57.6378,23.8292 C56.2069,25.5635 55.2393,27.6832 54.4439,29.7619 C53.7961142,31.3617976 53.4741264,33.0748844 53.4968,34.8008 C53.4968,35.506 54.038,36.1743 54.5546,36.1538 C55.4115,36.1251 56.4939,34.85 56.9654,34.2309 C57.4839159,33.6167397 57.9553857,32.9643572 58.3758,32.2793 C58.5236274,31.9657911 58.6416792,31.6390894 58.7284,31.3035 C59.1384,30.1022 59.5484,28.905 59.9215,27.6996 L60.7046,25.2396 C60.7524713,25.1278084 60.7802306,25.0084432 60.7866,24.887 C60.7333,23.7513 59.9994,22.8001 59.2163,22.837" id="Shape" fill="#000000"></path>
                <path d="M34.1038,13.5915 C34.1833085,13.4999546 34.2559398,13.402656 34.3211,13.3004 C34.3660587,13.2283515 34.394095,13.1470463 34.4031,13.0626 C34.4102399,12.9771289 34.3961561,12.8912176 34.3621,12.8125 C34.3138111,12.7020054 34.2576326,12.5951293 34.194,12.4927 L31.9431,8.7535 C31.8818316,8.64907375 31.813331,8.54906282 31.7381,8.4542 C31.6849148,8.38658584 31.6159239,8.33308264 31.5372,8.2984 C31.4577203,8.26725541 31.3721875,8.25463582 31.2871,8.2615 C31.1656249,8.26980733 31.0449884,8.28762863 30.9263,8.3148 L34.03,6.4657 C34.1396815,6.40847896 34.2349945,6.32718261 34.3088,6.2279 C34.3672944,6.11794298 34.4061443,5.99861847 34.4236,5.8753 L35.26,7.3103 C35.148308,7.22560992 35.0255313,7.15663422 34.8951,7.1053 C34.7864131,7.06302822 34.671354,7.0394619 34.5548,7.0356 C34.4360482,7.03251451 34.3177895,7.05199242 34.2063,7.093 C34.0635946,7.14351055 33.9262547,7.20806027 33.7963,7.2857 L32.6073,8.0032 L33.5913,9.6432 L34.6778,9.02 C34.8908552,8.90670472 35.076877,8.74865613 35.2231,8.5567 C35.3213442,8.39133802 35.3630808,8.19848605 35.342,8.0073 L36.2604,9.5325 C36.1888039,9.48064275 36.1118258,9.43665527 36.0308,9.4013 C35.9676601,9.37772781 35.9013002,9.36390284 35.834,9.3603 C35.7876248,9.35617767 35.7409752,9.35617767 35.6946,9.3603 C35.6452001,9.36540796 35.5968363,9.37784437 35.5511,9.3972 C35.4863082,9.42462593 35.4233158,9.45612213 35.3625,9.4915 L35.0796,9.6555 L34.03,10.2787 L34.8172,11.5825 C34.8928358,11.7420225 35.0179362,11.8728746 35.1739,11.9556 C35.3318578,11.9847939 35.4947325,11.9444488 35.6208,11.8449 L36.4162,11.3652 C36.7048541,11.2136932 36.9418056,10.9795965 37.0968,10.6928 C37.2153764,10.3971594 37.2397198,10.0721042 37.1665,9.7621 L37.3797,10.2746 L37.5396,10.6354 C37.5888,10.742 37.6407333,10.8472333 37.6954,10.9511 L37.8963,11.3242 L34.1038,13.5915 Z M38.3555,9.5079 C38.6622077,9.63514592 38.987679,9.71132004 39.319,9.7334 C39.5997481,9.74954477 39.8804195,9.70042728 40.139,9.5899 C40.2798458,9.52965575 40.4089322,9.44498617 40.5203,9.3398 C40.6257837,9.24028933 40.7119648,9.12213783 40.7745,8.9913 C40.8354337,8.86252881 40.871596,8.72344292 40.8811,8.5813 C40.8972041,8.44159972 40.8759832,8.30012718 40.8196,8.1713 C40.6665333,7.80503333 40.2374,7.57953333 39.5322,7.4948 L38.7327,7.38 C37.9127,7.2898 37.3838,6.95906667 37.146,6.3878 C37.0591292,6.19347273 37.0197774,5.98125386 37.0312,5.7687 C37.0445555,5.5559169 37.1047568,5.34871234 37.2075,5.1619 C37.3217675,4.95897686 37.4701758,4.7772807 37.6462,4.6248 C37.8478292,4.45424867 38.0746492,4.31594378 38.3186,4.2148 L38.4949,4.1451 L38.663,4.1 L38.8967,4.0508 L39.3067,3.9811 C39.3668202,3.97196692 39.4258794,3.95685877 39.483,3.936 C39.5801794,3.88201387 39.6544749,3.79460729 39.6921,3.69 L40.344,5.0102 C40.2443431,4.9327694 40.1372131,4.86546976 40.0242,4.8093 C39.9338246,4.76854145 39.8406544,4.73428769 39.7454,4.7068 C39.5520147,4.66194301 39.3527293,4.64810376 39.155,4.6658 C38.9529482,4.68343197 38.7550158,4.73326109 38.5687,4.8134 C38.3385093,4.90465095 38.1481779,5.07464153 38.0316,5.2931 C37.9244371,5.48297773 37.9123002,5.71206199 37.9988,5.9122 C38.0529354,6.04914275 38.1569522,6.16048462 38.2899,6.2238 C38.5005803,6.30419408 38.721314,6.35523875 38.9459,6.3755 L39.9258,6.5149 C40.3138749,6.55914845 40.6875389,6.68790161 41.0205,6.8921 C41.3121221,7.07673793 41.5408631,7.34550867 41.6765,7.6629 C41.7818385,7.90265198 41.8282322,8.16414354 41.8118,8.4255 C41.7955442,8.68569014 41.7257548,8.93972387 41.6068,9.1717 C41.4788351,9.41848061 41.3080873,9.64059158 41.1025,9.8277 C40.8739764,10.0355192 40.6119912,10.2032452 40.3276,10.3238 L40.0488,10.4345 C39.9535948,10.4679506 39.8563669,10.4953387 39.7577,10.5165 L39.3805,10.5862 L38.8598,10.66 L38.3555,9.5079 Z M44.4932,8.5895 C44.5943816,8.5216305 44.6903185,8.44625148 44.7802,8.364 C44.8435716,8.30634521 44.8926942,8.23476656 44.9237,8.1549 C44.9525414,8.07344826 44.9609876,7.98617068 44.9483,7.9007 C44.9293811,7.78136727 44.9019783,7.66353521 44.8663,7.5481 L43.5953,3.1242 L42.5744,3.4153 C42.2876948,3.47975005 42.0205844,3.6118994 41.7954,3.8007 C41.6286479,3.98520227 41.5352949,4.22441934 41.533,4.4731 L41.082,2.9069 C41.1565957,2.93505367 41.2333904,2.95699499 41.3116,2.9725 C41.4470089,2.99872137 41.5861911,2.99872137 41.7216,2.9725 C41.8008667,2.9561 41.8992667,2.9315 42.0168,2.8987 L45.8052,1.8081 C45.9879373,1.7617307 46.1642167,1.69287157 46.33,1.6031 C46.4500802,1.53115869 46.5523859,1.43305738 46.6293,1.3161 L47.0844,2.87 C46.9312913,2.67184365 46.718574,2.52811572 46.4776,2.46 C46.2039465,2.40715716 45.9212229,2.42694782 45.6576,2.5174 L44.5793,2.8249 L45.8503,7.2488 C45.8823946,7.36472842 45.9221144,7.4784094 45.9692,7.5891 C46.0024268,7.6675513 46.0545408,7.73656704 46.1209,7.79 C46.1884036,7.84158604 46.2670269,7.87668573 46.3505,7.8925 C46.4695238,7.91548725 46.5901532,7.92919514 46.7113,7.9335 L44.4932,8.5895 Z M52.48,6.9044 C52.5887322,6.85674972 52.6941955,6.8019636 52.7957,6.7404 C52.8674033,6.69704944 52.9256124,6.63458108 52.9638,6.56 C53.0016926,6.47899226 53.0226213,6.391092 53.0253,6.3017 C53.0347105,6.16519533 53.0347105,6.02820467 53.0253,5.8917 L52.6932,1.845 C52.6857725,1.73828014 52.6679208,1.63254307 52.6399,1.5293 C52.6191411,1.45517906 52.5779362,1.38839876 52.521,1.3366 C52.4532114,1.28465707 52.3748254,1.24826359 52.2914,1.23 C52.1785228,1.20072192 52.0632713,1.18151333 51.947,1.1726 L51.947,1.1152 L52.4595,0.9553 L52.8695,0.82 L53.2303,0.6765 L53.6157,0.5084 L54.0544,5.8138 C54.0640045,5.94462014 54.0818061,6.07470893 54.1077,6.2033 C54.124448,6.29151769 54.1593532,6.37529013 54.2102,6.4493 C54.260301,6.51729699 54.3284893,6.56985882 54.407,6.601 C54.5163721,6.64562964 54.6287084,6.68261842 54.7432,6.7117 L52.48,6.9044 Z M55.4853,6.724 C55.9169704,6.63750081 56.3397072,6.51122879 56.7481,6.3468 C57.0953643,6.20153518 57.4220556,6.0113099 57.7198,5.781 C58.1699755,5.444655 58.5373845,5.0099344 58.794,4.51 C59.0510504,4.02562274 59.1914444,3.48791402 59.204,2.9397 C59.2102391,2.72562506 59.1797305,2.51206499 59.1138,2.3083 C59.0550523,2.12637685 58.9633245,1.95681932 58.8432,1.8081 C58.7314425,1.66976518 58.5917265,1.55659529 58.4332,1.476 C58.2648637,1.3928865 58.0797357,1.34940948 57.892,1.3489 C57.7521573,1.3460224 57.613036,1.36967302 57.482,1.4186 C57.3559168,1.46589689 57.2392878,1.53531889 57.1376,1.6236 C56.9331894,1.79936068 56.8150319,2.05511937 56.8137,2.3247 C56.8101291,2.47455895 56.8409874,2.62323952 56.9039,2.7593 C56.9650044,2.89550776 57.0544617,3.01711374 57.1663,3.116 C57.287596,3.22023108 57.4264109,3.30213183 57.5763,3.3579 C57.7358489,3.42020577 57.9052394,3.45352849 58.0765,3.4563 C58.2626234,3.46593674 58.4489175,3.44091216 58.6259,3.3825 C58.7827242,3.31564636 58.9227574,3.21482248 59.0359,3.0873 L58.9416,3.3128 C58.916599,3.37092166 58.8849551,3.42595447 58.8473,3.4768 C58.8124243,3.52211055 58.7740393,3.56460822 58.7325,3.6039 L58.589,3.7228 C58.2689627,3.95038912 57.8826261,4.06571347 57.4902,4.0508 C57.2424893,4.04774677 56.9976141,3.99765866 56.7686,3.9032 C56.5460759,3.81830906 56.3426122,3.69009905 56.17,3.526 C56.0091004,3.36494197 55.8809974,3.17417988 55.7928,2.9643 C55.7003369,2.74959867 55.6555733,2.51738732 55.6616,2.2837 C55.664334,2.02090962 55.7289463,1.76246045 55.8502,1.5293 C55.9702958,1.29857279 56.1363348,1.09486102 56.3381,0.9307 C56.5496951,0.750612052 56.7930221,0.611568025 57.0556,0.5207 C57.3408864,0.4334079 57.639088,0.395959328 57.9371,0.41 C58.62695,0.394406766 59.2830559,0.707997956 59.7042,1.2546 C59.8891251,1.50101712 60.0280213,1.77880968 60.1142,2.0746 C60.2159252,2.36734427 60.2685679,2.67488843 60.27,2.9848 C60.265744,3.23268657 60.2313241,3.479133 60.1675,3.7187 C60.1020638,3.96780645 60.0113948,4.20959052 59.8969,4.4403 C59.7813928,4.67666941 59.644134,4.90177378 59.4869,5.1127 C59.3260283,5.32657424 59.1432714,5.52307226 58.9416,5.699 C58.739222,5.86983388 58.5209221,6.020859 58.2897,6.15 C58.0600933,6.28258084 57.8201453,6.39638477 57.5722,6.4903 C57.3287785,6.58305862 57.077726,6.65439593 56.8219,6.7035 C56.5828217,6.74971662 56.3396906,6.77169457 56.0962,6.7691 L55.8379,6.7691 L55.4853,6.724 Z M64.4971,3.608 L64.8661,3.8704 C64.9481,3.9319 65.0342,4.0016 65.1203,4.0795 C65.3649947,4.2692128 65.5581338,4.51733319 65.682,4.8011 C65.7831311,5.07634119 65.8086159,5.37366335 65.7558,5.6621 C65.7179081,5.92998256 65.6213064,6.18618685 65.4729,6.4124 C65.3286925,6.63571699 65.138617,6.82579254 64.9153,6.97 C64.6786501,7.11866913 64.4155435,7.22029233 64.1404,7.2693 C63.8365307,7.32195321 63.5258693,7.32195321 63.222,7.2693 C62.9350574,7.23209705 62.6572337,7.14319347 62.402,7.0069 C62.1743825,6.88560018 61.9713796,6.72291979 61.8034,6.5272 C61.6456312,6.34186955 61.5258272,6.12733681 61.4508,5.8958 C61.24589,5.2154027 61.5024626,4.48044628 62.0863,4.0754 C62.221394,3.97945085 62.3672527,3.89964135 62.5209,3.8376 C62.7220392,3.76383781 62.9291764,3.70759526 63.14,3.6695 C62.4758,3.1939 62.1888,2.65816667 62.279,2.0623 C62.3062198,1.86950362 62.3777961,1.68565068 62.4881,1.5252 C62.5950284,1.36727606 62.7349037,1.23439451 62.8981,1.1357 C63.079103,1.03154151 63.2779296,0.962021731 63.4844,0.9307 C63.9537545,0.866067993 64.4318012,0.937205899 64.862,1.1357 C65.0434085,1.22127978 65.2085125,1.33782378 65.3499,1.4801 C65.4770474,1.6095017 65.5749209,1.76470114 65.6369,1.9352 C65.6987238,2.10279261 65.7184346,2.2830057 65.6943,2.46 C65.677878,2.57280016 65.6432615,2.68218829 65.5918,2.7839 C65.5368972,2.88694091 65.4647932,2.97984415 65.3786,3.0586 C65.2711316,3.15765832 65.1528535,3.24430388 65.026,3.3169 C64.8825,3.4153 64.7062,3.5096 64.4971,3.608 L64.4971,3.608 Z M63.6074,3.9688 C63.2667733,4.05516063 62.9473108,4.21000928 62.6685,4.4239 C62.4623699,4.60684108 62.3309805,4.85940077 62.2995,5.1332 C62.2679235,5.28049335 62.2679235,5.43280665 62.2995,5.5801 C62.3358749,5.71742117 62.400068,5.8458074 62.4881,5.9573 C62.5806825,6.07258625 62.6948861,6.16868444 62.8243,6.2402 C62.9656461,6.31771613 63.1198135,6.36910526 63.2794,6.3919 C63.4406209,6.42221281 63.6060791,6.42221281 63.7673,6.3919 C63.9141414,6.35611225 64.0531295,6.29356759 64.1773,6.2074 C64.3019042,6.12183601 64.4090509,6.01329788 64.493,5.8876 C64.575577,5.7638216 64.6314327,5.62418228 64.657,5.4776 C64.6782689,5.35414267 64.6782689,5.22795733 64.657,5.1045 C64.6289167,4.98084479 64.5743643,4.86474605 64.4971,4.7642 C64.3954151,4.63318527 64.2784165,4.51481028 64.1486,4.4116 C64.0228667,4.26946667 63.8424667,4.12186667 63.6074,3.9688 L63.6074,3.9688 Z M64.042,3.3128 C64.2675882,3.21430129 64.4732432,3.07534517 64.6488,2.9028 C64.7802212,2.76742353 64.8649719,2.59361274 64.8907,2.4067 C64.9217721,2.21015805 64.8630905,2.01003865 64.7308,1.8614 C64.5934625,1.69621691 64.3985948,1.58925951 64.1855,1.5621 C63.9652256,1.52347116 63.738473,1.56882169 63.55,1.6892 C63.37027,1.79419476 63.2480605,1.97524585 63.2179,2.1812 C63.194804,2.32052272 63.2148315,2.46357631 63.2753,2.5912 C63.3395108,2.72657098 63.4317466,2.84675703 63.5459,2.9438 L63.7263,3.0873 L64.042,3.3128 Z M70.602,5.0799 C70.7455,5.2111 70.8562,5.3177 70.93,5.3915 C71.0038,5.4653 71.0776,5.5432 71.1514,5.6293 C71.3667054,5.85099459 71.5231514,6.12301315 71.6065,6.4206 C71.6685267,6.70648575 71.6529553,7.00375902 71.5614,7.2816 C71.4865125,7.54098769 71.3548669,7.7804706 71.176,7.9827 C71.0004449,8.17877278 70.785224,8.33529706 70.5446,8.4419 C70.286046,8.55668604 70.0074015,8.61938106 69.7246,8.6264 C69.4152685,8.63952457 69.1059861,8.59930398 68.8103,8.5075 C68.5376515,8.42829716 68.2809524,8.30202895 68.0518,8.1344 C67.8433984,7.98314384 67.6653598,7.79397786 67.527,7.5768 C67.3949218,7.37124456 67.3056745,7.14115384 67.2646,6.9003 C67.1486569,6.19607101 67.5110164,5.4997398 68.1543,5.1906 C68.301351,5.11501431 68.4568792,5.05720738 68.6176,5.0184 C68.8160726,4.97692782 69.0176848,4.95224062 69.2203,4.9446 C68.6381,4.38153333 68.4331,3.81163333 68.6053,3.2349 C68.6563871,3.04893707 68.7504862,2.87759252 68.88,2.7347 C69.0127897,2.59307743 69.1751798,2.48248419 69.3556,2.4108 C69.5503216,2.33439173 69.7573353,2.29410048 69.9665,2.2919 C70.2056649,2.29075069 70.4435605,2.32671165 70.6717,2.3985 C70.895904,2.46243261 71.1088833,2.56062437 71.3031,2.6896 C71.4707504,2.7998987 71.6178305,2.93865349 71.7377,3.0996 C71.8455488,3.24452493 71.9210479,3.41090257 71.9591,3.5875 C71.9954171,3.76605692 71.9855384,3.95093002 71.9304,4.1246 C71.8995621,4.23420494 71.8510955,4.33806193 71.7869,4.4321 C71.7173442,4.52588651 71.6328523,4.6076082 71.5368,4.674 C71.4168582,4.757278 71.2874943,4.82608859 71.1514,4.879 C71.0038,4.94186667 70.8206667,5.00883333 70.602,5.0799 L70.602,5.0799 Z M69.6672,5.3054 C69.3171982,5.3423205 68.9782923,5.44971043 68.6709,5.6211 C68.440997,5.77247779 68.2746737,6.00299605 68.2035,6.2689 C68.159097,6.41202444 68.1451311,6.56285595 68.1625,6.7117 C68.1782234,6.85636987 68.2243299,6.99608656 68.2978,7.1217 C68.3740631,7.24909448 68.4743149,7.36048532 68.593,7.4497 C68.7223768,7.5472527 68.8681782,7.62084769 69.0235,7.667 C69.1800695,7.71459768 69.3441237,7.73267145 69.5073,7.7203 C69.6624443,7.70927873 69.8140907,7.66893244 69.9542,7.6014 C70.0907891,7.53530692 70.2133057,7.44341949 70.315,7.3308 C70.4188199,7.21260983 70.4945145,7.07243474 70.5364,6.9208 C70.5747965,6.80033522 70.5914561,6.67400029 70.5856,6.5477 C70.5757026,6.42075203 70.5379032,6.29755414 70.4749,6.1869 C70.3940708,6.03840234 70.2948932,5.9006556 70.1797,5.7769 C70.0457667,5.6457 69.8749333,5.48853333 69.6672,5.3054 L69.6672,5.3054 Z M70.1838,4.7314 C70.4187098,4.66991645 70.640828,4.5671868 70.8398,4.428 C70.9879405,4.31272192 71.095621,4.15335479 71.1473,3.9729 C71.2066871,3.78158433 71.1765567,3.57368468 71.0653,3.4071 C70.9510863,3.2245618 70.7726213,3.09144448 70.5651,3.034 C70.350665,2.96564407 70.1185516,2.97878257 69.9132,3.0709 C69.5867061,3.19890348 69.4097064,3.55290275 69.5032,3.8909 C69.5474995,4.03541743 69.6230906,4.1684019 69.7246,4.2804 C69.7779,4.3419 69.8312,4.3952 69.8845,4.4485 L70.1838,4.7314 Z M29.5856,71.4958 C29.7017888,71.5377363 29.8210435,71.5706341 29.9423,71.5942 C30.0272483,71.6141162 30.1156517,71.6141162 30.2006,71.5942 C30.2840088,71.5692075 30.3600245,71.5241611 30.422,71.463 C30.5090079,71.37725 30.5898428,71.2854543 30.6639,71.1883 L33.4027,67.65 C33.4796247,67.554041 33.5495071,67.4526431 33.6118,67.3466 C33.6562382,67.271909 33.6815855,67.1874181 33.6856,67.1006 C33.6865875,67.0143135 33.6683817,66.9288865 33.6323,66.8505 C33.5786683,66.7382374 33.5170083,66.6299898 33.4478,66.5266 L35.67,68.2937 C36.0628178,68.5643443 36.3519682,68.9604805 36.49,69.4171 C36.5956834,69.8047458 36.5053703,70.2195736 36.2481,70.5282 C35.8463,71.0420667 35.2176333,71.1787333 34.3621,70.9382 C34.6848545,71.2823855 34.9086672,71.7073464 35.0099,72.1682 C35.048974,72.5565743 34.925823,72.9438323 34.6696,73.2383 C34.4950016,73.4843602 34.2569575,73.6784795 33.9808,73.8 C33.7085357,73.9072648 33.411566,73.9356829 33.1239,73.882 C32.885547,73.8340401 32.6559939,73.7496862 32.4433,73.6319 C32.15397,73.4833189 31.8794041,73.3075967 31.6233,73.1071 L29.5856,71.4958 Z M32.1481,72.5454 C32.3857643,72.7500943 32.6914828,72.8583391 33.005,72.8488 C33.2958654,72.8269537 33.5618784,72.6766638 33.7307,72.4388 C33.943337,72.1818532 34.0126547,71.8352651 33.9152,71.5163 C33.7867992,71.13476 33.5396839,70.8043152 33.21,70.5733 L32.7426,70.2084 L31.7176,71.5245 C31.6111825,71.6346315 31.5510231,71.7813618 31.5495,71.9345 C31.5840487,72.0778536 31.6739743,72.2016856 31.7996,72.2789 L32.1481,72.5454 Z M33.21,69.6098 L33.6692,69.9665 C33.8988077,70.1596334 34.1891664,70.2656143 34.4892,70.2658 C34.7685172,70.2616212 35.0296543,70.1264979 35.1944,69.9009 C35.3607716,69.70177 35.4258396,69.4369585 35.3707,69.1834 C35.3073014,68.907422 35.1455085,68.6640038 34.9156,68.4987 L34.3826,68.0887 L33.21,69.6098 Z M34.0833,75.03 C34.1906068,75.0453271 34.2988093,75.053545 34.4072,75.0546 C34.4930159,75.055036 34.5785055,75.0440051 34.6614,75.0218 C34.7464781,74.9973559 34.8278517,74.9614963 34.9033,74.9152 C35.0007971,74.8572664 35.095224,74.7943152 35.1862,74.7266 L40.2128,70.8972 L39.9012,77.5105 C39.8951475,77.5923883 39.8951475,77.6746117 39.9012,77.7565 C39.9073172,77.8229291 39.9239232,77.8879691 39.9504,77.9492 C39.9797658,78.0166568 40.0154587,78.0811786 40.057,78.1419 C40.1021,78.2116 40.1595,78.2895 40.2333,78.3756 L38.2202,77.2809 C38.4188113,77.3588243 38.6450018,77.3010384 38.7819,77.1374 C38.8269301,77.0353005 38.8506474,76.9250845 38.8516,76.8135 L39.0033,74.9029 L37.3633,74.0132 L35.7848,75.2965 C35.7232338,75.3431856 35.671651,75.4017391 35.6331,75.4687 C35.595659,75.5315482 35.5825324,75.6059327 35.5962,75.6778 C35.6216819,75.7683018 35.6664386,75.8522207 35.7274,75.9238 L34.0833,75.03 Z M39.0812,74.21 L39.2001,72.57 L37.9168,73.5745 L39.0812,74.21 Z M41,78.6257 C41.1247747,78.6257849 41.2494167,78.6175668 41.3731,78.6011 C41.4581143,78.5891936 41.5393755,78.5583704 41.6109,78.5109 C41.6828478,78.4607622 41.7407268,78.3930015 41.779,78.3141 C41.8330158,78.2039078 41.8795868,78.0902198 41.9184,77.9738 L43.3534,73.759 C43.3977218,73.6387107 43.4333467,73.5153935 43.46,73.39 C43.4810117,73.3051819 43.4810117,73.2165181 43.46,73.1317 C43.4325236,73.0484784 43.3862237,72.972715 43.3247,72.9103 C43.2380519,72.8214406 43.1448568,72.7392096 43.0459,72.6643 L45.6084,73.5376 C46.1832289,73.6949985 46.6947988,74.0274473 47.0721,74.4888 C47.3553179,74.8782736 47.420246,75.385331 47.2443,75.8336 C47.1604109,76.0739819 47.0197651,76.2905765 46.8343,76.465 C46.6501061,76.6503375 46.4256097,76.7906478 46.1783,76.875 C45.9923913,76.9406624 45.7973014,76.9766365 45.6002,76.9816 C45.360884,76.9747848 45.1230336,76.9417882 44.8909,76.8832 L45.0508,77.203 C45.0918,77.2877333 45.1300667,77.3697333 45.1656,77.449 C45.2011333,77.5282667 45.2353,77.6212 45.2681,77.7278 L45.3993,78.1378 L45.7765,79.2612 C45.8339,79.4334 45.8885667,79.5796333 45.9405,79.6999 C45.986208,79.8108614 46.0410637,79.91783 46.1045,80.0197 C46.1641155,80.112373 46.2327857,80.1988975 46.3095,80.278 C46.3995854,80.3701063 46.4954461,80.456381 46.5965,80.5363 L44.9934,79.991 C44.8868,79.7819 44.7966,79.581 44.7228,79.3965 C44.649,79.212 44.5711,78.9865 44.4891,78.6954 L44.28,77.9451 L44.1816,77.5884 C44.1528197,77.4841825 44.1186063,77.3815422 44.0791,77.2809 C44.0381,77.1825 43.9971,77.0759 43.952,76.9693 L43.788,76.5962 L43.5625,76.5183 L42.9475,78.3264 C42.9064284,78.4414665 42.8735463,78.5592938 42.8491,78.679 C42.8272277,78.7637109 42.8272277,78.8525891 42.8491,78.9373 C42.8763029,79.020648 42.9226391,79.0964708 42.9844,79.1587 C43.0713032,79.2472909 43.1644779,79.3295039 43.2632,79.4047 L41,78.6257 Z M44.28,76.0386 C44.5162691,76.1271276 44.7629129,76.1849994 45.0139,76.2108 C45.1914535,76.2265385 45.3699579,76.1939543 45.5305,76.1165 C45.7785584,76.0154337 45.9691887,75.8097931 46.0512,75.5548 C46.166436,75.2519867 46.1217607,74.9115304 45.9323,74.6487 C45.6861424,74.3370035 45.3473052,74.1115906 44.9647,74.005 L44.4727,73.8369 L43.7798,75.8869 L44.28,76.0386 Z M56.8588,78.5396 C56.7694436,78.4942604 56.67612,78.4572054 56.58,78.4289 C56.4834679,78.402784 56.3845842,78.3863034 56.2848,78.3797 L55.8297,78.3797 C55.9840071,78.5396278 56.106454,78.7274724 56.1905,78.9332 C56.2566808,79.1310228 56.2790643,79.3408684 56.2561,79.5482 C56.2324889,79.8696089 56.1281323,80.1798583 55.9527,80.4502 C55.7731067,80.7240436 55.5368161,80.9561398 55.2598,81.1308 C54.9531248,81.3253999 54.6144382,81.4642059 54.2594,81.5408 C53.8556333,81.6284956 53.4407558,81.6533882 53.0294,81.6146 C52.6604002,81.5883011 52.2978683,81.5038948 51.9552,81.3645 C51.6521739,81.2465455 51.3740133,81.0726951 51.1352,80.852 C50.922752,80.6491951 50.756363,80.4031072 50.6473,80.1304 C50.5367937,79.8476615 50.494649,79.5428151 50.5243,79.2407 C50.5388816,78.8976341 50.6607774,78.5677986 50.8728,78.2977 C51.1400021,78.0201448 51.4727522,77.8142909 51.8404,77.6991 C51.5399121,77.3963837 51.3896618,76.9756828 51.4304,76.5511 C51.4514022,76.1141896 51.6941933,75.718301 52.0741,75.5015 C52.5569289,75.2510687 53.1059827,75.1578872 53.6444,75.235 C53.7838,75.235 53.9109,75.2637 54.0339,75.2842 L54.4808,75.3662 L54.3947,76.3994 C54.3060917,76.2618941 54.1867997,76.1468124 54.0462,76.0632 C53.9038885,75.9887236 53.7473524,75.9453966 53.587,75.9361 C53.4489818,75.9251964 53.3101261,75.939082 53.177,75.9771 C53.0502603,76.0141308 52.9319075,76.0753957 52.8285,76.1575 C52.7264948,76.2384575 52.6414991,76.3387804 52.5784,76.4527 C52.513428,76.5701793 52.4742888,76.7001773 52.4636,76.834 C52.4388984,77.052269 52.4864247,77.2726181 52.5989,77.4613 C52.7440015,77.6715776 52.9382178,77.843276 53.1647,77.9615 C52.2299,78.0981667 51.7338,78.5081667 51.6764,79.1915 C51.6596422,79.3775874 51.6892224,79.5649287 51.7625,79.7368 C51.8359177,79.9070663 51.9433478,80.0605378 52.0782,80.1878 C52.2286388,80.3271104 52.4038668,80.4369755 52.5948,80.5117 C52.812511,80.5976604 53.0419743,80.6501882 53.2754,80.6675 C53.5086601,80.6891637 53.7438769,80.6739438 53.9724,80.6224 C54.1748646,80.5769334 54.3668614,80.4934565 54.5382,80.3764 C54.7029714,80.2710697 54.8428697,80.1311714 54.9482,79.9664 C55.0503161,79.7986224 55.1107686,79.6088298 55.1245,79.4129 C55.1389579,79.2748674 55.1250048,79.1353363 55.0835,79.0029 C55.0472216,78.8828926 54.9872761,78.7713661 54.9072,78.6749 C54.8261829,78.5789181 54.7273256,78.4995538 54.6161,78.4412 C54.5016284,78.3809446 54.3760691,78.3446719 54.2471,78.3346 C54.1433458,78.327764 54.0392542,78.327764 53.9355,78.3346 C53.9601,78.228 53.9765,78.1337 53.9888,78.0517 C54.0011,77.9697 54.0134,77.9 54.0175,77.8426 C54.0216,77.7852 54.0175,77.7237 54.0175,77.6417 L54.0175,77.3547 C54.1446,77.4039 54.2594,77.4449 54.3619,77.4736 C54.4644,77.5023 54.5669,77.531 54.6694,77.5515 L54.9933,77.6048 C55.1081,77.6048 55.2393,77.6335 55.4033,77.6458 L55.8133,77.6745 L56.17,77.6745 C56.2848,77.6745 56.4037,77.6745 56.5226,77.6499 C56.6415,77.6253 56.7768,77.6171 56.9326,77.5925 L56.8916,78.0763 L56.8588,78.5396 Z M61.09,81.59 C61.1995821,81.5331785 61.305071,81.4687892 61.4057,81.3973 C61.4754154,81.3464203 61.5328538,81.2805763 61.5738,81.2046 C61.611756,81.1268479 61.6300575,81.0409714 61.6271,80.9545 C61.6231942,80.8321636 61.610865,80.7102416 61.5902,80.5896 L60.8932,76.1903 C60.8761048,76.0696345 60.8500664,75.9504062 60.8153,75.8336 C60.7906202,75.7500545 60.7455312,75.6739668 60.6841,75.6122 C60.6211816,75.5522729 60.5454791,75.5074121 60.4627,75.481 C60.3447183,75.4434521 60.2241233,75.4146738 60.1019,75.3949 L62.771,74.9849 C63.3517069,74.857269 63.957719,74.9131425 64.5053,75.1448 C64.9377805,75.3577074 65.2315713,75.7767459 65.2843,76.2559 C65.3241201,76.5043253 65.3044483,76.7586529 65.2269,76.998 C65.1421172,77.2439062 65.0018226,77.4669748 64.8169,77.6499 C64.682328,77.7948274 64.5260251,77.9179332 64.3536,78.0148 C64.139289,78.1204919 63.913726,78.2016396 63.6812,78.2567 L63.9723,78.4658 L64.1855,78.6298 C64.2511,78.6872 64.329,78.7528 64.4069,78.8266 L64.7103,79.1218 L65.5631,79.9418 C65.6943,80.0689 65.8132,80.1714 65.9116,80.2534 C66.0039587,80.3300466 66.1027206,80.3986312 66.2068,80.4584 C66.3017876,80.5134022 66.402057,80.5587295 66.5061,80.5937 C66.6283056,80.6331373 66.7529319,80.6646362 66.8792,80.688 L65.2064,80.9545 C65.0178,80.8205667 64.8456,80.6839 64.6898,80.5445 C64.5035062,80.3828717 64.3256069,80.2118147 64.1568,80.032 L63.6361,79.4662 L63.3819,79.1956 C63.3081,79.1136 63.2302,79.0398 63.1482,78.9701 L62.8899,78.7528 L62.5701,78.4986 L62.3364,78.5355 L62.6357,80.4256 C62.6532446,80.5475319 62.6792744,80.6680913 62.7136,80.7864 C62.738745,80.8697419 62.7837708,80.9457229 62.8448,81.0078 C62.9074518,81.0680783 62.9832408,81.1129904 63.0662,81.139 C63.1841284,81.1767392 63.3047379,81.205521 63.427,81.2251 L61.09,81.59 Z M62.7833,77.7688 C63.0324249,77.7357619 63.2763026,77.6710034 63.509,77.5761 C63.6724634,77.5072318 63.814168,77.3952851 63.919,77.2522 C64.0901423,77.0472175 64.162152,76.777181 64.1158,76.5142 C64.0765726,76.194405 63.8794442,75.9156533 63.591,75.7721 C63.2296087,75.6101126 62.825757,75.568434 62.4389,75.6532 L61.9264,75.7352 L62.2626,77.8549 L62.7833,77.7688 Z M67.5516,80.4297 C67.6514743,80.357312 67.7460178,80.2778407 67.8345,80.1919 C67.8968644,80.1309917 67.9445368,80.0566789 67.9739,79.9746 C67.9952475,79.8898232 67.9952475,79.8010768 67.9739,79.7163 C67.9519608,79.5954913 67.9218245,79.4763159 67.8837,79.3596 L66.543,75.1161 C66.5071683,74.9984435 66.4633327,74.8833751 66.4118,74.7717 C66.3759572,74.6925263 66.3210127,74.6234936 66.2519,74.5708 C66.181173,74.5202974 66.0998326,74.4866393 66.0141,74.4724 C65.8921172,74.4520665 65.7687568,74.4411011 65.6451,74.4396 L69.1465,73.3326 C69.2681326,73.3014516 69.381481,73.2440777 69.4786,73.1645 C69.5626697,73.068897 69.6292829,72.9592627 69.6754,72.8406 L70.1879,74.4806 C70.0976782,74.3699194 69.9928553,74.2719927 69.8763,74.1895 C69.7790967,74.1211249 69.6709472,74.0698232 69.5565,74.0378 C69.4401919,74.007321 69.319191,73.9989761 69.1998,74.0132 C69.0507086,74.0316208 68.903776,74.0645776 68.7611,74.1116 L67.4122,74.5216 L67.9985,76.3789 L69.1916,76.0017 C69.4285727,75.9401302 69.649512,75.8282622 69.8394,75.6737 C69.976846,75.5317212 70.0645937,75.3490333 70.0895,75.153 L70.6389,76.8832 C70.5794561,76.8154463 70.5135439,76.7536536 70.4421,76.6987 C70.3851751,76.6610717 70.3230041,76.6320586 70.2576,76.6126 C70.2137891,76.5959852 70.16848,76.5836281 70.1223,76.5757 C70.0720133,76.5681747 70.0208867,76.5681747 69.9706,76.5757 C69.9000693,76.5865841 69.8302466,76.6016439 69.7615,76.6208 L69.4417,76.7151 L68.2117,77.0964 L68.6791,78.5765 C68.7142922,78.7528708 68.8064923,78.9127804 68.9415,79.0316 C69.0901338,79.0984279 69.2602662,79.0984279 69.4089,79.0316 L70.3109,78.7446 C70.627551,78.6600333 70.9125737,78.4847443 71.1309,78.2403 C71.3193275,77.975651 71.4210332,77.6590739 71.422,77.3342 C71.4548,77.5597 71.4876,77.7442 71.5122,77.8918 C71.5368,78.0394 71.5614,78.1706 71.5819,78.3018 C71.6024,78.433 71.6311,78.5355 71.6598,78.6544 C71.6885,78.7733 71.7254,78.9086 71.7705,79.0644 L67.5516,80.4297 Z M72.7012,77.1661 C73.0194185,77.2832727 73.3544559,77.3483419 73.6934,77.3588 C73.9864898,77.3655942 74.2771135,77.3038191 74.5421,77.1784 C74.6825689,77.1107476 74.8102035,77.0191836 74.9193,76.9078 C75.0231431,76.8024122 75.106552,76.678689 75.1653,76.5429 C75.2214542,76.4131213 75.2534128,76.2741711 75.2596,76.1329 C75.2681546,75.9914437 75.2399028,75.8501848 75.1776,75.7229 C74.989,75.3129 74.538,75.1079 73.8164,75.0505 L72.9964,74.9849 C72.1764,74.9220333 71.6297333,74.6049667 71.3564,74.0337 C71.2605354,73.8387219 71.2127369,73.6236287 71.217,73.4064 C71.2230875,73.1880248 71.2777084,72.9737428 71.3769,72.7791 C71.480181,72.5684269 71.6188617,72.3770476 71.7869,72.2133 C71.9861052,72.0276846 72.2129451,71.8741528 72.4593,71.7582 L72.6356,71.6803 L72.7996,71.6229 L73.0374,71.5614 L73.4474,71.4753 C73.5092337,71.4638986 73.5696987,71.446034 73.6278,71.422 C73.7275893,71.3615507 73.8019277,71.2668057 73.8369,71.1555 L74.5503,72.4757 C74.4445693,72.4009951 74.3319999,72.3364735 74.2141,72.283 C74.120387,72.2470378 74.0245369,72.2169134 73.9271,72.1928 C73.727528,72.1601324 73.523972,72.1601324 73.3244,72.1928 C73.119636,72.2181532 72.9202869,72.2762967 72.734,72.365 C72.5026153,72.4678743 72.3152092,72.6494694 72.2051,72.8775 C72.104895,73.0774832 72.104895,73.3130168 72.2051,73.513 C72.2650876,73.6506559 72.3749441,73.7605124 72.5126,73.8205 C72.7296406,73.8949197 72.9559032,73.9390684 73.185,73.9517 L74.1895,74.0542 C74.5874822,74.0841456 74.9739132,74.201755 75.3211,74.3986 C75.6257633,74.5751708 75.8700998,74.8395115 76.0222,75.1571 C76.139223,75.3983001 76.1968596,75.663991 76.1903,75.932 C76.1852094,76.1983287 76.1251901,76.4607387 76.014,76.7028 C75.8939741,76.9597922 75.7287106,77.1931053 75.5261,77.3916 C75.30202,77.613693 75.041251,77.795399 74.7553,77.9287 L74.4724,78.0517 C74.3763054,78.0899395 74.2776673,78.1214489 74.1772,78.146 L73.7959,78.2321 L73.2629,78.3346 L72.7012,77.1661 Z M79.6302,75.0915 C79.7049094,74.9928347 79.7720668,74.8886723 79.8311,74.7799 C79.8722746,74.7040777 79.896082,74.6200517 79.9008,74.5339 C79.9008872,74.4467793 79.8797804,74.360945 79.8393,74.2838 C79.7825472,74.1754894 79.7181509,74.0713592 79.6466,73.9722 L76.9775,70.11 L76.0878,70.725 C75.8257361,70.8751703 75.6035723,71.0860853 75.44,71.34 C75.338933,71.5720229 75.3258158,71.8329097 75.4031,72.0739 L74.4519,70.7004 C74.5337738,70.7068329 74.6160262,70.7068329 74.6979,70.7004 C74.7662194,70.6901226 74.8334628,70.6736548 74.8988,70.6512 C74.9701459,70.6267786 75.0388307,70.5951835 75.1038,70.5569 C75.1735,70.5159 75.2637,70.4585 75.3662,70.3888 L78.6708,68.101 C78.8284171,67.9970748 78.972956,67.8745609 79.1013,67.7361 C79.1934948,67.6251771 79.2593754,67.4948175 79.294,67.3548 L80.2452,68.7283 C80.0333657,68.5873674 79.781793,68.5183646 79.5277,68.5315 C79.2489227,68.5705335 78.9848854,68.6806667 78.761,68.8513 L77.818,69.5032 L80.4912,73.3613 C80.5595969,73.4633935 80.6349417,73.5606568 80.7167,73.6524 C80.7748879,73.7170343 80.8481162,73.7663226 80.9299,73.7959 C81.0130822,73.8232881 81.1013433,73.8316939 81.1882,73.8205 C81.310318,73.8020685 81.4309114,73.7746609 81.549,73.7385 L79.6302,75.0915 Z M83.1398,72.7012 C83.1882589,72.6032531 83.2293721,72.5018405 83.2628,72.3978 C83.2889785,72.3154265 83.3041435,72.2299516 83.3079,72.1436 C83.3104168,72.0552309 83.3007595,71.9669358 83.2792,71.8812 C83.2518464,71.7716532 83.219005,71.6635502 83.1808,71.5573 L81.0283,65.6164 L87.2398,67.8919 C87.3172637,67.9219722 87.3967213,67.9466314 87.4776,67.9657 C87.542802,67.975919 87.609198,67.975919 87.6744,67.9657 C87.7480444,67.9572454 87.8207737,67.9421506 87.8917,67.9206 C87.9696,67.9001 88.0598,67.8673 88.1664,67.8263 L86.5264,69.4171 C86.6622709,69.2506185 86.6755121,69.015589 86.5592,68.8349 C86.4744503,68.7608345 86.3753603,68.7050091 86.2681,68.6709 L84.4846,67.9493 L83.1439,69.2449 L83.9024,71.1391 C83.9285567,71.2119518 83.9689782,71.2788563 84.0213,71.3359 C84.0702309,71.3903866 84.137218,71.4253364 84.2099,71.4343 C84.3039446,71.4379214 84.3976583,71.4211368 84.4846,71.3851 L83.1398,72.7012 Z M83.8368,67.6869 L82.3116,67.0801 L82.8856,68.6053 L83.8368,67.6869 Z M86.92,60.3602 C86.8210482,60.2871232 86.7169061,60.2213493 86.6084,60.1634 C86.5316274,60.1219453 86.4455425,60.1007768 86.3583,60.1019 C86.270945,60.103869 86.1852753,60.1263397 86.1082,60.1675 C85.9981889,60.2251051 85.8926588,60.2908901 85.7925,60.3643 L87.0676,58.5726 C87.0311572,58.6906133 87.0037447,58.811228 86.9856,58.9334 C86.9666018,59.0170684 86.9666018,59.1039316 86.9856,59.1876 C87.0150244,59.2694614 87.0643363,59.3427247 87.1291,59.4008 C87.2192204,59.4840197 87.3151275,59.5607454 87.4161,59.6304 L89.7613,61.2991 C90.1017254,61.5236864 90.4047248,61.8003981 90.6592,62.1191 C90.8495419,62.3736895 90.9658843,62.6758961 90.9954,62.9924 C91.024696,63.3311129 90.9755938,63.6720227 90.8519,63.9887 C90.6994664,64.3968139 90.4911108,64.7817888 90.2328,65.1326 C90.0074972,65.4641512 89.7306758,65.7575818 89.4128,66.0018 C89.15396,66.2006672 88.8495474,66.3317338 88.5272,66.3831 C88.249948,66.4207875 87.9676639,66.3869134 87.7072,66.2847 C87.3475677,66.1413033 87.0084383,65.95106 86.6986,65.7189 L84.2878,64.0051 C84.1888564,63.9320112 84.0847134,63.8662367 83.9762,63.8083 C83.8991744,63.7675052 83.8132606,63.7463788 83.7261,63.7468 C83.6388292,63.7493613 83.5532927,63.7717972 83.476,63.8124 C83.366042,63.8700979 83.2605187,63.9358786 83.1603,64.0092 L84.5297,62.0822 C84.4925773,62.2002995 84.4638064,62.3208636 84.4436,62.443 C84.4241187,62.527998 84.4241187,62.616302 84.4436,62.7013 C84.4730244,62.7831614 84.5223363,62.8564247 84.5871,62.9145 C84.6772204,62.9977197 84.7731275,63.0744454 84.8741,63.1441 L87.3956,64.9358 C87.6083959,65.1054294 87.8445217,65.2435146 88.0967,65.3458 C88.286475,65.403519 88.489125,65.403519 88.6789,65.3458 C88.8711675,65.2879672 89.0497022,65.1917258 89.2037,65.0629 C89.3933587,64.9079353 89.5603512,64.7271418 89.6998,64.5258 C89.8925114,64.2629489 90.0318064,63.9648576 90.1098,63.6484 C90.1765017,63.3975733 90.1621505,63.1320752 90.0688,62.8899 C89.8876044,62.543439 89.6154648,62.2528732 89.2816,62.0494 L86.92,60.3602 Z M92.7379,61.09 C92.7472355,60.9658085 92.7472355,60.8410915 92.7379,60.7169 C92.7340343,60.6306082 92.7101738,60.5463945 92.6682,60.4709 C92.6239529,60.3956542 92.5620326,60.3323267 92.4878,60.2864 C92.3825485,60.2227361 92.272944,60.1665638 92.1598,60.1183 L88.1049,58.2815 C87.9933758,58.2296092 87.878282,58.185764 87.7605,58.1503 C87.6757891,58.1284277 87.5869109,58.1284277 87.5022,58.1503 C87.4180304,58.1708764 87.3395628,58.2101102 87.2726,58.2651 C87.1761966,58.3429776 87.085745,58.4279473 87.002,58.5193 L88.1172,56.0593 C88.3288948,55.5024689 88.7086154,55.0253107 89.2037,54.694 C89.6192947,54.4491727 90.1311836,54.4337078 90.5608,54.653 C90.7907062,54.7560672 90.9930031,54.9120044 91.1512,55.1081 C91.3124426,55.3107205 91.4246947,55.547853 91.4792,55.801 C91.5260371,55.9926779 91.5426373,56.190497 91.5284,56.3873 C91.4997609,56.6249981 91.4447556,56.8587705 91.3644,57.0843 L91.6965,56.9531 L91.9548,56.8629 C92.0409,56.8342 92.1352,56.8096 92.2418,56.7891 L92.6518,56.6948 L93.8039,56.4283 C93.9802,56.3873 94.1319,56.3463 94.2549,56.3053 C94.3704757,56.2694631 94.482919,56.2242116 94.5911,56.17 C94.6893992,56.1201818 94.7827507,56.0611506 94.8699,55.9937 C94.9696431,55.9122912 95.064132,55.8246492 95.1528,55.7313 L94.4517,57.277 C94.2344,57.3631 94.0417,57.4328 93.8367,57.4902 C93.6317,57.5476 93.4021,57.6009 93.1192,57.6542 L92.3607,57.7772 L91.9958,57.8428 C91.8892,57.8428 91.7826,57.8879 91.6801,57.9166 L91.3562,58.015 L90.9667,58.1421 L90.8683,58.3594 L92.6067,59.1466 C92.7183349,59.1982283 92.83341,59.2420664 92.9511,59.2778 C93.0358554,59.2993196 93.1246446,59.2993196 93.2094,59.2778 C93.2946135,59.2588855 93.3744834,59.2210524 93.4431,59.1671 C93.5394536,59.0891653 93.6299011,59.0041994 93.7137,58.9129 L92.7379,61.09 Z M90.4829,57.5763 C90.5935434,57.3497547 90.6748329,57.1100194 90.7248,56.8629 C90.7571852,56.6884512 90.7415974,56.5084826 90.6797,56.3422 C90.6035303,56.085057 90.417362,55.8748669 90.1713,55.7682 C89.8806085,55.6237592 89.536594,55.6361005 89.257,55.801 C88.9227051,56.0160104 88.6656329,56.3319651 88.5231,56.703 L88.3099,57.1786 L90.2656,58.0642 L90.4829,57.5763 Z M95.2635,55.5058 C95.2520672,55.3979605 95.2328842,55.2910841 95.2061,55.186 C95.1884818,55.100532 95.1595257,55.0178004 95.12,54.94 C95.0745367,54.8647865 95.0193993,54.7958647 94.956,54.735 C94.8904,54.6694 94.8043,54.5956 94.7018,54.5136 L89.6875,50.6637 L96.1532,49.2328 C96.2339105,49.216552 96.3133744,49.1946309 96.391,49.1672 C96.453196,49.1436142 96.5113035,49.11041 96.5632,49.0688 C96.6199247,49.0218898 96.6720898,48.9697247 96.719,48.913 C96.7723,48.8515 96.8338,48.7736 96.8994,48.6834 L96.35,50.922 C96.373411,50.7084905 96.2578993,50.5038698 96.063,50.4136 C95.9535332,50.3902325 95.8403668,50.3902325 95.7309,50.4136 L93.8408,50.7662 L93.4103,52.5784 L95.0503,53.7674 C95.1113934,53.8144519 95.1810025,53.8492564 95.2553,53.8699 C95.3240266,53.8956916 95.3997734,53.8956916 95.4685,53.8699 C95.5500451,53.821354 95.6200076,53.7555893 95.6735,53.6772 L95.2635,55.5058 Z M93.1438,50.9015 L91.5325,51.2131 L92.8404,52.1848 L93.1438,50.9015 Z M92.0368,46.33 L96.0835,46.3997 C96.2049841,46.4082209 96.3269159,46.4082209 96.4484,46.3997 C96.5354093,46.3907681 96.6186848,46.3597162 96.6903,46.3095 C96.7605044,46.2591559 96.8180509,46.193188 96.8584,46.1168 C96.915888,46.0071443 96.9652215,45.8934032 97.006,45.7765 L96.9609,47.9003 C96.9244713,47.7809504 96.8792474,47.6644647 96.8256,47.5518 C96.788154,47.4736182 96.7334864,47.4049333 96.6657,47.3509 C96.5958289,47.2988715 96.5141051,47.2650547 96.4279,47.2525 C96.307024,47.2349741 96.1851296,47.2253869 96.063,47.2238 L91.8851,47.15 C91.734189,47.1447393 91.5831268,47.1543523 91.4341,47.1787 C91.3186051,47.1961625 91.2081738,47.2380985 91.1102,47.3017 C91.01642,47.3686694 90.936965,47.4537002 90.8765,47.5518 C90.799626,47.6815779 90.7364211,47.8189798 90.6879,47.9618 L90.7166,46.3218 L95.0626,42.0455 L91.7416,41.9881 C91.6050625,41.9796973 91.4681375,41.9796973 91.3316,41.9881 C91.2423219,41.9958534 91.1556931,42.022401 91.0774,42.066 C91.0082917,42.1089939 90.9506164,42.1680759 90.9093,42.2382 C90.8551272,42.3368504 90.8124803,42.441404 90.7822,42.5498 L90.8191,40.5408 C90.8455703,40.6505316 90.8855066,40.7565693 90.938,40.8565 C90.9755157,40.9289626 91.030465,40.9909568 91.0979,41.0369 C91.1752581,41.0846946 91.2619182,41.115445 91.3521,41.1271 C91.4880168,41.1453809 91.6249619,41.154967 91.7621,41.1558 L97.252,41.2501 L92.0368,46.33 Z M96.4074,36.9738 C96.3438022,36.8676191 96.2725466,36.7662169 96.1942,36.6704 C96.138647,36.6035078 96.0685241,36.5502144 95.9892,36.5146 C95.9088314,36.4814333 95.8214818,36.4687535 95.735,36.4777 C95.6134591,36.4898558 95.4929047,36.5104049 95.3742,36.5392 L90.7904,37.5806 L91.02,38.6343 C91.0688544,38.9315888 91.1883705,39.2128031 91.3685,39.4543 C91.5464398,39.6346886 91.7840426,39.744015 92.0368,39.7618 L90.4214,40.1267 C90.4540364,40.0511842 90.4800996,39.9729945 90.4993,39.893 C90.5154943,39.8257595 90.5251063,39.7571026 90.528,39.688 C90.5352956,39.6130104 90.5352956,39.5374896 90.528,39.4625 C90.528,39.3805 90.4952,39.278 90.4665,39.155 L89.5768,35.2313 C89.5406867,35.0461267 89.4828886,34.8658515 89.4046,34.6942 C89.3388534,34.5667501 89.2449044,34.4559743 89.1299,34.3703 L90.7453,34.0054 C90.5350663,34.1500357 90.3769429,34.3584712 90.2943,34.5999 C90.2248642,34.8688236 90.2248642,35.1509764 90.2943,35.4199 L90.5485,36.5351 L95.12,35.506 C95.2398094,35.4802146 95.3576385,35.4459619 95.4726,35.4035 C95.5545401,35.3742312 95.6278392,35.3248952 95.6858,35.26 C95.7412762,35.1933539 95.7805689,35.1147686 95.8006,35.0304 C95.8303713,34.9105121 95.8509312,34.7885231 95.8621,34.6655 L96.4074,36.9738 Z M27.6545,11.726 L28.2818,13.2676 L29.9423,13.3865 L28.6672,14.4607 L29.069,16.0761 L27.6545,15.1946 L26.2441,16.0761 L26.6459,14.4607 L25.3708,13.3865 L27.0313,13.2676 L27.6545,11.726 L27.6545,11.726 Z M76.7889,5.2029 L77.4121,6.7445 L79.0726,6.8634 L77.7975,7.9376 L78.1993,9.553 L76.7889,8.6715 L75.3744,9.553 L75.7721,7.9376 L74.5011,6.8634 L76.1616,6.7445 L76.7889,5.2029 L76.7889,5.2029 Z" id="Shape" fill="#000000" fill-rule="nonzero"></path>
            </g>
        </g>
    </g>
</svg>