<?xml version="1.0" encoding="UTF-8"?>
<svg width="116px" height="23px" viewBox="0 0 116 23" version="1.1" xmlns="http://www.w3.org/2000/svg" xmlns:xlink="http://www.w3.org/1999/xlink">
    <!-- Generator: Sketch 42 (36781) - http://www.bohemiancoding.com/sketch -->
    <title>Shape</title>
    <desc>Created with Sketch.</desc>
    <defs></defs>
    <g id="Page-1" stroke="none" stroke-width="1" fill="none" fill-rule="evenodd">
        <g id="Desktop-HD-Copy-4" transform="translate(-387.000000, -594.000000)" fill-rule="nonzero" fill="#000000">
            <path d="M497.116825,603.295644 C497.122375,603.295644 495.153773,602.916355 495.153773,602.916355 C492.503376,602.43438 489.498668,601.887649 489.498668,600.48243 C489.498668,599.563811 490.366407,599.137342 492.227698,599.137342 C493.078785,599.137342 493.793884,599.306634 494.29251,599.627642 C494.827215,599.970853 495.077916,600.487981 495.077916,601.254884 L495.077916,601.497259 L501.960622,601.497259 L501.948596,601.243783 C501.743225,596.619234 498.296321,594.175133 491.983473,594.175133 C488.463487,594.175133 484.768658,595.132606 483.063708,597.613711 L483.081285,594.706137 L476.826718,594.706137 L476.745309,607.977549 C476.736984,609.307836 476.514036,610.141346 476.042237,610.607594 C475.596341,611.049789 474.803535,611.260711 473.623114,611.25331 C471.052275,611.233883 470.558274,610.02756 470.569376,607.94147 L470.650784,594.734815 L464.394367,594.721864 L464.387891,595.690438 L464.368464,598.842237 C463.214871,595.779247 459.982589,594.176058 454.866814,594.176058 C450.679835,594.176058 446.242154,595.530397 445.207898,599.196548 C444.032102,595.845854 441.043121,594.028043 436.497204,594.00029 C431.373103,593.969762 428.12417,596.351881 427.29991,600.612868 C426.772606,599.36584 426.065834,598.260352 425.186069,597.339883 C423.208216,595.26952 420.415354,594.176058 417.109065,594.176058 C412.750017,594.176058 409.025585,596.402761 407.030155,599.775657 C406.206821,596.106731 402.866303,594.176058 397.259303,594.176058 C392.479337,594.176058 387.372813,595.939289 387.372813,600.888547 C387.372813,605.916438 391.418253,606.763825 395.331405,607.585309 L397.702423,608.113538 C398.907822,608.380891 400.558191,608.750003 400.558191,610.044211 C400.558191,611.620573 398.586814,612.036866 397.545157,612.036866 C396.587684,612.036866 395.706068,611.786165 395.126959,611.35137 C394.434063,610.828692 394.083452,610.096942 394.083452,609.185723 L394.083452,608.943348 L387,608.943348 L387.007401,609.194049 C387.242375,615.984246 393.736541,616.999075 397.585861,616.999075 C401.587822,616.999075 405.804405,615.698391 407.348388,612.263514 C409.340117,615.256196 412.815699,616.999075 417.273732,616.999075 C421.765067,616.999075 425.2462,615.245095 427.030708,612.199682 L427.00758,616.035126 L433.263072,616.018474 L433.343556,602.837722 C433.351881,601.50836 433.573904,600.673 434.044778,600.208602 C434.492524,599.765481 435.28348,599.555485 436.464826,599.562886 C437.563839,599.568436 438.35572,599.812661 438.819193,600.280759 C439.303942,600.771985 439.527815,601.597169 439.519489,602.876576 L439.438081,616.056403 L445.694498,616.036976 L445.712075,613.089624 C447.769486,616.400538 452.253421,617 455.198923,617 C459.280442,617 463.591385,615.644736 465.053035,612.048892 C465.419372,612.928657 465.920774,613.705737 466.563715,614.359779 C468.157653,615.969444 470.521271,616.799254 473.590736,616.816831 C477.956259,616.842734 480.959117,615.114657 482.263501,611.965633 C483.925896,616.275651 489.059248,616.9963 492.309106,616.9963 C497.324971,616.9963 502.684046,614.954615 502.684046,609.225502 C502.684046,607.006199 501.226096,604.117128 497.116825,603.295644 L497.116825,603.295644 Z M420.943583,603.167981 L412.936887,603.167981 C413.417011,600.77106 414.952668,599.340863 417.11184,599.340863 C419.117446,599.340863 420.71786,600.97088 420.943583,603.167981 L420.943583,603.167981 Z M402.39543,603.295644 C402.39913,603.295644 400.431453,602.916355 400.431453,602.916355 C397.781056,602.43438 394.776348,601.887649 394.776348,600.48243 C394.776348,599.563811 395.644087,599.137342 397.505378,599.137342 C398.35739,599.137342 399.071564,599.306634 399.57204,599.627642 C400.10767,599.970853 400.356521,600.487981 400.356521,601.254884 L400.356521,601.497259 L406.204046,601.497259 C405.835858,602.468609 405.601809,603.506565 405.513925,604.592627 C404.711868,604.013517 403.684087,603.55282 402.39543,603.295644 L402.39543,603.295644 Z M421.140628,609.515057 L421.079572,609.664922 C420.515264,610.999834 419.087843,611.835195 417.35514,611.835195 C414.754698,611.835195 413.11543,610.222755 412.905433,607.518702 L427.058461,607.518702 L427.046434,609.515057 L421.140628,609.515057 Z M460.005717,603.295644 C460.009417,603.295644 458.040815,602.916355 458.040815,602.916355 C455.392268,602.43438 452.38756,601.887649 452.38756,600.48243 C452.38756,599.563811 453.255299,599.137342 455.11474,599.137342 C455.966752,599.137342 456.681851,599.306634 457.180477,599.627642 C457.717032,599.970853 457.965882,600.487981 457.965882,601.254884 L457.965882,601.497259 L464.353663,601.497259 L464.32776,605.736044 C463.44892,604.632406 462.059427,603.705461 460.005717,603.295644 L460.005717,603.295644 Z M452.941692,607.586234 L455.313635,608.117238 C456.517184,608.382741 458.168478,608.750003 458.168478,610.045136 C458.168478,611.623348 456.197101,612.038716 455.154519,612.038716 C454.198896,612.038716 453.31728,611.788015 452.737246,611.355071 C452.045275,610.829617 451.694664,610.097867 451.694664,609.187573 L451.694664,608.945198 L445.737977,608.945198 L445.766655,604.075499 C447.12932,606.354933 450.068347,606.981222 452.941692,607.586234 L452.941692,607.586234 Z M483.023004,604.300297 C484.440249,606.394712 487.275665,606.999724 490.05465,607.585309 L492.425668,608.116313 C493.630142,608.381816 495.279586,608.747228 495.279586,610.041436 C495.279586,611.622423 493.309134,612.037791 492.266552,612.037791 C491.310004,612.037791 490.427463,611.78709 489.847429,611.354146 C489.155458,610.828692 488.805772,610.096942 488.805772,609.186648 L488.805772,608.944273 L482.957322,608.944273 C482.979524,608.639917 482.997101,608.332786 482.998951,608.012703 L483.023004,604.300297 Z" id="Shape"></path>
        </g>
    </g>
</svg>