<?xml version="1.0" encoding="UTF-8"?>
<svg width="89px" height="58px" viewBox="0 0 89 58" version="1.1" xmlns="http://www.w3.org/2000/svg" xmlns:xlink="http://www.w3.org/1999/xlink">
    <!-- Generator: Sketch 42 (36781) - http://www.bohemiancoding.com/sketch -->
    <title>Group 10</title>
    <desc>Created with Sketch.</desc>
    <defs></defs>
    <g id="Page-1" stroke="none" stroke-width="1" fill="none" fill-rule="evenodd">
        <g id="Desktop-HD-Copy-4" transform="translate(-676.000000, -573.000000)" fill-rule="nonzero" fill="#000000">
            <g id="Group-10" transform="translate(676.000000, 573.000000)">
                <path d="M18.0222469,45.4841728 C9.65449383,45.4841728 1.57316049,40.9071852 0,32.8258519 L7.43760494,30.3941481 C8.08061728,34.1841975 11.8713827,38.2606667 18.0931358,38.2606667 C23.099037,38.2606667 26.6033827,36.1869877 26.6033827,32.3969383 C26.6033827,29.1790123 23.8859753,27.391037 21.024642,26.8905185 L12.586,25.4598519 C6.57834568,24.5304198 1.42923457,20.8821481 1.42923457,13.4452593 C1.43066667,5.43481481 8.93987654,0 17.3069136,0 C26.1751852,0 31.6816049,4.2905679 33.8268889,10.6555309 L26.9614074,13.7302469 C25.7455556,9.43896296 22.098716,7.0788642 17.2353086,7.0788642 C13.3736543,7.0788642 9.44039506,9.01004938 9.44039506,13.0149136 C9.44039506,15.660716 11.4424691,17.3061975 14.0173827,17.7351111 L22.3128148,19.0934568 C28.8918765,20.1668148 34.756321,24.6714815 34.756321,32.1090864 C34.6854321,38.6186914 29.6079259,45.4841728 18.0222469,45.4841728 Z" id="Shape"></path>
                <polygon id="Shape" points="37.4737284 44.6249136 37.4737284 12.5151111 45.269358 12.5151111 45.269358 44.6249136 37.4737284 44.6249136"></polygon>
                <path d="M52.9926667,34.6138272 C55.9248889,34.6138272 58.2133827,36.9739259 58.2133827,39.8345432 C58.2133827,42.7667654 55.9972099,45.0552593 52.9926667,45.0552593 C50.0604444,45.0552593 47.7719506,42.8376543 47.7719506,39.8345432 C47.7719506,36.9739259 50.0604444,34.6138272 52.9926667,34.6138272 Z" id="Shape"></path>
                <path d="M4.36217284,57.2839506 C2.86061728,57.2839506 1.35834568,56.4261235 1.07264198,54.9954568 L2.4317037,54.5665432 C2.57419753,55.2818765 3.21864198,55.9964938 4.36217284,55.9964938 C5.29160494,55.9964938 5.93533333,55.6391852 5.93533333,54.9238519 C5.93533333,54.3517284 5.43481481,53.9944198 4.9342963,53.9228148 L3.3611358,53.6378272 C2.28777778,53.4222963 1.28745679,52.779284 1.28745679,51.4202222 C1.28745679,49.9895556 2.64580247,48.9885185 4.14807407,48.9885185 C5.79283951,48.9885185 6.79387654,49.7761728 7.15190123,50.9197037 L5.93604938,51.4911111 C5.72123457,50.7048889 5.07822222,50.2752593 4.14807407,50.2752593 C3.43274074,50.2752593 2.71740741,50.6325679 2.71740741,51.3479012 C2.71740741,51.8491358 3.0754321,52.1355556 3.57523457,52.2064444 L5.07750617,52.4205432 C6.29335802,52.635358 7.366,53.4215802 7.366,54.781358 C7.366,55.9964938 6.4365679,57.2839506 4.36217284,57.2839506 Z" id="Shape"></path>
                <polygon id="Shape" points="10.9419506 57.1407407 9.43967901 57.1407407 7.29367901 51.2770123 8.79595062 51.2770123 10.2266173 55.4258025 11.584963 51.2770123 13.0156296 51.2770123"></polygon>
                <path d="M18.1647407,54.6381481 L14.1598765,54.6381481 C14.1598765,55.4959753 14.8036049,56.1404198 15.6621481,56.1404198 C16.4483704,56.1404198 16.877284,55.7107901 17.0920988,55.2102716 L18.1647407,55.6399012 C17.879037,56.4970123 17.0212099,57.2839506 15.7337531,57.2839506 C14.0173827,57.2839506 12.8015309,56.0680988 12.8015309,54.2085185 C12.8015309,52.5637531 13.8025679,51.1330864 15.5912593,51.1330864 C16.5922963,51.1330864 17.3792346,51.562716 17.8081481,52.3496543 C18.0945679,52.8494568 18.2377778,53.4939012 18.2377778,54.1376296 C18.2363457,54.4233333 18.1647407,54.6381481 18.1647407,54.6381481 Z M16.4483704,52.635358 C16.2342716,52.4205432 15.9478519,52.2773333 15.5189383,52.2773333 C14.8036049,52.2773333 14.2314815,52.7785679 14.1605926,53.6371111 L16.8063951,53.6371111 C16.8063951,53.2081975 16.6631852,52.8501728 16.4483704,52.635358 Z" id="Shape"></path>
                <path d="M22.4560247,57.1407407 L22.4560247,53.5655062 C22.4560247,52.8501728 22.2412099,52.4928642 21.4549877,52.4928642 C20.9544691,52.4928642 20.5964444,52.7785679 20.4539506,53.2081975 C20.2391358,53.6378272 20.2391358,54.2801235 20.2391358,54.781358 L20.2391358,57.1407407 L18.8084691,57.1407407 L18.8084691,51.2762963 L20.024321,51.2762963 L20.0959259,52.0632346 C20.4539506,51.4202222 21.1685679,51.1330864 21.8122963,51.1330864 C23.0274321,51.1330864 23.8143704,51.9916296 23.8143704,53.2074815 L23.8143704,57.1407407 L22.4560247,57.1407407 Z" id="Shape"></path>
                <path d="M26.8898025,57.2839506 C26.5324938,57.2839506 26.1744691,57.2123457 25.8887654,57.1407407 C25.1734321,56.926642 24.5297037,56.3538025 24.3148889,55.5682963 L25.4591358,55.1386667 C25.6023457,55.7823951 26.2460741,56.1397037 26.8898025,56.1397037 C27.2478272,56.1397037 27.5335309,56.0673827 27.7476296,55.9964938 C27.9624444,55.853284 28.0333333,55.7107901 28.0333333,55.4959753 C28.0333333,55.1386667 27.8192346,54.9238519 27.4612099,54.852963 L26.0305432,54.6381481 C25.1011111,54.4956543 24.5289877,53.780321 24.5289877,53.0649877 C24.5289877,51.9200247 25.5300247,51.1338025 26.8890864,51.1338025 C28.0333333,51.1338025 28.9627654,51.635037 29.2491852,52.707679 L28.1049383,53.1365926 C27.9617284,52.5644691 27.4612099,52.2780494 26.9606914,52.2780494 C26.7465926,52.2780494 26.6033827,52.2780494 26.3885679,52.3510864 C26.1028642,52.4219753 25.9589383,52.6360741 25.9589383,52.9224938 C25.9589383,53.3521235 26.316963,53.4230123 26.6026667,53.4953333 L27.7469136,53.7094321 C28.6763457,53.9242469 29.391679,54.4970864 29.391679,55.4265185 C29.3215062,56.5693333 28.391358,57.2839506 26.8898025,57.2839506 Z" id="Shape"></path>
                <polygon id="Shape" points="32.1821235 54.6381481 31.2526914 55.6391852 31.2526914 57.2123457 29.8220247 57.2123457 29.8220247 48.9878025 31.2526914 48.9878025 31.2526914 53.6371111 33.4695802 51.2762963 35.2575556 51.2762963 33.1115556 53.5647901 35.4000494 57.1400247 33.755284 57.1400247"></polygon>
                <path d="M40.3350617,55.7107901 C40.3350617,55.9964938 40.4782716,56.0680988 40.7646914,56.0680988 L40.9071852,56.0680988 L40.9071852,57.0698519 C40.7639753,57.1407407 40.5491605,57.2123457 40.1918519,57.2123457 C39.6197284,57.2123457 39.1908148,56.855037 39.1192099,56.4254074 C38.7619012,56.926642 38.1890617,57.2839506 37.3312346,57.2839506 C35.9721728,57.2839506 35.1852346,56.4261235 35.1852346,55.4250864 C35.1852346,54.2794074 36.0437778,53.6371111 37.1873086,53.5647901 L38.903679,53.4215802 L38.903679,53.2074815 C38.903679,52.5637531 38.4747654,52.2064444 37.831037,52.2064444 C37.0448148,52.2064444 36.6867901,52.5637531 36.5435802,53.2074815 L35.3284444,52.9210617 C35.4000494,51.9200247 36.3294815,51.0621975 37.831037,51.0621975 C39.3333086,51.0621975 40.2627407,51.7768148 40.2627407,53.2790864 L40.2627407,55.7107901 L40.3350617,55.7107901 L40.3350617,55.7107901 Z M38.976,54.5665432 L37.4737284,54.709037 C37.0448148,54.709037 36.6159012,54.9947407 36.6159012,55.4959753 C36.6159012,55.9256049 36.9739259,56.2113086 37.4737284,56.2113086 C38.3322716,56.2113086 38.976,55.7107901 38.976,54.852963 L38.976,54.5665432 Z" id="Shape"></path>
                <polygon id="Shape" points="43.2665679 57.1407407 43.2665679 51.2762963 44.6972346 51.2762963 44.6972346 57.1407407"></polygon>
                <path d="M48.9885185,57.1407407 L48.9885185,53.5655062 C48.9885185,52.8501728 48.7737037,52.4928642 47.9867654,52.4928642 C47.4862469,52.4928642 47.1282222,52.7785679 46.9857284,53.2081975 C46.7709136,53.6378272 46.7709136,54.2801235 46.7709136,54.781358 L46.7709136,57.1407407 L45.3402469,57.1407407 L45.3402469,51.2762963 L46.5568148,51.2762963 L46.6284198,52.0632346 C46.9864444,51.4202222 47.7017778,51.1330864 48.3447901,51.1330864 C49.5599259,51.1330864 50.3468642,51.9916296 50.3468642,53.2074815 L50.3468642,57.1407407 L48.9885185,57.1407407 Z" id="Shape"></path>
                <path d="M53.3506914,57.2839506 C52.9926667,57.2839506 52.635358,57.2123457 52.3496543,57.1407407 C51.635037,56.926642 50.9913086,56.3538025 50.7772099,55.5682963 L51.9214568,55.1386667 C52.0639506,55.7823951 52.707679,56.1397037 53.3514074,56.1397037 C53.7094321,56.1397037 53.9951358,56.0673827 54.2099506,55.9964938 C54.4240494,55.853284 54.4956543,55.7107901 54.4956543,55.4959753 C54.4956543,55.1386667 54.2801235,54.9238519 53.9235309,54.852963 L52.4928642,54.6381481 C51.5634321,54.4956543 50.9913086,53.780321 50.9913086,53.0649877 C50.9913086,51.9200247 51.9923457,51.1338025 53.3514074,51.1338025 C54.4963704,51.1338025 55.4250864,51.635037 55.7115062,52.707679 L54.5672593,53.1365926 C54.4240494,52.5644691 53.9235309,52.2780494 53.4230123,52.2780494 C53.2089136,52.2780494 53.0657037,52.2780494 52.8508889,52.3510864 C52.5651852,52.4219753 52.4219753,52.6360741 52.4219753,52.9224938 C52.4219753,53.3521235 52.779284,53.4230123 53.0657037,53.4953333 L54.2099506,53.7094321 C55.1393827,53.9242469 55.854716,54.4970864 55.854716,55.4265185 C55.7823951,56.5693333 54.8522469,57.2839506 53.3506914,57.2839506 Z" id="Shape"></path>
                <path d="M59.8588642,57.0698519 C59.5724444,57.2123457 59.2151358,57.2123457 58.8571111,57.2123457 C57.6419753,57.2123457 56.9975309,56.5693333 56.9975309,55.4250864 L56.9975309,52.4205432 L55.9248889,52.4205432 L55.9248889,51.2762963 L56.9975309,51.2762963 L56.9975309,49.7747407 L58.4281975,49.4174321 L58.4281975,51.2762963 L59.8581481,51.2762963 L59.8581481,52.4205432 L58.4281975,52.4205432 L58.4281975,55.2818765 C58.4281975,55.7107901 58.7139012,55.9248889 59.1428148,55.9248889 C59.4292346,55.9248889 59.6433333,55.8525679 59.7865432,55.8525679 L59.8588642,57.0698519 Z" id="Shape"></path>
                <polygon id="Shape" points="60.5025926 57.1407407 60.5025926 51.2762963 61.9325432 51.2762963 61.9325432 57.1407407"></polygon>
                <path d="M66.2954321,57.0698519 C66.0090123,57.2123457 65.6517037,57.2123457 65.2943951,57.2123457 C64.1501481,57.2123457 63.4348148,56.5693333 63.4348148,55.4250864 L63.4348148,52.4205432 L62.3621728,52.4205432 L62.3621728,51.2762963 L63.4348148,51.2762963 L63.4348148,49.7747407 L64.8647654,49.4174321 L64.8647654,51.2762963 L66.2954321,51.2762963 L66.2954321,52.4205432 L64.8647654,52.4205432 L64.8647654,55.2818765 C64.8647654,55.7107901 65.1504691,55.9248889 65.5800988,55.9248889 C65.8650864,55.9248889 66.0806173,55.8525679 66.2231111,55.8525679 L66.2954321,57.0698519 Z" id="Shape"></path>
                <path d="M70.7284938,57.1407407 L70.6576049,56.3538025 C70.3711852,56.926642 69.7274568,57.2839506 69.0128395,57.2839506 C67.7962716,57.2839506 67.0093333,56.4261235 67.0093333,55.2102716 L67.0093333,51.2762963 L68.44,51.2762963 L68.44,54.8522469 C68.44,55.5675802 68.7257037,55.9964938 69.440321,55.9964938 C69.7983457,55.9964938 70.0131605,55.853284 70.1563704,55.7107901 C70.513679,55.4258025 70.5845679,54.852963 70.5845679,54.4233333 L70.5845679,51.3479012 L72.0152346,51.3479012 L72.0152346,57.2123457 L70.7277778,57.2123457 L70.7277778,57.1407407 L70.7284938,57.1407407 Z" id="Shape"></path>
                <path d="M76.3072346,57.0698519 C76.0215309,57.2123457 75.6635062,57.2123457 75.3054815,57.2123457 C74.0910617,57.2123457 73.4466173,56.5693333 73.4466173,55.4250864 L73.4466173,52.4205432 L72.3732593,52.4205432 L72.3732593,51.2762963 L73.4466173,51.2762963 L73.4466173,49.7747407 L74.877284,49.4174321 L74.877284,51.2762963 L76.3072346,51.2762963 L76.3072346,52.4205432 L74.877284,52.4205432 L74.877284,55.2818765 C74.877284,55.7107901 75.1629877,55.9248889 75.5919012,55.9248889 C75.8776049,55.9248889 76.0924198,55.8525679 76.2349136,55.8525679 L76.3072346,57.0698519 Z" id="Shape"></path>
                <path d="M81.8859753,54.6381481 L77.8803951,54.6381481 C77.8803951,55.4959753 78.5234074,56.1404198 79.3819506,56.1404198 C80.1688889,56.1404198 80.5978025,55.7107901 80.8126173,55.2102716 L81.8859753,55.6399012 C81.5995556,56.4977284 80.7410123,57.2846667 79.3819506,57.2846667 C77.6662963,57.2846667 76.4497284,56.0688148 76.4497284,54.2092346 C76.4497284,52.5644691 77.4507654,51.1338025 79.2394568,51.1338025 C80.2404938,51.1338025 81.0274321,51.5634321 81.4563457,52.3503704 C81.7427654,52.8501728 81.8866914,53.4946173 81.8866914,54.1383457 C81.9568642,54.4233333 81.8859753,54.6381481 81.8859753,54.6381481 Z M80.1688889,52.635358 C79.9547901,52.4205432 79.6683704,52.2773333 79.2394568,52.2773333 C78.5241235,52.2773333 77.952,52.7785679 77.8811111,53.6371111 L80.5261975,53.6371111 C80.5261975,53.2081975 80.3837037,52.8501728 80.1688889,52.635358 Z" id="Shape"></path>
                <path d="M85.8901235,57.0698519 C85.6044198,57.2123457 85.2463951,57.2123457 84.8890864,57.2123457 C83.6739506,57.2123457 83.0302222,56.5693333 83.0302222,55.4250864 L83.0302222,52.4205432 L81.9568642,52.4205432 L81.9568642,51.2762963 L83.0302222,51.2762963 L83.0302222,49.7747407 L84.4601728,49.4174321 L84.4601728,51.2762963 L85.8901235,51.2762963 L85.8901235,52.4205432 L84.4601728,52.4205432 L84.4601728,55.2818765 C84.4601728,55.7107901 84.7451605,55.9248889 85.1755062,55.9248889 C85.4612099,55.9248889 85.6760247,55.8525679 85.8185185,55.8525679 L85.8901235,57.0698519 Z" id="Shape"></path>
                <path d="M87.3923951,55.2818765 C87.9645185,55.2818765 88.3218272,55.7107901 88.3218272,56.2113086 C88.3218272,56.7834321 87.8929136,57.1407407 87.3923951,57.1407407 C86.8202716,57.1407407 86.462963,56.7118272 86.462963,56.2113086 C86.462963,55.7107901 86.8202716,55.2818765 87.3923951,55.2818765 Z" id="Shape"></path>
            </g>
        </g>
    </g>
</svg>