<?xml version="1.0" encoding="UTF-8"?>
<svg width="256px" height="33px" viewBox="0 0 256 33" version="1.1" xmlns="http://www.w3.org/2000/svg" xmlns:xlink="http://www.w3.org/1999/xlink">
    <!-- Generator: Sketch 42 (36781) - http://www.bohemiancoding.com/sketch -->
    <title>Sveriges Arkitekter-logo</title>
    <desc>Created with Sketch.</desc>
    <defs></defs>
    <g id="Page-1" stroke="none" stroke-width="1" fill="none" fill-rule="evenodd">
        <g id="Desktop-HD-Copy-4" transform="translate(-945.000000, -437.000000)" fill-rule="nonzero" fill="#000000">
            <g id="Sveriges-Arkitekter-logo" transform="translate(945.000000, 437.000000)">
                <g id="Asset-1">
                    <g id="Layer_2">
                        <g id="Layer_1-2">
                            <path d="M249.023824,24.1385294 L251.207647,24.1385294 L251.207647,12.7729412 L255.866471,10.0941176 L255.866471,7.58029412 L249.072353,11.4626471 L249.023824,24.1385294 Z M243.860294,17.4705882 C243.260932,20.2861951 240.797651,22.3155887 237.919382,22.3650558 C235.041113,22.4145229 232.509552,20.4709727 231.813792,17.6776243 C231.118031,14.884276 232.442196,11.9803512 235.007396,10.6739727 C237.572597,9.36759416 240.699987,10.0044773 242.55,12.21 L235.755882,16.17 L235.755882,18.7517647 L245.558824,13.0447059 C243.996799,9.14501646 239.790318,7.00283034 235.717704,8.03303195 C231.64509,9.06323356 228.963153,12.9479024 229.443275,17.1212683 C229.923396,21.2946341 233.417412,24.4687951 237.617571,24.5472617 C241.817731,24.6257283 245.427865,21.5842856 246.063529,17.4317647 L243.860294,17.4705882 Z M225.419118,8.085 L225.419118,1.03852941 L223.235294,1.03852941 L223.235294,24.1385294 L225.409412,24.1385294 L225.409412,10.23 L228.321176,10.23 L229.058824,8.04617647 L225.419118,8.085 Z M209.161765,0 L206.977941,0 L206.977941,24.1385294 L209.161765,24.1385294 L209.161765,16.3738235 L219.585882,10.3367647 L219.585882,7.76470588 L209.161765,13.7823529 L209.161765,0 Z M211.510588,19.3147059 L219.925588,24.1676471 L219.925588,21.5955882 L211.510588,16.7426471 L211.510588,19.3147059 Z M161.010882,0 L158.827059,0 L158.827059,24.1385294 L161.010882,24.1385294 L161.010882,16.3738235 L171.435,10.3367647 L171.435,7.76470588 L161.010882,13.7823529 L161.010882,0 Z M201.775588,17.4705882 C201.176226,20.2861951 198.712945,22.3155887 195.834676,22.3650558 C192.956408,22.4145229 190.424846,20.4709727 189.729086,17.6776243 C189.033326,14.884276 190.35749,11.9803512 192.922691,10.6739727 C195.487891,9.36759416 198.615281,10.0044773 200.465294,12.21 L193.671176,16.17 L193.671176,18.7517647 L203.532353,13.0835294 C201.970328,9.18383999 197.763847,7.04165387 193.691234,8.07185548 C189.61862,9.10205709 186.936682,12.986726 187.416804,17.1600918 C187.896926,21.3334576 191.390941,24.5076187 195.591101,24.5860852 C199.79126,24.6645518 203.401394,21.6231092 204.037059,17.4705882 L201.775588,17.4705882 Z M183.334412,8.085 L183.334412,1.03852941 L181.150588,1.03852941 L181.150588,24.1385294 L183.334412,24.1385294 L183.334412,10.23 L186.246176,10.23 L186.983824,8.05588235 L183.334412,8.085 Z M163.359706,19.3147059 L171.774706,24.1676471 L171.774706,21.5955882 L163.359706,16.7426471 L163.359706,19.3147059 Z M149.179412,24.1676471 L151.363235,24.1676471 L151.363235,12.7729412 L156.022059,10.0941176 L156.022059,7.58029412 L149.227941,11.4626471 L149.179412,24.1676471 Z M177.268235,4.93058824 L177.268235,2.31 L175.094118,3.55235294 L175.094118,6.27 L177.268235,4.93058824 Z M175.094118,24.1385294 L177.277941,24.1385294 L177.277941,8.04617647 L175.094118,8.04617647 L175.094118,24.1385294 Z M138.046765,6.40588235 L144.481765,24.1385294 L146.762647,24.1385294 L140.327647,6.40588235 L138.046765,6.40588235 Z M129.534706,24.1385294 L132.621176,15.6264706 L139.162941,15.6264706 L138.357353,13.3747059 L133.426765,13.3747059 L138.143824,0.407647059 L135.882353,0.407647059 L127.244118,24.1385294 L129.534706,24.1385294 Z M106.997647,8.82264706 L106.997647,12.4138235 L116.49,17.8491176 C116.49,20.3497493 114.462838,22.3769118 111.962206,22.3769118 C109.461574,22.3769118 107.434412,20.3497493 107.434412,17.8491176 L107.434412,17.4705882 L105.250588,17.4705882 L105.250588,17.8782353 C105.250588,21.5822792 108.253309,24.585 111.957353,24.585 C115.661397,24.585 118.664118,21.5822792 118.664118,17.8782353 L116.470588,17.8782353 L116.470588,15.2576471 L109.162059,11.0647059 L109.162059,7.58029412 L106.997647,8.82264706 Z M51.8682353,24.1385294 L54.0423529,24.1385294 L54.0423529,12.7729412 L58.7011765,10.0941176 L58.7011765,7.58029412 L51.9070588,11.4626471 L51.8682353,24.1385294 Z M63.9714706,4.93058824 L63.9714706,2.31 L61.7973529,3.55235294 L61.7973529,6.27 L63.9714706,4.93058824 Z M61.7973529,24.1385294 L63.9811765,24.1385294 L63.9811765,8.04617647 L61.7973529,8.04617647 L61.7973529,24.1385294 Z M68.2032353,28.5352941 C69.7217078,31.0472856 72.4406126,32.5851776 75.3758824,32.5923529 C77.4730694,32.6444533 79.5048737,31.8603346 81.0233453,30.4128707 C82.5418169,28.9654067 83.4222687,26.973454 83.4705882,24.8761765 L83.4705882,8.04617647 L81.2382353,8.04617647 L81.2382353,24.8761765 C81.1327353,28.0007997 78.5406299,30.4632999 75.4147059,30.4085294 C73.2467242,30.4084423 71.236664,29.2745622 70.1152941,27.4191176 L68.2032353,28.5352941 Z M79.0641176,8.78382353 C77.8274499,8.1188412 76.4400012,7.78451623 75.0361765,7.81323529 C70.5184284,7.96699895 66.9355464,11.6739007 66.9355464,16.1942647 C66.9355464,20.7146287 70.5184284,24.4215305 75.0361765,24.5752941 C76.440049,24.604454 77.8276081,24.2701024 79.0641176,23.6047059 L79.0641176,20.8870588 C76.5529673,23.0202744 72.8121057,22.8175811 70.5461509,20.4255248 C68.280196,18.0334685 68.280196,14.2871197 70.5461509,11.8950634 C72.8121057,9.50300717 76.5529673,9.30031386 79.0641176,11.4335294 L79.0641176,8.78382353 Z M100.591765,17.4705882 C99.9924023,20.2861951 97.5291213,22.3155887 94.6508527,22.3650558 C91.772584,22.4145229 89.2410225,20.4709727 88.5452622,17.6776243 C87.849502,14.884276 89.1736667,11.9803512 91.738867,10.6739727 C94.3040674,9.36759416 97.4314578,10.0044773 99.2814706,12.21 L92.4873529,16.17 L92.4873529,18.7517647 L102.348529,13.0835294 C100.786505,9.18383999 96.5800239,7.04165387 92.50741,8.07185548 C88.4347962,9.10205709 85.7528587,12.986726 86.2329804,17.1600918 C86.7131022,21.3334576 90.2071174,24.5076187 94.4072772,24.5860852 C98.607437,24.6645518 102.217571,21.6231092 102.853235,17.4705882 L100.591765,17.4705882 Z M48.9176471,17.4705882 L46.7047059,17.4705882 C46.1053435,20.2861951 43.6420625,22.3155887 40.7637939,22.3650558 C37.8855252,22.4145229 35.3539636,20.4709727 34.6582034,17.6776243 C33.9624432,14.884276 35.2866079,11.9803512 37.8518082,10.6739727 C40.4170085,9.36759416 43.544399,10.0044773 45.3944118,12.21 L38.6002941,16.17 L38.6002941,18.7517647 L48.4614706,13.0835294 C46.9432554,9.1660178 42.7603587,6.97663268 38.6760604,7.96171236 C34.5917621,8.94679204 31.8668058,12.8022615 32.3013356,16.981144 C32.7358654,21.1600264 36.1957504,24.3723819 40.3953423,24.4960836 C44.5949343,24.6197853 48.2379006,21.616649 48.9176471,17.4705882 L48.9176471,17.4705882 L48.9176471,17.4705882 Z M29.9717647,8.04617647 L25.6429412,16.8688235 L27.8558824,16.8688235 L32.1847059,8.04617647 L29.9717647,8.04617647 Z M17.6355882,8.04617647 L24.2064706,24.2647059 L25.41,21.78 L19.8485294,8.04617647 L17.6355882,8.04617647 Z M0.339705882,7.58029412 C0.588251564,3.56812031 3.91469395,0.441367429 7.93455882,0.441367429 C11.9544237,0.441367429 15.2808661,3.56812031 15.5294118,7.58029412 L15.5294118,7.97823529 L13.3067647,7.97823529 L13.3067647,7.58029412 C13.1845114,4.70734056 10.8198182,2.44113264 7.94426471,2.44113264 C5.06871119,2.44113264 2.70401804,4.70734056 2.58176471,7.58029412 L2.58176471,7.64823529 L0.339705882,7.64823529 L0.339705882,7.58029412 Z M2.59147059,10.23 L2.59147059,7.64823529 L15.8982353,15.2964706 L15.8982353,16.6358824 C15.8982353,21.0260588 12.3392941,24.585 7.94911765,24.585 C3.5589412,24.585 5.37641554e-16,21.0260588 0,16.6358824 L0,16.2379412 L2.24205882,16.2379412 L2.24205882,16.6358824 C2.24205882,19.7851237 4.79502336,22.3380882 7.94426471,22.3380882 C11.0935061,22.3380882 13.6464706,19.7851237 13.6464706,16.6358824 L2.59147059,10.23 Z" id="Shape"></path>
                        </g>
                    </g>
                </g>
            </g>
        </g>
    </g>
</svg>