<?xml version="1.0" encoding="UTF-8"?>
<svg width="158px" height="48px" viewBox="0 0 158 48" version="1.1" xmlns="http://www.w3.org/2000/svg" xmlns:xlink="http://www.w3.org/1999/xlink">
    <!-- Generator: Sketch 42 (36781) - http://www.bohemiancoding.com/sketch -->
    <title>Group 9</title>
    <desc>Created with Sketch.</desc>
    <defs></defs>
    <g id="Page-1" stroke="none" stroke-width="1" fill="none" fill-rule="evenodd">
        <g id="Desktop-HD-Copy-4" transform="translate(-641.000000, -418.000000)" fill-rule="nonzero" fill="#000000">
            <g id="Group-9" transform="translate(641.000000, 418.000000)">
                <path d="M124.974545,38.4 L137.105455,25.8327273 L149.323636,38.4 L149.323636,42.5890909 L124.974545,42.5890909 L124.974545,38.4 Z M121.832727,9.86181818 L131.52,19.9854545 L116.770909,19.9854545 L116.770909,24.6109091 L131.432727,24.6109091 L120.087273,36.3054545 L120.087273,47.5636364 L153.949091,47.5636364 L153.949091,36.3054545 L142.603636,24.6109091 L157.352727,24.6109091 L157.352727,19.9854545 L142.603636,19.9854545 L152.116364,10.0363636 L148.712727,6.54545455 L136.930909,18.7636364 L125.236364,6.28363636 L121.832727,9.86181818 Z" id="Shape"></path>
                <path d="M141.905455,4.97454545 C141.905455,7.76727273 139.723636,9.94909091 137.105455,9.94909091 C134.487273,9.94909091 132.305455,7.68 132.305455,4.97454545 C132.305455,2.18181818 134.487273,0 137.105455,0 C139.810909,0 141.905455,2.26909091 141.905455,4.97454545" id="Shape"></path>
                <path d="M97.3963636,43.8109091 C100.538182,43.8109091 101.672727,40.7563636 101.672727,37.44 C101.672727,33.8618182 100.625455,31.0690909 97.3963636,31.0690909 C94.2545455,31.0690909 92.9454545,33.9490909 92.9454545,37.44 C92.9454545,40.6690909 94.2545455,43.8109091 97.3963636,43.8109091 M97.3963636,26.9672727 C103.767273,26.9672727 107.170909,30.72 107.170909,37.3527273 C107.170909,43.7236364 103.767273,47.7381818 97.3963636,47.7381818 C91.0254545,47.7381818 87.6218182,43.7236364 87.6218182,37.3527273 C87.7090909,30.72 91.0254545,26.9672727 97.3963636,26.9672727" id="Shape"></path>
                <path d="M78.3709091,26.9672727 C80.2909091,26.9672727 82.2109091,27.4036364 84.0436364,27.84 L83.6072727,32.2909091 C81.9490909,31.4181818 80.2036364,30.9818182 78.5454545,30.9818182 C74.9672727,30.9818182 72.4363636,33.6 72.4363636,37.3527273 C72.4363636,41.3672727 75.2290909,43.7236364 78.9818182,43.7236364 C80.64,43.7236364 82.3854545,43.2872727 83.8690909,42.5890909 L84.0436364,46.7781818 C82.56,47.2145455 80.9018182,47.6509091 78.3709091,47.6509091 C73.0472727,47.6509091 67.1127273,45.0327273 67.1127273,37.2654545 C67.1127273,30.2836364 72,26.9672727 78.3709091,26.9672727" id="Shape"></path>
                <polygon id="Shape" points="49.3090909 27.2290909 49.3090909 47.5636364 63.0981818 47.5636364 63.0981818 43.5490909 54.1963636 43.5490909 54.1963636 39.1854545 62.2254545 39.1854545 62.2254545 35.1709091 54.1963636 35.1709091 54.1963636 30.9818182 62.9236364 30.9818182 62.9236364 27.2290909"></polygon>
                <polygon id="Shape" points="40.2327273 27.2290909 37.7018182 42.6763636 34.9090909 27.2290909 28.3636364 27.2290909 25.8327273 42.6763636 25.6581818 42.6763636 23.3018182 27.2290909 17.9781818 27.2290909 22.2545455 47.5636364 28.9745455 47.5636364 31.5927273 31.8545455 34.2981818 47.5636364 40.8436364 47.5636364 45.2945455 27.2290909"></polygon>
                <path d="M8.46545455,26.9672727 C10.3854545,26.9672727 12.0436364,27.1418182 13.5272727,27.6654545 L13.0909091,31.8545455 C11.7818182,31.1563636 10.2981818,30.9818182 8.90181818,30.9818182 C7.59272727,30.9818182 5.32363636,30.9818182 5.32363636,32.7272727 C5.32363636,36.0436364 14.6618182,33.8618182 14.6618182,41.1054545 C14.6618182,46.4290909 10.3854545,47.7381818 5.93454545,47.7381818 C4.27636364,47.7381818 1.92,47.4763636 0.261818182,46.8654545 L0.698181818,42.4145455 C2.18181818,43.1127273 3.84,43.7236364 6.02181818,43.7236364 C7.68,43.7236364 9.16363636,43.2872727 9.16363636,41.7163636 C9.07636364,38.0509091 0,40.4945455 0,33.1636364 C0,28.3636364 4.62545455,26.9672727 8.46545455,26.9672727" id="Shape"></path>
            </g>
        </g>
    </g>
</svg>