<?xml version="1.0" encoding="UTF-8"?>
<svg width="183px" height="24px" viewBox="0 0 183 24" version="1.1" xmlns="http://www.w3.org/2000/svg" xmlns:xlink="http://www.w3.org/1999/xlink">
    <!-- Generator: Sketch 42 (36781) - http://www.bohemiancoding.com/sketch -->
    <title>Visit-Sweden</title>
    <desc>Created with Sketch.</desc>
    <defs></defs>
    <g id="Page-1" stroke="none" stroke-width="1" fill="none" fill-rule="evenodd">
        <g id="Desktop-HD-Copy-4" transform="translate(-85.000000, -436.000000)" fill-rule="nonzero" fill="#000000">
            <path d="M96.4364641,459.801105 L104.19337,436.198895 L99.6187845,436.198895 L94.6132597,451.911602 L89.5745856,436.198895 L85,436.198895 L92.7900552,459.801105 L96.4364641,459.801105 Z M115.430939,459.801105 L115.430939,456.055249 L112.18232,456.055249 L112.18232,442.994475 L104.723757,442.994475 L104.723757,446.740331 L107.939227,446.740331 L107.939227,456.055249 L104.723757,456.055249 L104.723757,459.801105 L115.430939,459.801105 Z M110.060773,441.370166 C111.552486,441.370166 112.745856,440.176795 112.745856,438.685083 C112.745856,437.19337 111.552486,436 110.060773,436 C108.569061,436 107.375691,437.19337 107.375691,438.685083 C107.375691,440.176795 108.569061,441.370166 110.060773,441.370166 Z M129.682027,447.635359 C128.820148,444.41989 126.665452,442.79558 123.648878,442.79558 C120.267662,442.79558 117.682027,444.817679 117.682027,447.867403 C117.682027,450.850829 120.135065,451.878453 122.223463,452.674033 L123.449982,453.138122 C125.107441,453.767956 125.770424,454.099448 125.770424,454.828729 C125.770424,455.690608 124.809099,456.121547 123.648878,456.121547 C122.35606,456.121547 121.295286,455.59116 120.532855,454.066299 L116.820148,455.027624 C117.715176,458.209945 119.903021,460 123.54943,460 C127.12954,460 130.146115,458.243094 130.146115,454.729282 C130.146115,451.812155 128.124016,450.585635 125.571529,449.657458 L124.477607,449.259669 C122.687551,448.629834 121.95827,448.364641 121.95827,447.767956 C121.95827,447.138122 122.720701,446.674033 123.648878,446.674033 C124.643352,446.674033 125.372634,447.237569 125.969319,448.596685 L129.682027,447.635359 Z M142.63724,459.801105 L142.63724,456.055249 L139.388621,456.055249 L139.388621,442.994475 L131.930058,442.994475 L131.930058,446.740331 L135.145527,446.740331 L135.145527,456.055249 L131.930058,456.055249 L131.930058,459.801105 L142.63724,459.801105 Z M137.267074,441.370166 C138.758787,441.370166 139.952157,440.176795 139.952157,438.685083 C139.952157,437.19337 138.758787,436 137.267074,436 C135.775361,436 134.581991,437.19337 134.581991,438.685083 C134.581991,440.176795 135.775361,441.370166 137.267074,441.370166 Z M152.871165,455.59116 C152.175032,455.856354 151.014811,456.121547 150.384977,456.121547 C149.390502,456.121547 148.926414,455.856354 148.926414,454.132597 L148.926414,446.740331 L152.804866,446.740331 L152.804866,442.994475 L148.926414,442.994475 L148.926414,438.254144 L144.68332,438.254144 L144.68332,442.994475 L142.959563,442.994475 L142.959563,446.740331 L144.68332,446.740331 L144.68332,454.464088 C144.68332,457.58011 146.009286,460 149.589397,460 C150.849065,460 151.909839,459.701657 153.136358,459.138122 L152.871165,455.59116 Z M178.863171,443.491713 C178.863171,438.78453 175.946044,436 171.570354,436 C167.393558,436 163.979193,438.552486 163.979193,442.928177 C163.979193,446.110497 165.802398,447.767956 168.653227,448.895028 L171.7361,450.121547 C173.592453,450.850829 175.150464,451.447514 175.150464,453.237569 C175.150464,455.22652 173.294111,455.955801 171.603503,455.955801 C168.984719,455.955801 167.625603,454.165746 167.294111,451.149171 L163.31621,452.01105 C163.31621,456.983425 166.796873,460 171.669801,460 C176.078641,460 179.625603,457.546961 179.625603,452.972376 C179.625603,449.292818 177.305161,447.801105 174.553779,446.707182 L171.272011,445.414365 C169.979193,444.917127 168.421183,444.287293 168.421183,442.596685 C168.421183,440.906078 169.979193,440.044199 171.504055,440.044199 C173.393558,440.044199 174.586928,441.403315 174.885271,444.353591 L178.863171,443.491713 Z M197.227812,459.801105 L201.437757,442.994475 L196.962619,442.994475 L194.708476,452.740331 L192.785823,445.314917 L189.371459,445.314917 L187.415658,452.740331 L185.194663,442.994475 L180.686376,442.994475 L184.896321,459.801105 L188.807923,459.801105 L191.062067,452.276243 L193.31621,459.801105 L197.227812,459.801105 Z M217.108146,452.839779 L217.108146,451.414365 C217.108146,445.082873 213.262843,442.79558 209.516986,442.79558 C205.77113,442.79558 201.925826,445.082873 201.925826,451.447514 C201.925826,457.712707 205.671682,460 209.682732,460 C212.997649,460 215.815329,458.243094 216.710356,455.027624 L212.997649,454.066299 C212.135771,455.491713 210.876102,456.121547 209.583284,456.121547 C208.224168,456.121547 206.666158,455.59116 206.301516,452.839779 L217.108146,452.839779 Z M206.400964,449.458564 C206.931351,447.237569 208.290467,446.674033 209.516986,446.674033 C210.710356,446.674033 212.069472,447.171271 212.56671,449.458564 L206.400964,449.458564 Z M233.902551,459.801105 L233.902551,436.198895 L229.659457,436.198895 L229.659457,443.98895 C228.664982,443.259669 227.571059,442.79558 226.079347,442.79558 C222.797578,442.79558 218.819678,445.082873 218.819678,451.414365 C218.819678,457.712707 222.764429,460 226.178794,460 C227.637357,460 228.764429,459.569061 229.792054,458.640884 L229.858352,459.801105 L233.902551,459.801105 Z M229.659457,452.77348 C229.261667,455.392265 227.703656,456.121547 226.311391,456.121547 C224.852827,456.121547 223.095921,455.325967 223.095921,451.414365 C223.095921,447.469613 224.885976,446.674033 226.245092,446.674033 C227.637357,446.674033 229.261667,447.502763 229.659457,450.718232 L229.659457,452.77348 Z M251.694487,452.839779 L251.694487,451.414365 C251.694487,445.082873 247.849183,442.79558 244.103327,442.79558 C240.35747,442.79558 236.512166,445.082873 236.512166,451.447514 C236.512166,457.712707 240.258023,460 244.269073,460 C247.583989,460 250.401669,458.243094 251.296697,455.027624 L247.583989,454.066299 C246.722111,455.491713 245.462443,456.121547 244.169625,456.121547 C242.810509,456.121547 241.252498,455.59116 240.887857,452.839779 L251.694487,452.839779 Z M240.987304,449.458564 C241.517691,447.237569 242.876808,446.674033 244.103327,446.674033 C245.296697,446.674033 246.655813,447.171271 247.153051,449.458564 L240.987304,449.458564 Z M267.795815,459.801105 L267.795815,449.889503 C267.795815,444.618785 264.4146,442.79558 261.762666,442.79558 C260.569296,442.79558 259.574821,443.160221 258.4146,444.154696 L258.348301,442.994475 L254.304103,442.994475 L254.304103,459.801105 L258.547197,459.801105 L258.547197,449.723757 C258.911837,447.370166 260.204655,446.674033 261.265428,446.674033 C262.259904,446.674033 263.552721,447.270718 263.552721,450.154696 L263.552721,459.801105 L267.795815,459.801105 Z" id="Visit-Sweden"></path>
        </g>
    </g>
</svg>