<?xml version="1.0" encoding="UTF-8"?>
<svg width="149px" height="40px" viewBox="0 0 149 40" version="1.1" xmlns="http://www.w3.org/2000/svg" xmlns:xlink="http://www.w3.org/1999/xlink">
    <!-- Generator: Sketch 42 (36781) - http://www.bohemiancoding.com/sketch -->
    <title>Group 6</title>
    <desc>Created with Sketch.</desc>
    <defs>
        <polygon id="path-1" points="31.0781313 0.0763636364 0 0.0763636364 0 39.7979798 31.0781313 39.7979798 62.1562626 39.7979798 62.1562626 0.0763636364 31.0781313 0.0763636364"></polygon>
    </defs>
    <g id="Page-1" stroke="none" stroke-width="1" fill="none" fill-rule="evenodd">
        <g id="Desktop-HD-Copy-4" transform="translate(-999.000000, -580.000000)">
            <g id="Group-6" transform="translate(999.000000, 580.000000)">
                <g id="Group-3" transform="translate(0.000000, 0.125657)">
                    <mask id="mask-2" fill="white">
                        <use xlink:href="#path-1"></use>
                    </mask>
                    <g id="Clip-2"></g>
                    <path d="M31.1063636,12.979798 C27.9623232,12.979798 26.0839394,15.6763636 26.0839394,18.4793939 C26.0839394,21.5343434 28.6021212,25.469899 30.9348485,27.3511111 L31.1067677,27.489697 L31.2790909,27.350101 C33.6114141,25.4442424 36.1287879,21.5058586 36.1287879,18.4793939 C36.1287879,15.6763636 34.249798,12.979798 31.1063636,12.979798 M40.6734343,39.7979798 C37.4283838,39.7979798 34.2394949,39.0337374 31.1934343,37.5262626 L31.0742424,37.4674747 L30.9546465,37.5252525 C27.8782828,39.0123232 24.5217172,39.7979798 21.2477778,39.7979798 C15.0835354,39.7979798 9.77020202,37.4618182 5.88070707,33.040404 C2.08878788,28.7307071 -0.000101010101,22.6648485 -0.000101010101,15.9624242 C-0.000101010101,14.9379798 0.225757576,12.9064646 0.461515152,11.8680808 L8.57060606,10.1440404 C8.23565657,11.6868687 7.99686869,13.9713131 7.99686869,15.6830303 C7.99686869,25.1806061 13.569596,31.6270707 21.2477778,31.6270707 C23.3459596,31.6270707 23.8247475,31.3377778 23.8247475,31.3377778 C23.8247475,31.3377778 18.1712121,25.6577778 18.1712121,18.1743434 C18.1712121,10.7553535 23.8726263,5.01151515 31.1063636,5.01151515 C38.339899,5.01151515 44.1122222,10.7553535 44.1122222,18.1743434 C44.1122222,25.4587879 38.2807071,31.3088889 38.2807071,31.3088889 C38.2807071,31.3088889 39.0980808,31.6270707 40.9889899,31.6270707 C48.2928283,31.6270707 53.8015152,25.2284848 53.8015152,16.7426263 C53.8015152,8.41212121 48.6271717,2.73939394 47.6813131,1.82828283 L55.9211111,0.0763636364 C57.5807071,1.66343434 62.1562626,7.93919192 62.1562626,16.5248485 C62.1562626,29.7923232 52.920303,39.7979798 40.6734343,39.7979798" id="Fill-1" fill="#000000" mask="url(#mask-2)"></path>
                </g>
                <polygon id="Fill-4" fill="#000000" points="70.1544646 31.3776364 70.1544646 38.2485455 75.7174949 38.2485455 77.228404 35.5047071 78.0587071 35.5047071 77.6811313 39.3810707 65.648202 39.3810707 65.648202 38.7517778 67.787798 37.8707677 67.787798 24.1024848 65.648202 23.2214747 65.648202 22.5921818 77.5805253 22.5921818 77.5805253 26.3681414 76.7500202 26.3681414 75.5667879 23.5988485 70.1544646 23.5988485 70.1544646 30.3707677 73.9910303 30.3707677 74.8471919 28.1051111 75.6273939 28.1051111 75.6273939 33.6182424 74.8471919 33.6182424 73.9910303 31.3776364"></polygon>
                <polygon id="Fill-6" fill="#000000" points="83.8316768 31.3776364 83.8316768 37.8707677 86.4749091 38.7517778 86.4749091 39.3810707 79.3258182 39.3810707 79.3258182 38.7517778 81.4654141 37.8707677 81.4654141 24.1024848 79.3258182 23.2214747 79.3258182 22.5921818 90.7549091 22.5921818 90.7549091 26.3681414 89.923798 26.3681414 88.7405657 23.5988485 83.8316768 23.5988485 83.8316768 30.3707677 87.1652121 30.3707677 88.0209697 28.1051111 88.8015758 28.1051111 88.8015758 33.6182424 88.0209697 33.6182424 87.1652121 31.3776364"></polygon>
                <polygon id="Fill-8" fill="#000000" points="96.8448081 31.3776364 96.8448081 37.8707677 99.4882424 38.7517778 99.4882424 39.3810707 92.3387475 39.3810707 92.3387475 38.7517778 94.4781414 37.8707677 94.4781414 24.1024848 92.3387475 23.2214747 92.3387475 22.5921818 103.767838 22.5921818 103.767838 26.3681414 102.936727 26.3681414 101.753697 23.5988485 96.8448081 23.5988485 96.8448081 30.3707677 100.178343 30.3707677 101.034303 28.1051111 101.814505 28.1051111 101.814505 33.6182424 101.034303 33.6182424 100.178343 31.3776364"></polygon>
                <polygon id="Fill-10" fill="#000000" points="109.769172 31.3776364 109.769172 38.2485455 115.332606 38.2485455 116.843111 35.5047071 117.67402 35.5047071 117.296242 39.3810707 105.262909 39.3810707 105.262909 38.7517778 107.402303 37.8707677 107.402303 24.1024848 105.262909 23.2214747 105.262909 22.5921818 117.195838 22.5921818 117.195838 26.3681414 116.364323 26.3681414 115.181091 23.5988485 109.769172 23.5988485 109.769172 30.3707677 113.605333 30.3707677 114.461899 28.1051111 115.242303 28.1051111 115.242303 33.6182424 114.461899 33.6182424 113.605333 31.3776364"></polygon>
                <polygon id="Fill-12" fill="#000000" points="140.126646 37.8706869 140.126646 23.7248283 136.325232 23.7248283 135.167455 26.7205859 134.286242 26.7205859 134.286242 22.592101 148.232707 22.592101 148.232707 26.7205859 147.32604 26.7205859 146.193313 23.7248283 142.492707 23.7248283 142.492707 37.8706869 145.136747 38.751697 145.136747 39.3811919 137.483212 39.3811919 137.483212 38.751697"></polygon>
                <polygon id="Fill-14" fill="#000000" points="99.7076162 14.5931919 98.1967071 17.3370303 92.6334747 17.3370303 92.6334747 10.4645051 96.4704444 10.4645051 97.3266061 12.7049091 98.1068081 12.7049091 98.1068081 7.1919798 97.3266061 7.1919798 96.4704444 9.45763636 92.6334747 9.45763636 92.6334747 2.68612121 98.046202 2.68612121 99.2294343 5.45541414 100.059737 5.45541414 100.059737 1.67884848 88.4595354 1.67884848 88.1276162 1.67884848 82.845798 1.67884848 82.845798 2.34834343 84.8853939 3.18975758 81.3233737 14.5026869 77.6781212 2.89319192 79.8492323 2.20773737 79.8492323 1.68066667 77.2973131 1.68066667 77.2965051 1.67884848 76.1641818 1.67884848 76.1633737 1.68066667 73.5365051 1.68066667 73.5365051 2.20773737 75.7773131 2.98450505 72.2344848 14.9412727 68.6512525 3.18975758 70.5647879 2.30854545 70.5647879 1.67884848 64.195697 1.67884848 64.195697 2.30854545 66.1340808 3.18975758 71.1365051 18.4699596 72.3266061 18.4699596 76.1641818 5.60652525 80.4106465 18.4699596 81.606202 18.4699596 86.496101 3.18975758 88.3007475 2.37985859 90.2672121 3.18975758 90.2672121 16.9596566 88.1276162 17.8406667 88.1276162 18.4699596 100.160545 18.4699596 100.537919 14.5931919"></polygon>
                <path d="M132.691152,38.1220404 C131.693576,38.7753737 129.893172,39.7014343 127.53903,39.7014343 C122.338424,39.7014343 118.716606,36.2693131 118.716606,31.1723434 C118.716606,25.9460808 122.635192,22.238 127.344485,22.238 C128.608727,22.238 129.804687,22.4240606 130.622061,22.6192121 C131.653576,22.8652727 132.333576,23.1365859 132.333576,23.1365859 L132.324283,26.7204242 L131.450545,26.7204242 L130.435394,24.0448687 C129.950141,23.7396162 128.853576,23.2034545 127.081051,23.2034545 C124.028727,23.2034545 121.536606,25.9973939 121.536606,30.9135556 C121.536606,36.1915354 124.211354,38.6755758 127.756404,38.6755758 C128.764485,38.6755758 129.784283,38.3218384 130.165091,38.0339596 L132.03903,34.5072929 L132.689535,34.5068889 L132.691152,38.1220404 Z" id="Fill-16" fill="#000000"></path>
            </g>
        </g>
    </g>
</svg>